M48
;GenerationSoftware,Autodesk,EAGLE,9.6.2*%
;CreationDate,2022-04-28T10:20:06Z*%
FMAT,2
ICI,OFF
METRIC,TZ,000.000
T3C0.350
T2C0.650
T1C1.016
%
G90
M71
T1
X42831Y38259
X24289Y37624
X24289Y35084
X24289Y32544
T2
X35927Y40849
X32335Y37257
X35927Y37257
T3
X27940Y25559
X41751Y40005
X48577Y38100
X49212Y31432
X44926Y23336
X36195Y29051
X25876Y39529
X27781Y41434
X25082Y28734
X23812Y30004
X27781Y28892
X44132Y40481
X44450Y25400
X34608Y22542
X25082Y41593
X29369Y28257
X29369Y25876
X35878Y45244
X39529Y43498
X39053Y21590
X34925Y24924
X33814Y24130
M30