G04 EAGLE Gerber RS-274X export*
G75*
%MOMM*%
%FSLAX34Y34*%
%LPD*%
%INTop Copper*%
%IPPOS*%
%AMOC8*
5,1,8,0,0,1.08239X$1,22.5*%
G01*
%ADD10R,0.800000X0.800000*%
%ADD11R,1.100000X1.000000*%
%ADD12P,1.649562X8X22.500000*%
%ADD13R,1.000000X1.100000*%
%ADD14C,1.000000*%
%ADD15C,1.158000*%
%ADD16R,1.158000X1.158000*%
%ADD17R,0.600000X0.720000*%
%ADD18R,1.010000X0.392000*%
%ADD19C,0.392000*%
%ADD20R,1.295200X2.246000*%
%ADD21R,1.500000X1.300000*%
%ADD22R,1.300000X1.500000*%
%ADD23C,1.524000*%
%ADD24R,2.700000X1.600000*%
%ADD25C,0.756400*%
%ADD26C,0.609600*%
%ADD27C,0.304800*%
%ADD28C,0.406400*%
%ADD29C,0.254000*%
%ADD30C,0.355600*%

G36*
X278503Y190819D02*
X278503Y190819D01*
X278531Y190816D01*
X278599Y190839D01*
X278670Y190853D01*
X278693Y190869D01*
X278720Y190878D01*
X278775Y190925D01*
X278834Y190965D01*
X278849Y190989D01*
X278871Y191008D01*
X278902Y191072D01*
X278941Y191133D01*
X278946Y191161D01*
X278958Y191186D01*
X278967Y191288D01*
X278974Y191329D01*
X278972Y191339D01*
X278973Y191352D01*
X278916Y192067D01*
X314452Y192067D01*
X314595Y192081D01*
X314740Y192088D01*
X314796Y192101D01*
X314853Y192107D01*
X314990Y192149D01*
X315131Y192184D01*
X315183Y192208D01*
X315238Y192225D01*
X315365Y192294D01*
X315495Y192355D01*
X315541Y192390D01*
X315592Y192417D01*
X315703Y192509D01*
X315818Y192595D01*
X315857Y192638D01*
X315901Y192675D01*
X315991Y192787D01*
X316088Y192894D01*
X316117Y192944D01*
X316153Y192989D01*
X316220Y193116D01*
X316293Y193240D01*
X316312Y193295D01*
X316339Y193346D01*
X316379Y193484D01*
X316426Y193620D01*
X316437Y193685D01*
X316450Y193733D01*
X316457Y193816D01*
X316478Y193948D01*
X316479Y193965D01*
X316477Y194041D01*
X316485Y194117D01*
X316483Y194133D01*
X316483Y194134D01*
X316482Y194142D01*
X316472Y194242D01*
X316469Y194368D01*
X316452Y194442D01*
X316445Y194517D01*
X316408Y194637D01*
X316383Y194745D01*
X316579Y195605D01*
X316588Y195671D01*
X316602Y195762D01*
X316603Y195764D01*
X316603Y195767D01*
X316625Y195905D01*
X316691Y196790D01*
X316724Y196830D01*
X316783Y196941D01*
X316849Y197047D01*
X316877Y197118D01*
X316912Y197186D01*
X316962Y197341D01*
X316993Y197423D01*
X316999Y197459D01*
X317012Y197502D01*
X317205Y198345D01*
X317214Y198421D01*
X317233Y198495D01*
X317240Y198620D01*
X317255Y198745D01*
X317250Y198821D01*
X317253Y198898D01*
X317235Y199021D01*
X317227Y199133D01*
X317549Y199953D01*
X317567Y200017D01*
X317638Y200243D01*
X317835Y201108D01*
X317874Y201143D01*
X317949Y201244D01*
X318031Y201339D01*
X318068Y201405D01*
X318114Y201467D01*
X318185Y201613D01*
X318228Y201689D01*
X318239Y201723D01*
X318260Y201765D01*
X318576Y202570D01*
X318596Y202643D01*
X318626Y202714D01*
X318651Y202836D01*
X318685Y202957D01*
X318691Y203034D01*
X318706Y203108D01*
X318706Y203234D01*
X318714Y203345D01*
X319155Y204108D01*
X319183Y204169D01*
X319287Y204382D01*
X319611Y205208D01*
X319654Y205236D01*
X319743Y205325D01*
X319838Y205406D01*
X319885Y205467D01*
X319939Y205521D01*
X320032Y205655D01*
X320086Y205724D01*
X320102Y205756D01*
X320128Y205794D01*
X320560Y206542D01*
X320592Y206612D01*
X320632Y206678D01*
X320675Y206795D01*
X320726Y206909D01*
X320743Y206984D01*
X320770Y207056D01*
X320788Y207180D01*
X320813Y207289D01*
X321363Y207977D01*
X321399Y208034D01*
X321534Y208228D01*
X321977Y208997D01*
X322025Y209019D01*
X322126Y209093D01*
X322232Y209159D01*
X322287Y209212D01*
X322349Y209257D01*
X322461Y209376D01*
X322524Y209436D01*
X322545Y209466D01*
X322576Y209499D01*
X323115Y210175D01*
X323157Y210240D01*
X323206Y210298D01*
X323266Y210408D01*
X323334Y210513D01*
X323362Y210585D01*
X323399Y210652D01*
X323436Y210771D01*
X323477Y210875D01*
X324122Y211474D01*
X324167Y211525D01*
X324329Y211697D01*
X324882Y212391D01*
X324932Y212405D01*
X325043Y212464D01*
X325158Y212514D01*
X325221Y212558D01*
X325288Y212593D01*
X325417Y212694D01*
X325488Y212744D01*
X325513Y212770D01*
X325549Y212798D01*
X326183Y213386D01*
X326234Y213444D01*
X326291Y213494D01*
X326367Y213594D01*
X326450Y213688D01*
X326488Y213754D01*
X326534Y213815D01*
X326589Y213928D01*
X326645Y214025D01*
X327373Y214521D01*
X327424Y214564D01*
X327610Y214710D01*
X328260Y215314D01*
X328312Y215321D01*
X328430Y215362D01*
X328552Y215395D01*
X328620Y215428D01*
X328692Y215454D01*
X328834Y215534D01*
X328912Y215573D01*
X328941Y215595D01*
X328981Y215618D01*
X329695Y216105D01*
X329754Y216154D01*
X329818Y216195D01*
X329908Y216283D01*
X330004Y216363D01*
X330052Y216423D01*
X330106Y216476D01*
X330177Y216580D01*
X330247Y216667D01*
X331040Y217049D01*
X331098Y217084D01*
X331303Y217201D01*
X332037Y217701D01*
X332089Y217700D01*
X332212Y217723D01*
X332337Y217737D01*
X332409Y217761D01*
X332485Y217775D01*
X332637Y217833D01*
X332720Y217860D01*
X332751Y217877D01*
X332794Y217894D01*
X333573Y218269D01*
X333639Y218309D01*
X333708Y218340D01*
X333810Y218413D01*
X333917Y218479D01*
X333973Y218531D01*
X334035Y218575D01*
X334120Y218667D01*
X334212Y218752D01*
X334233Y218780D01*
X334254Y218793D01*
X334324Y218822D01*
X334428Y218893D01*
X334538Y218956D01*
X334605Y219013D01*
X334657Y219048D01*
X334708Y219101D01*
X334791Y219171D01*
X337259Y221639D01*
X339411Y223791D01*
X339428Y223812D01*
X339449Y223830D01*
X339556Y223967D01*
X339666Y224103D01*
X339679Y224126D01*
X339695Y224148D01*
X339773Y224305D01*
X339855Y224459D01*
X339863Y224484D01*
X339875Y224508D01*
X339920Y224678D01*
X339970Y224844D01*
X339972Y224871D01*
X339979Y224897D01*
X340006Y225228D01*
X340006Y226632D01*
X340930Y228863D01*
X342637Y230570D01*
X344868Y231494D01*
X347282Y231494D01*
X349513Y230570D01*
X351220Y228863D01*
X352144Y226632D01*
X352144Y224218D01*
X351666Y223065D01*
X351648Y223005D01*
X351622Y222947D01*
X351590Y222812D01*
X351550Y222680D01*
X351544Y222617D01*
X351529Y222555D01*
X351525Y222417D01*
X351512Y222279D01*
X351518Y222216D01*
X351516Y222153D01*
X351539Y222016D01*
X351553Y221879D01*
X351572Y221818D01*
X351583Y221756D01*
X351632Y221627D01*
X351673Y221494D01*
X351703Y221439D01*
X351726Y221380D01*
X351800Y221263D01*
X351866Y221141D01*
X351907Y221093D01*
X351941Y221039D01*
X352036Y220939D01*
X352126Y220833D01*
X352175Y220793D01*
X352219Y220748D01*
X352332Y220668D01*
X352440Y220582D01*
X352497Y220553D01*
X352548Y220517D01*
X352675Y220461D01*
X352799Y220398D01*
X352859Y220381D01*
X352917Y220355D01*
X353105Y220311D01*
X353186Y220288D01*
X353210Y220286D01*
X353240Y220279D01*
X353733Y220205D01*
X353771Y220169D01*
X353877Y220102D01*
X353977Y220028D01*
X354047Y219995D01*
X354111Y219955D01*
X354263Y219894D01*
X354342Y219857D01*
X354377Y219848D01*
X354419Y219831D01*
X355246Y219576D01*
X355321Y219561D01*
X355393Y219537D01*
X355517Y219521D01*
X355640Y219496D01*
X355717Y219496D01*
X355793Y219487D01*
X355918Y219496D01*
X356029Y219496D01*
X356823Y219114D01*
X356886Y219090D01*
X357106Y219003D01*
X357954Y218741D01*
X357986Y218700D01*
X358081Y218618D01*
X358169Y218529D01*
X358233Y218487D01*
X358291Y218437D01*
X358431Y218354D01*
X358504Y218306D01*
X358537Y218292D01*
X358577Y218269D01*
X359356Y217894D01*
X359427Y217868D01*
X359496Y217833D01*
X359616Y217799D01*
X359734Y217756D01*
X359810Y217744D01*
X359883Y217724D01*
X360008Y217714D01*
X360118Y217697D01*
X360847Y217201D01*
X360906Y217169D01*
X361110Y217049D01*
X361909Y216664D01*
X361934Y216619D01*
X362016Y216524D01*
X362090Y216423D01*
X362147Y216371D01*
X362197Y216313D01*
X362324Y216211D01*
X362388Y216152D01*
X362419Y216133D01*
X362455Y216105D01*
X363169Y215618D01*
X363236Y215581D01*
X363298Y215536D01*
X363413Y215485D01*
X363523Y215425D01*
X363596Y215402D01*
X363665Y215371D01*
X363788Y215343D01*
X363894Y215310D01*
X364540Y214710D01*
X364594Y214670D01*
X364777Y214521D01*
X365511Y214021D01*
X365529Y213972D01*
X365596Y213866D01*
X365654Y213755D01*
X365702Y213696D01*
X365743Y213631D01*
X365853Y213511D01*
X365908Y213443D01*
X365936Y213420D01*
X365967Y213386D01*
X366601Y212798D01*
X366662Y212752D01*
X366716Y212699D01*
X366822Y212631D01*
X366922Y212555D01*
X366990Y212522D01*
X367055Y212480D01*
X367171Y212434D01*
X367272Y212386D01*
X367821Y211697D01*
X367868Y211649D01*
X368028Y211474D01*
X368678Y210871D01*
X368689Y210820D01*
X368739Y210705D01*
X368780Y210587D01*
X368819Y210521D01*
X368850Y210451D01*
X368941Y210315D01*
X368985Y210240D01*
X369009Y210213D01*
X369035Y210175D01*
X369574Y209499D01*
X369627Y209444D01*
X369673Y209383D01*
X369767Y209301D01*
X369855Y209211D01*
X369918Y209168D01*
X369975Y209117D01*
X370084Y209054D01*
X370176Y208991D01*
X370616Y208228D01*
X370656Y208174D01*
X370787Y207977D01*
X371341Y207284D01*
X371344Y207231D01*
X371376Y207110D01*
X371399Y206987D01*
X371428Y206916D01*
X371448Y206842D01*
X371518Y206695D01*
X371550Y206614D01*
X371570Y206584D01*
X371590Y206543D01*
X372022Y205794D01*
X372067Y205731D01*
X372103Y205664D01*
X372184Y205569D01*
X372257Y205467D01*
X372313Y205415D01*
X372362Y205356D01*
X372460Y205278D01*
X372541Y205202D01*
X372863Y204382D01*
X372894Y204322D01*
X372995Y204108D01*
X373439Y203340D01*
X373434Y203288D01*
X373448Y203163D01*
X373453Y203038D01*
X373470Y202963D01*
X373479Y202887D01*
X373526Y202731D01*
X373546Y202646D01*
X373561Y202614D01*
X373574Y202570D01*
X373890Y201765D01*
X373925Y201697D01*
X373951Y201625D01*
X374017Y201518D01*
X374074Y201406D01*
X374122Y201346D01*
X374161Y201281D01*
X374246Y201190D01*
X374316Y201102D01*
X374512Y200243D01*
X374533Y200179D01*
X374601Y199953D01*
X374926Y199127D01*
X374913Y199076D01*
X374909Y198951D01*
X374894Y198826D01*
X374901Y198750D01*
X374898Y198674D01*
X374921Y198512D01*
X374929Y198425D01*
X374939Y198391D01*
X374945Y198345D01*
X375138Y197502D01*
X375162Y197430D01*
X375177Y197355D01*
X375226Y197239D01*
X375266Y197121D01*
X375304Y197054D01*
X375333Y196984D01*
X375404Y196880D01*
X375460Y196784D01*
X375525Y195905D01*
X375537Y195839D01*
X375571Y195605D01*
X375768Y194740D01*
X375749Y194693D01*
X375725Y194569D01*
X375692Y194447D01*
X375688Y194372D01*
X375673Y194297D01*
X375672Y194133D01*
X375670Y194107D01*
X375667Y194063D01*
X375667Y194059D01*
X375666Y194045D01*
X375671Y194010D01*
X375671Y193965D01*
X375672Y193948D01*
X375697Y193806D01*
X375714Y193663D01*
X375732Y193608D01*
X375742Y193551D01*
X375794Y193417D01*
X375839Y193280D01*
X375867Y193230D01*
X375888Y193176D01*
X375966Y193055D01*
X376036Y192930D01*
X376074Y192886D01*
X376105Y192838D01*
X376206Y192734D01*
X376300Y192625D01*
X376345Y192590D01*
X376385Y192548D01*
X376504Y192466D01*
X376618Y192378D01*
X376669Y192353D01*
X376717Y192320D01*
X376849Y192263D01*
X376978Y192199D01*
X377034Y192184D01*
X377087Y192161D01*
X377228Y192132D01*
X377367Y192094D01*
X377433Y192089D01*
X377481Y192079D01*
X377564Y192078D01*
X377698Y192067D01*
X413234Y192067D01*
X413177Y191352D01*
X413181Y191324D01*
X413176Y191296D01*
X413193Y191226D01*
X413201Y191155D01*
X413216Y191130D01*
X413222Y191103D01*
X413265Y191045D01*
X413301Y190982D01*
X413323Y190965D01*
X413340Y190942D01*
X413402Y190906D01*
X413459Y190862D01*
X413487Y190855D01*
X413511Y190841D01*
X413611Y190824D01*
X413652Y190814D01*
X413662Y190815D01*
X413675Y190813D01*
X432675Y190813D01*
X432751Y190829D01*
X432829Y190837D01*
X432848Y190848D01*
X432870Y190853D01*
X432934Y190897D01*
X433002Y190935D01*
X433018Y190954D01*
X433034Y190965D01*
X433058Y191003D01*
X433108Y191063D01*
X442608Y207563D01*
X442617Y207591D01*
X442633Y207614D01*
X442648Y207684D01*
X442671Y207752D01*
X442668Y207781D01*
X442674Y207809D01*
X442661Y207879D01*
X442655Y207950D01*
X442642Y207976D01*
X442636Y208004D01*
X442596Y208063D01*
X442563Y208127D01*
X442541Y208145D01*
X442525Y208169D01*
X442442Y208226D01*
X442410Y208253D01*
X442399Y208256D01*
X442389Y208264D01*
X441761Y208560D01*
X450818Y224247D01*
X450878Y224380D01*
X450945Y224510D01*
X450961Y224563D01*
X450983Y224614D01*
X451016Y224756D01*
X451057Y224897D01*
X451061Y224952D01*
X451074Y225006D01*
X451078Y225152D01*
X451089Y225298D01*
X451083Y225353D01*
X451085Y225409D01*
X451060Y225553D01*
X451043Y225698D01*
X451025Y225751D01*
X451016Y225805D01*
X450963Y225941D01*
X450918Y226081D01*
X450890Y226129D01*
X450870Y226181D01*
X450792Y226304D01*
X450720Y226431D01*
X450684Y226473D01*
X450654Y226520D01*
X450552Y226626D01*
X450457Y226736D01*
X450413Y226770D01*
X450374Y226810D01*
X450254Y226893D01*
X450139Y226983D01*
X450089Y227008D01*
X450043Y227039D01*
X449909Y227097D01*
X449778Y227162D01*
X449724Y227177D01*
X449673Y227198D01*
X449531Y227229D01*
X449389Y227267D01*
X449326Y227272D01*
X449280Y227282D01*
X449196Y227283D01*
X449059Y227294D01*
X448055Y227294D01*
X445825Y228218D01*
X444118Y229925D01*
X443538Y231324D01*
X443524Y231351D01*
X443514Y231381D01*
X443429Y231528D01*
X443348Y231678D01*
X443328Y231702D01*
X443313Y231730D01*
X443098Y231983D01*
X432584Y242496D01*
X430798Y244283D01*
X429986Y246243D01*
X429986Y266089D01*
X429975Y266197D01*
X429974Y266306D01*
X429955Y266397D01*
X429946Y266490D01*
X429914Y266594D01*
X429892Y266700D01*
X429855Y266786D01*
X429828Y266875D01*
X429776Y266970D01*
X429733Y267070D01*
X429680Y267147D01*
X429636Y267229D01*
X429567Y267312D01*
X429505Y267402D01*
X429438Y267467D01*
X429378Y267538D01*
X429294Y267606D01*
X429216Y267682D01*
X429137Y267732D01*
X429064Y267791D01*
X428968Y267840D01*
X428877Y267899D01*
X428790Y267933D01*
X428707Y267976D01*
X428603Y268006D01*
X428502Y268046D01*
X428410Y268062D01*
X428320Y268087D01*
X428212Y268096D01*
X428105Y268115D01*
X428012Y268113D01*
X427919Y268120D01*
X427811Y268108D01*
X427703Y268105D01*
X427612Y268084D01*
X427519Y268073D01*
X427416Y268040D01*
X427310Y268016D01*
X427225Y267978D01*
X427136Y267949D01*
X427042Y267895D01*
X426943Y267851D01*
X426867Y267797D01*
X426786Y267751D01*
X426704Y267680D01*
X426615Y267617D01*
X426538Y267536D01*
X426481Y267488D01*
X426444Y267439D01*
X426385Y267378D01*
X405186Y241557D01*
X405114Y241450D01*
X405035Y241348D01*
X405003Y241283D01*
X404962Y241222D01*
X404913Y241103D01*
X404856Y240988D01*
X404837Y240917D01*
X404809Y240850D01*
X404785Y240723D01*
X404751Y240599D01*
X404744Y240514D01*
X404733Y240454D01*
X404733Y240379D01*
X404724Y240268D01*
X404724Y226915D01*
X403367Y225558D01*
X403350Y225538D01*
X403330Y225520D01*
X403223Y225382D01*
X403112Y225247D01*
X403100Y225223D01*
X403083Y225202D01*
X403005Y225045D01*
X402923Y224891D01*
X402916Y224866D01*
X402904Y224841D01*
X402858Y224672D01*
X402809Y224505D01*
X402806Y224479D01*
X402799Y224453D01*
X402772Y224122D01*
X402772Y221189D01*
X401960Y219228D01*
X396292Y213560D01*
X396272Y213536D01*
X396248Y213515D01*
X396144Y213380D01*
X396037Y213248D01*
X396022Y213221D01*
X396003Y213196D01*
X395851Y212901D01*
X395670Y212462D01*
X393963Y210755D01*
X391732Y209831D01*
X389318Y209831D01*
X387087Y210755D01*
X385380Y212462D01*
X384456Y214693D01*
X384456Y217107D01*
X385380Y219338D01*
X387087Y221045D01*
X389446Y222022D01*
X389474Y222037D01*
X389503Y222047D01*
X389651Y222132D01*
X389801Y222212D01*
X389825Y222232D01*
X389852Y222248D01*
X390105Y222462D01*
X390918Y223275D01*
X390930Y223289D01*
X390943Y223301D01*
X391057Y223444D01*
X391173Y223587D01*
X391182Y223603D01*
X391193Y223617D01*
X391275Y223779D01*
X391362Y223942D01*
X391367Y223960D01*
X391375Y223975D01*
X391424Y224152D01*
X391477Y224328D01*
X391478Y224346D01*
X391483Y224363D01*
X391497Y224546D01*
X391513Y224729D01*
X391511Y224747D01*
X391513Y224765D01*
X391490Y224947D01*
X391470Y225130D01*
X391464Y225147D01*
X391462Y225164D01*
X391404Y225339D01*
X391348Y225513D01*
X391340Y225529D01*
X391334Y225546D01*
X391242Y225705D01*
X391153Y225866D01*
X391142Y225879D01*
X391133Y225895D01*
X390918Y226148D01*
X390151Y226915D01*
X390151Y237046D01*
X390149Y237063D01*
X390150Y237081D01*
X390129Y237263D01*
X390111Y237446D01*
X390106Y237463D01*
X390104Y237481D01*
X390047Y237655D01*
X389993Y237831D01*
X389984Y237847D01*
X389979Y237864D01*
X389888Y238024D01*
X389801Y238185D01*
X389790Y238199D01*
X389781Y238214D01*
X389661Y238354D01*
X389543Y238494D01*
X389529Y238506D01*
X389518Y238519D01*
X389373Y238632D01*
X389229Y238747D01*
X389214Y238755D01*
X389200Y238766D01*
X389035Y238848D01*
X388872Y238932D01*
X388855Y238937D01*
X388839Y238945D01*
X388661Y238993D01*
X388485Y239044D01*
X388467Y239045D01*
X388450Y239050D01*
X388120Y239077D01*
X356057Y239077D01*
X356030Y239074D01*
X356003Y239076D01*
X355829Y239054D01*
X355656Y239037D01*
X355630Y239029D01*
X355604Y239026D01*
X355438Y238970D01*
X355271Y238919D01*
X355247Y238906D01*
X355222Y238897D01*
X355070Y238810D01*
X354917Y238727D01*
X354897Y238710D01*
X354873Y238697D01*
X354620Y238482D01*
X353628Y237489D01*
X343751Y237489D01*
X343724Y237487D01*
X343697Y237489D01*
X343524Y237467D01*
X343350Y237449D01*
X343324Y237441D01*
X343298Y237438D01*
X343132Y237383D01*
X342965Y237331D01*
X342941Y237318D01*
X342916Y237310D01*
X342764Y237223D01*
X342611Y237139D01*
X342591Y237122D01*
X342567Y237109D01*
X342314Y236894D01*
X341575Y236155D01*
X339345Y235231D01*
X336930Y235231D01*
X334327Y236310D01*
X334297Y236319D01*
X334269Y236333D01*
X334105Y236377D01*
X333942Y236426D01*
X333910Y236429D01*
X333880Y236437D01*
X333550Y236464D01*
X324143Y236464D01*
X324125Y236462D01*
X324107Y236464D01*
X323925Y236443D01*
X323742Y236424D01*
X323725Y236419D01*
X323708Y236417D01*
X323533Y236360D01*
X323357Y236306D01*
X323342Y236298D01*
X323325Y236292D01*
X323165Y236202D01*
X323003Y236114D01*
X322990Y236103D01*
X322974Y236094D01*
X322835Y235974D01*
X322694Y235857D01*
X322683Y235843D01*
X322669Y235831D01*
X322557Y235686D01*
X322442Y235543D01*
X322434Y235527D01*
X322423Y235513D01*
X322341Y235348D01*
X322256Y235186D01*
X322251Y235169D01*
X322243Y235153D01*
X322196Y234974D01*
X322145Y234799D01*
X322143Y234781D01*
X322139Y234764D01*
X322112Y234433D01*
X322112Y234328D01*
X320772Y232988D01*
X307878Y232988D01*
X306538Y234328D01*
X306538Y246222D01*
X307323Y247007D01*
X307335Y247021D01*
X307348Y247033D01*
X307463Y247177D01*
X307579Y247319D01*
X307587Y247335D01*
X307598Y247349D01*
X307681Y247513D01*
X307767Y247675D01*
X307772Y247692D01*
X307780Y247708D01*
X307830Y247885D01*
X307882Y248061D01*
X307884Y248078D01*
X307888Y248096D01*
X307902Y248279D01*
X307918Y248461D01*
X307916Y248479D01*
X307918Y248497D01*
X307895Y248679D01*
X307875Y248862D01*
X307870Y248879D01*
X307867Y248896D01*
X307809Y249070D01*
X307753Y249246D01*
X307745Y249261D01*
X307739Y249278D01*
X307648Y249437D01*
X307559Y249598D01*
X307547Y249612D01*
X307538Y249627D01*
X307324Y249880D01*
X306538Y250665D01*
X306538Y262560D01*
X307878Y263899D01*
X320772Y263899D01*
X322112Y262560D01*
X322112Y255619D01*
X322114Y255592D01*
X322112Y255566D01*
X322134Y255392D01*
X322152Y255218D01*
X322159Y255193D01*
X322163Y255166D01*
X322218Y255000D01*
X322270Y254833D01*
X322283Y254810D01*
X322291Y254784D01*
X322378Y254633D01*
X322462Y254479D01*
X322479Y254459D01*
X322492Y254436D01*
X322707Y254183D01*
X323246Y253643D01*
X323267Y253626D01*
X323284Y253606D01*
X323422Y253499D01*
X323558Y253388D01*
X323581Y253376D01*
X323602Y253359D01*
X323759Y253281D01*
X323913Y253199D01*
X323939Y253192D01*
X323963Y253180D01*
X324132Y253134D01*
X324299Y253085D01*
X324326Y253082D01*
X324352Y253075D01*
X324682Y253048D01*
X343637Y253048D01*
X343663Y253051D01*
X343690Y253049D01*
X343864Y253071D01*
X344038Y253088D01*
X344063Y253096D01*
X344090Y253099D01*
X344255Y253155D01*
X344422Y253206D01*
X344446Y253219D01*
X344471Y253228D01*
X344623Y253315D01*
X344776Y253398D01*
X344797Y253415D01*
X344820Y253428D01*
X345073Y253643D01*
X345812Y254382D01*
X348043Y255306D01*
X350457Y255306D01*
X352688Y254382D01*
X353427Y253643D01*
X353447Y253626D01*
X353465Y253606D01*
X353603Y253499D01*
X353738Y253388D01*
X353762Y253376D01*
X353783Y253359D01*
X353939Y253281D01*
X354094Y253199D01*
X354120Y253192D01*
X354144Y253180D01*
X354313Y253134D01*
X354480Y253085D01*
X354507Y253082D01*
X354532Y253075D01*
X354863Y253048D01*
X383343Y253048D01*
X383369Y253051D01*
X383396Y253049D01*
X383570Y253071D01*
X383743Y253088D01*
X383769Y253096D01*
X383795Y253099D01*
X383961Y253155D01*
X384128Y253206D01*
X384152Y253219D01*
X384177Y253228D01*
X384329Y253315D01*
X384482Y253398D01*
X384503Y253415D01*
X384526Y253428D01*
X384779Y253643D01*
X400407Y269271D01*
X400424Y269292D01*
X400444Y269309D01*
X400551Y269447D01*
X400662Y269583D01*
X400674Y269606D01*
X400691Y269627D01*
X400769Y269784D01*
X400851Y269938D01*
X400858Y269964D01*
X400870Y269988D01*
X400916Y270157D01*
X400965Y270324D01*
X400968Y270351D01*
X400975Y270377D01*
X401002Y270707D01*
X401002Y287270D01*
X401000Y287287D01*
X401001Y287305D01*
X400980Y287487D01*
X400962Y287670D01*
X400957Y287687D01*
X400955Y287705D01*
X400898Y287879D01*
X400844Y288055D01*
X400835Y288071D01*
X400830Y288088D01*
X400739Y288248D01*
X400652Y288409D01*
X400641Y288423D01*
X400632Y288438D01*
X400512Y288578D01*
X400394Y288718D01*
X400380Y288730D01*
X400369Y288743D01*
X400224Y288856D01*
X400080Y288971D01*
X400065Y288979D01*
X400051Y288990D01*
X399886Y289072D01*
X399723Y289156D01*
X399706Y289161D01*
X399690Y289169D01*
X399512Y289217D01*
X399336Y289268D01*
X399318Y289269D01*
X399301Y289274D01*
X398971Y289301D01*
X393412Y289301D01*
X393385Y289298D01*
X393358Y289300D01*
X393184Y289278D01*
X393011Y289261D01*
X392985Y289253D01*
X392959Y289250D01*
X392793Y289194D01*
X392626Y289143D01*
X392602Y289130D01*
X392577Y289121D01*
X392426Y289034D01*
X392272Y288951D01*
X392251Y288934D01*
X392228Y288920D01*
X391975Y288706D01*
X391596Y288327D01*
X390096Y286826D01*
X388508Y286169D01*
X386468Y286169D01*
X386450Y286167D01*
X386432Y286168D01*
X386250Y286147D01*
X386067Y286129D01*
X386050Y286124D01*
X386033Y286122D01*
X385858Y286065D01*
X385682Y286011D01*
X385667Y286002D01*
X385650Y285997D01*
X385490Y285906D01*
X385328Y285819D01*
X385315Y285808D01*
X385299Y285799D01*
X385160Y285679D01*
X385019Y285561D01*
X385008Y285547D01*
X384994Y285536D01*
X384882Y285391D01*
X384767Y285247D01*
X384759Y285232D01*
X384748Y285218D01*
X384666Y285053D01*
X384581Y284890D01*
X384576Y284873D01*
X384568Y284857D01*
X384521Y284679D01*
X384470Y284503D01*
X384468Y284485D01*
X384464Y284468D01*
X384437Y284138D01*
X384437Y283040D01*
X383097Y281701D01*
X366203Y281701D01*
X364705Y283199D01*
X364697Y283214D01*
X364691Y283231D01*
X364601Y283391D01*
X364513Y283552D01*
X364502Y283566D01*
X364493Y283581D01*
X364373Y283721D01*
X364256Y283861D01*
X364242Y283873D01*
X364230Y283886D01*
X364085Y283999D01*
X363942Y284114D01*
X363926Y284122D01*
X363912Y284133D01*
X363747Y284215D01*
X363585Y284299D01*
X363568Y284304D01*
X363552Y284312D01*
X363373Y284360D01*
X363198Y284411D01*
X363180Y284412D01*
X363163Y284417D01*
X362832Y284444D01*
X360743Y284444D01*
X359344Y285023D01*
X359314Y285032D01*
X359286Y285046D01*
X359122Y285090D01*
X358959Y285140D01*
X358928Y285143D01*
X358898Y285151D01*
X358567Y285178D01*
X354718Y285178D01*
X354700Y285176D01*
X354682Y285177D01*
X354500Y285156D01*
X354317Y285138D01*
X354300Y285133D01*
X354283Y285131D01*
X354108Y285074D01*
X353932Y285020D01*
X353917Y285011D01*
X353900Y285006D01*
X353740Y284915D01*
X353578Y284828D01*
X353565Y284817D01*
X353549Y284808D01*
X353410Y284688D01*
X353269Y284570D01*
X353258Y284556D01*
X353244Y284545D01*
X353132Y284400D01*
X353017Y284256D01*
X353009Y284241D01*
X352998Y284227D01*
X352916Y284062D01*
X352831Y283899D01*
X352826Y283882D01*
X352818Y283866D01*
X352771Y283688D01*
X352720Y283512D01*
X352718Y283494D01*
X352714Y283477D01*
X352687Y283147D01*
X352687Y283040D01*
X351347Y281701D01*
X334453Y281701D01*
X333113Y283040D01*
X333113Y297935D01*
X334453Y299274D01*
X350125Y299274D01*
X350134Y299275D01*
X350143Y299274D01*
X350334Y299295D01*
X350526Y299314D01*
X350535Y299317D01*
X350544Y299318D01*
X350727Y299376D01*
X350911Y299432D01*
X350919Y299437D01*
X350927Y299439D01*
X351096Y299532D01*
X351265Y299624D01*
X351272Y299630D01*
X351280Y299634D01*
X351426Y299758D01*
X351574Y299882D01*
X351580Y299889D01*
X351587Y299895D01*
X351706Y300046D01*
X351827Y300196D01*
X351831Y300203D01*
X351836Y300210D01*
X351924Y300384D01*
X352012Y300553D01*
X352015Y300561D01*
X352019Y300569D01*
X352071Y300756D01*
X352124Y300940D01*
X352124Y300949D01*
X352127Y300957D01*
X352141Y301147D01*
X352156Y301341D01*
X352155Y301350D01*
X352156Y301359D01*
X352132Y301550D01*
X352110Y301741D01*
X352107Y301749D01*
X352106Y301758D01*
X352044Y301940D01*
X351985Y302124D01*
X351980Y302131D01*
X351977Y302140D01*
X351881Y302307D01*
X351787Y302474D01*
X351781Y302481D01*
X351776Y302489D01*
X351601Y302696D01*
X351601Y311551D01*
X351598Y311577D01*
X351600Y311604D01*
X351578Y311778D01*
X351561Y311952D01*
X351553Y311977D01*
X351550Y312004D01*
X351494Y312169D01*
X351443Y312336D01*
X351430Y312360D01*
X351421Y312385D01*
X351334Y312537D01*
X351251Y312690D01*
X351234Y312711D01*
X351221Y312734D01*
X351006Y312987D01*
X349535Y314458D01*
X349515Y314475D01*
X349497Y314495D01*
X349359Y314602D01*
X349224Y314713D01*
X349200Y314725D01*
X349179Y314742D01*
X349022Y314820D01*
X348868Y314902D01*
X348843Y314909D01*
X348818Y314921D01*
X348649Y314967D01*
X348482Y315016D01*
X348456Y315019D01*
X348430Y315026D01*
X348099Y315053D01*
X332143Y315053D01*
X332125Y315051D01*
X332107Y315052D01*
X331925Y315031D01*
X331742Y315013D01*
X331725Y315008D01*
X331708Y315006D01*
X331533Y314949D01*
X331357Y314895D01*
X331342Y314886D01*
X331325Y314881D01*
X331165Y314790D01*
X331003Y314703D01*
X330990Y314692D01*
X330974Y314683D01*
X330835Y314563D01*
X330694Y314445D01*
X330683Y314431D01*
X330669Y314420D01*
X330557Y314275D01*
X330442Y314131D01*
X330434Y314116D01*
X330423Y314102D01*
X330341Y313937D01*
X330256Y313774D01*
X330251Y313757D01*
X330243Y313741D01*
X330196Y313563D01*
X330145Y313387D01*
X330143Y313369D01*
X330139Y313352D01*
X330112Y313022D01*
X330112Y311440D01*
X328772Y310101D01*
X299878Y310101D01*
X298538Y311440D01*
X298538Y329335D01*
X299878Y330674D01*
X328772Y330674D01*
X330112Y329335D01*
X330112Y327753D01*
X330114Y327736D01*
X330112Y327718D01*
X330133Y327536D01*
X330152Y327353D01*
X330157Y327336D01*
X330159Y327318D01*
X330216Y327144D01*
X330270Y326968D01*
X330278Y326952D01*
X330284Y326935D01*
X330374Y326775D01*
X330462Y326614D01*
X330473Y326600D01*
X330482Y326585D01*
X330602Y326445D01*
X330719Y326305D01*
X330733Y326293D01*
X330745Y326280D01*
X330890Y326167D01*
X331033Y326052D01*
X331049Y326044D01*
X331063Y326033D01*
X331228Y325951D01*
X331390Y325867D01*
X331407Y325862D01*
X331423Y325854D01*
X331602Y325806D01*
X331777Y325755D01*
X331795Y325754D01*
X331812Y325749D01*
X332143Y325722D01*
X352211Y325722D01*
X354234Y324884D01*
X354256Y324878D01*
X354275Y324868D01*
X354448Y324820D01*
X354620Y324768D01*
X354642Y324766D01*
X354663Y324760D01*
X354843Y324747D01*
X355020Y324730D01*
X355043Y324732D01*
X355065Y324730D01*
X355243Y324753D01*
X355421Y324771D01*
X355442Y324778D01*
X355464Y324781D01*
X355634Y324838D01*
X355805Y324891D01*
X355825Y324902D01*
X355846Y324909D01*
X356001Y324998D01*
X356158Y325084D01*
X356176Y325099D01*
X356195Y325110D01*
X356448Y325325D01*
X359404Y328281D01*
X361959Y330836D01*
X386953Y330836D01*
X396720Y321069D01*
X396741Y321052D01*
X396758Y321032D01*
X396896Y320925D01*
X397032Y320814D01*
X397055Y320802D01*
X397076Y320785D01*
X397233Y320707D01*
X397387Y320625D01*
X397413Y320618D01*
X397437Y320606D01*
X397606Y320560D01*
X397773Y320511D01*
X397800Y320508D01*
X397826Y320501D01*
X398156Y320474D01*
X398971Y320474D01*
X398988Y320476D01*
X399006Y320475D01*
X399188Y320496D01*
X399371Y320514D01*
X399388Y320519D01*
X399406Y320521D01*
X399580Y320578D01*
X399756Y320632D01*
X399772Y320641D01*
X399789Y320646D01*
X399949Y320737D01*
X400110Y320824D01*
X400124Y320835D01*
X400139Y320844D01*
X400279Y320964D01*
X400419Y321082D01*
X400431Y321096D01*
X400444Y321107D01*
X400557Y321252D01*
X400672Y321396D01*
X400680Y321411D01*
X400691Y321425D01*
X400773Y321590D01*
X400857Y321753D01*
X400862Y321770D01*
X400870Y321786D01*
X400918Y321964D01*
X400969Y322140D01*
X400970Y322158D01*
X400975Y322175D01*
X401002Y322505D01*
X401002Y329797D01*
X401000Y329815D01*
X401001Y329833D01*
X400980Y330015D01*
X400962Y330198D01*
X400957Y330215D01*
X400955Y330232D01*
X400898Y330407D01*
X400844Y330583D01*
X400835Y330598D01*
X400830Y330615D01*
X400739Y330775D01*
X400652Y330937D01*
X400641Y330950D01*
X400632Y330966D01*
X400512Y331105D01*
X400394Y331246D01*
X400380Y331257D01*
X400369Y331271D01*
X400224Y331383D01*
X400080Y331498D01*
X400065Y331506D01*
X400051Y331517D01*
X399886Y331599D01*
X399723Y331684D01*
X399706Y331689D01*
X399690Y331697D01*
X399512Y331744D01*
X399336Y331795D01*
X399318Y331797D01*
X399301Y331801D01*
X398971Y331828D01*
X397480Y331828D01*
X395919Y332475D01*
X394725Y333669D01*
X394078Y335230D01*
X394078Y336920D01*
X394725Y338481D01*
X395919Y339675D01*
X397480Y340322D01*
X405131Y340322D01*
X405149Y340324D01*
X405167Y340322D01*
X405349Y340343D01*
X405532Y340362D01*
X405549Y340367D01*
X405566Y340369D01*
X405741Y340426D01*
X405917Y340480D01*
X405932Y340488D01*
X405949Y340494D01*
X406109Y340584D01*
X406271Y340672D01*
X406284Y340683D01*
X406300Y340692D01*
X406439Y340812D01*
X406580Y340929D01*
X406591Y340943D01*
X406605Y340955D01*
X406717Y341100D01*
X406832Y341243D01*
X406840Y341259D01*
X406851Y341273D01*
X406933Y341438D01*
X407018Y341600D01*
X407023Y341617D01*
X407031Y341633D01*
X407078Y341812D01*
X407129Y341987D01*
X407131Y342005D01*
X407135Y342022D01*
X407162Y342353D01*
X407162Y349797D01*
X407160Y349815D01*
X407162Y349833D01*
X407141Y350015D01*
X407122Y350198D01*
X407117Y350215D01*
X407115Y350232D01*
X407058Y350407D01*
X407004Y350583D01*
X406996Y350598D01*
X406990Y350615D01*
X406900Y350775D01*
X406812Y350937D01*
X406801Y350950D01*
X406792Y350966D01*
X406672Y351105D01*
X406555Y351246D01*
X406541Y351257D01*
X406529Y351271D01*
X406384Y351383D01*
X406241Y351498D01*
X406225Y351506D01*
X406211Y351517D01*
X406046Y351599D01*
X405884Y351684D01*
X405867Y351689D01*
X405851Y351697D01*
X405672Y351744D01*
X405497Y351795D01*
X405479Y351797D01*
X405462Y351801D01*
X405131Y351828D01*
X397480Y351828D01*
X395919Y352475D01*
X394725Y353669D01*
X394078Y355230D01*
X394078Y356920D01*
X394725Y358481D01*
X395919Y359675D01*
X397480Y360322D01*
X405350Y360322D01*
X406841Y359704D01*
X406862Y359698D01*
X406882Y359688D01*
X407055Y359639D01*
X407226Y359588D01*
X407248Y359586D01*
X407270Y359580D01*
X407449Y359566D01*
X407627Y359550D01*
X407649Y359552D01*
X407671Y359550D01*
X407850Y359573D01*
X408028Y359591D01*
X408029Y359592D01*
X423829Y359592D01*
X423849Y359586D01*
X423871Y359584D01*
X423892Y359578D01*
X424071Y359566D01*
X424250Y359550D01*
X424272Y359552D01*
X424294Y359550D01*
X424472Y359574D01*
X424650Y359593D01*
X424671Y359600D01*
X424693Y359603D01*
X425009Y359704D01*
X426500Y360322D01*
X434370Y360322D01*
X435931Y359675D01*
X437125Y358481D01*
X437772Y356920D01*
X437772Y355230D01*
X437090Y353584D01*
X437062Y353550D01*
X437058Y353542D01*
X437052Y353535D01*
X436963Y353364D01*
X436874Y353194D01*
X436871Y353186D01*
X436867Y353178D01*
X436814Y352993D01*
X436759Y352809D01*
X436758Y352799D01*
X436755Y352791D01*
X436740Y352600D01*
X436722Y352408D01*
X436723Y352398D01*
X436722Y352389D01*
X436745Y352200D01*
X436766Y352007D01*
X436768Y351999D01*
X436769Y351990D01*
X436829Y351806D01*
X436887Y351623D01*
X436891Y351615D01*
X436894Y351607D01*
X436989Y351439D01*
X437082Y351271D01*
X437088Y351264D01*
X437092Y351256D01*
X437219Y351110D01*
X437342Y350964D01*
X437349Y350958D01*
X437355Y350951D01*
X437507Y350834D01*
X437658Y350714D01*
X437666Y350710D01*
X437673Y350705D01*
X437846Y350619D01*
X438017Y350532D01*
X438026Y350529D01*
X438034Y350525D01*
X438220Y350475D01*
X438405Y350424D01*
X438414Y350423D01*
X438423Y350421D01*
X438753Y350394D01*
X440597Y350394D01*
X442184Y349736D01*
X451336Y340584D01*
X451994Y338997D01*
X451994Y326480D01*
X451996Y326454D01*
X451994Y326427D01*
X452016Y326253D01*
X452034Y326080D01*
X452041Y326054D01*
X452045Y326027D01*
X452100Y325862D01*
X452152Y325695D01*
X452165Y325671D01*
X452173Y325646D01*
X452260Y325494D01*
X452344Y325341D01*
X452361Y325320D01*
X452374Y325297D01*
X452589Y325044D01*
X463426Y314207D01*
X463447Y314190D01*
X463464Y314169D01*
X463602Y314062D01*
X463737Y313952D01*
X463761Y313939D01*
X463782Y313923D01*
X463939Y313845D01*
X464093Y313763D01*
X464119Y313755D01*
X464143Y313743D01*
X464312Y313698D01*
X464479Y313648D01*
X464506Y313646D01*
X464532Y313639D01*
X464862Y313612D01*
X479935Y313612D01*
X480465Y313082D01*
X480478Y313070D01*
X480490Y313057D01*
X480634Y312943D01*
X480776Y312827D01*
X480792Y312818D01*
X480806Y312807D01*
X480970Y312724D01*
X481132Y312638D01*
X481149Y312633D01*
X481165Y312625D01*
X481342Y312576D01*
X481518Y312523D01*
X481536Y312522D01*
X481553Y312517D01*
X481736Y312503D01*
X481919Y312487D01*
X481937Y312489D01*
X481954Y312487D01*
X482136Y312510D01*
X482319Y312530D01*
X482336Y312536D01*
X482354Y312538D01*
X482527Y312596D01*
X482703Y312652D01*
X482719Y312660D01*
X482735Y312666D01*
X482894Y312758D01*
X483055Y312847D01*
X483069Y312858D01*
X483084Y312867D01*
X483337Y313082D01*
X485961Y315705D01*
X485980Y315729D01*
X486004Y315750D01*
X486108Y315885D01*
X486216Y316016D01*
X486230Y316044D01*
X486249Y316069D01*
X486401Y316364D01*
X486980Y317763D01*
X488687Y319470D01*
X490918Y320394D01*
X493332Y320394D01*
X495563Y319470D01*
X497270Y317763D01*
X498194Y315532D01*
X498194Y313888D01*
X498201Y313815D01*
X498199Y313742D01*
X498221Y313615D01*
X498234Y313487D01*
X498255Y313417D01*
X498268Y313345D01*
X498314Y313225D01*
X498352Y313102D01*
X498387Y313038D01*
X498413Y312970D01*
X498482Y312861D01*
X498544Y312748D01*
X498590Y312692D01*
X498630Y312630D01*
X498719Y312538D01*
X498801Y312439D01*
X498858Y312393D01*
X498909Y312340D01*
X499015Y312267D01*
X499115Y312187D01*
X499180Y312153D01*
X499240Y312111D01*
X499358Y312060D01*
X499472Y312001D01*
X499543Y311981D01*
X499610Y311952D01*
X499736Y311925D01*
X499859Y311890D01*
X499932Y311884D01*
X500004Y311869D01*
X500132Y311868D01*
X500261Y311857D01*
X500333Y311866D01*
X500407Y311865D01*
X500533Y311889D01*
X500660Y311904D01*
X500730Y311927D01*
X500802Y311940D01*
X500921Y311989D01*
X501043Y312029D01*
X501107Y312065D01*
X501175Y312092D01*
X501282Y312163D01*
X501394Y312227D01*
X501449Y312275D01*
X501510Y312315D01*
X501601Y312406D01*
X501698Y312490D01*
X501743Y312548D01*
X501795Y312600D01*
X501892Y312739D01*
X501945Y312808D01*
X501957Y312832D01*
X501961Y312839D01*
X501984Y312872D01*
X508883Y324822D01*
X509491Y324402D01*
X509518Y324390D01*
X509540Y324372D01*
X509609Y324352D01*
X509674Y324324D01*
X509703Y324323D01*
X509731Y324315D01*
X509802Y324323D01*
X509873Y324323D01*
X509900Y324334D01*
X509929Y324337D01*
X509991Y324373D01*
X510056Y324400D01*
X510077Y324421D01*
X510102Y324435D01*
X510165Y324512D01*
X510195Y324543D01*
X510199Y324553D01*
X510208Y324563D01*
X519708Y341063D01*
X519718Y341095D01*
X519727Y341108D01*
X519731Y341133D01*
X519732Y341136D01*
X519763Y341207D01*
X519763Y341230D01*
X519771Y341252D01*
X519765Y341329D01*
X519766Y341406D01*
X519756Y341430D01*
X519755Y341450D01*
X519734Y341490D01*
X519708Y341562D01*
X510208Y358062D01*
X510189Y358083D01*
X510176Y358110D01*
X510123Y358157D01*
X510076Y358211D01*
X510050Y358223D01*
X510029Y358243D01*
X509961Y358266D01*
X509897Y358297D01*
X509868Y358298D01*
X509841Y358307D01*
X509769Y358303D01*
X509698Y358306D01*
X509671Y358296D01*
X509642Y358294D01*
X509552Y358251D01*
X509512Y358237D01*
X509504Y358229D01*
X509491Y358223D01*
X508883Y357803D01*
X495634Y380751D01*
X495591Y380811D01*
X495556Y380875D01*
X495474Y380974D01*
X495399Y381078D01*
X495346Y381128D01*
X495299Y381185D01*
X495199Y381265D01*
X495104Y381353D01*
X495042Y381391D01*
X494985Y381437D01*
X494871Y381496D01*
X494761Y381563D01*
X494693Y381589D01*
X494628Y381623D01*
X494504Y381658D01*
X494384Y381702D01*
X494311Y381714D01*
X494241Y381734D01*
X494112Y381744D01*
X493986Y381764D01*
X493913Y381761D01*
X493839Y381767D01*
X493712Y381752D01*
X493583Y381746D01*
X493512Y381728D01*
X493440Y381720D01*
X493318Y381680D01*
X493193Y381649D01*
X493126Y381618D01*
X493057Y381595D01*
X492945Y381532D01*
X492829Y381477D01*
X492770Y381433D01*
X492706Y381397D01*
X492609Y381313D01*
X492506Y381236D01*
X492457Y381182D01*
X492401Y381134D01*
X492323Y381033D01*
X492237Y380937D01*
X492199Y380874D01*
X492155Y380816D01*
X492098Y380701D01*
X492032Y380590D01*
X492008Y380521D01*
X491975Y380455D01*
X491942Y380331D01*
X491900Y380210D01*
X491890Y380137D01*
X491871Y380067D01*
X491857Y379897D01*
X491845Y379811D01*
X491846Y379798D01*
X490920Y377562D01*
X488991Y375633D01*
X488905Y375560D01*
X479369Y366025D01*
X479352Y366004D01*
X479332Y365987D01*
X479225Y365849D01*
X479114Y365713D01*
X479102Y365690D01*
X479085Y365668D01*
X479007Y365511D01*
X478925Y365357D01*
X478918Y365332D01*
X478906Y365308D01*
X478860Y365138D01*
X478811Y364972D01*
X478808Y364945D01*
X478801Y364919D01*
X478774Y364588D01*
X478774Y359240D01*
X477435Y357901D01*
X465540Y357901D01*
X464201Y359240D01*
X464201Y372135D01*
X464264Y372198D01*
X464269Y372205D01*
X464276Y372210D01*
X464396Y372359D01*
X464519Y372509D01*
X464523Y372517D01*
X464529Y372524D01*
X464616Y372692D01*
X464707Y372865D01*
X464710Y372874D01*
X464714Y372881D01*
X464767Y373064D01*
X464822Y373251D01*
X464823Y373260D01*
X464826Y373268D01*
X464841Y373459D01*
X464859Y373652D01*
X464858Y373661D01*
X464858Y373670D01*
X464836Y373859D01*
X464815Y374052D01*
X464813Y374061D01*
X464812Y374069D01*
X464752Y374252D01*
X464694Y374436D01*
X464689Y374444D01*
X464687Y374452D01*
X464592Y374621D01*
X464499Y374788D01*
X464493Y374795D01*
X464489Y374803D01*
X464363Y374948D01*
X464238Y375095D01*
X464231Y375101D01*
X464226Y375108D01*
X464074Y375225D01*
X463923Y375345D01*
X463915Y375349D01*
X463908Y375354D01*
X463734Y375441D01*
X463564Y375527D01*
X463555Y375530D01*
X463547Y375534D01*
X463359Y375584D01*
X463176Y375635D01*
X463167Y375636D01*
X463158Y375638D01*
X462827Y375665D01*
X457726Y375665D01*
X455766Y376477D01*
X444473Y387770D01*
X444452Y387787D01*
X444435Y387808D01*
X444297Y387915D01*
X444161Y388025D01*
X444138Y388038D01*
X444116Y388054D01*
X443959Y388132D01*
X443805Y388214D01*
X443780Y388222D01*
X443756Y388234D01*
X443586Y388279D01*
X443420Y388329D01*
X443393Y388331D01*
X443367Y388338D01*
X443036Y388365D01*
X440245Y388365D01*
X440228Y388363D01*
X440210Y388365D01*
X440028Y388344D01*
X439845Y388325D01*
X439828Y388320D01*
X439810Y388318D01*
X439636Y388261D01*
X439460Y388207D01*
X439444Y388199D01*
X439427Y388193D01*
X439267Y388103D01*
X439106Y388015D01*
X439092Y388004D01*
X439077Y387995D01*
X438937Y387875D01*
X438797Y387758D01*
X438785Y387744D01*
X438772Y387732D01*
X438659Y387587D01*
X438544Y387444D01*
X438536Y387428D01*
X438525Y387414D01*
X438443Y387249D01*
X438359Y387087D01*
X438354Y387070D01*
X438346Y387054D01*
X438298Y386875D01*
X438247Y386700D01*
X438246Y386682D01*
X438241Y386665D01*
X438214Y386334D01*
X438214Y378484D01*
X432411Y372681D01*
X424204Y372681D01*
X418401Y378484D01*
X418401Y386691D01*
X422958Y391248D01*
X422963Y391255D01*
X422970Y391260D01*
X423090Y391410D01*
X423213Y391559D01*
X423217Y391567D01*
X423222Y391574D01*
X423311Y391744D01*
X423401Y391915D01*
X423404Y391924D01*
X423408Y391931D01*
X423461Y392115D01*
X423516Y392301D01*
X423517Y392310D01*
X423519Y392318D01*
X423535Y392510D01*
X423552Y392702D01*
X423551Y392711D01*
X423552Y392720D01*
X423530Y392909D01*
X423509Y393102D01*
X423506Y393111D01*
X423505Y393119D01*
X423446Y393301D01*
X423387Y393486D01*
X423383Y393494D01*
X423380Y393502D01*
X423285Y393670D01*
X423193Y393838D01*
X423187Y393845D01*
X423182Y393853D01*
X423057Y393999D01*
X422932Y394145D01*
X422925Y394151D01*
X422919Y394158D01*
X422768Y394275D01*
X422616Y394395D01*
X422608Y394399D01*
X422601Y394404D01*
X422429Y394490D01*
X422257Y394577D01*
X422249Y394580D01*
X422241Y394584D01*
X422055Y394634D01*
X421869Y394685D01*
X421861Y394686D01*
X421852Y394688D01*
X421521Y394715D01*
X420896Y394715D01*
X420865Y394712D01*
X420833Y394714D01*
X420664Y394692D01*
X420495Y394675D01*
X420465Y394666D01*
X420434Y394662D01*
X420118Y394561D01*
X418720Y393981D01*
X416305Y393981D01*
X414075Y394905D01*
X412368Y396612D01*
X411788Y398011D01*
X411780Y398026D01*
X411775Y398042D01*
X411769Y398053D01*
X411764Y398068D01*
X411678Y398216D01*
X411598Y398366D01*
X411579Y398389D01*
X411577Y398392D01*
X411576Y398393D01*
X411563Y398417D01*
X411348Y398670D01*
X407463Y402555D01*
X407442Y402572D01*
X407425Y402593D01*
X407287Y402699D01*
X407151Y402810D01*
X407127Y402823D01*
X407106Y402839D01*
X406950Y402917D01*
X406795Y402999D01*
X406770Y403007D01*
X406746Y403019D01*
X406577Y403064D01*
X406410Y403114D01*
X406383Y403116D01*
X406357Y403123D01*
X406026Y403150D01*
X366201Y403150D01*
X366175Y403148D01*
X366148Y403150D01*
X365974Y403128D01*
X365801Y403110D01*
X365775Y403103D01*
X365749Y403099D01*
X365583Y403044D01*
X365416Y402992D01*
X365392Y402979D01*
X365367Y402971D01*
X365215Y402884D01*
X365062Y402800D01*
X365041Y402783D01*
X365018Y402770D01*
X364765Y402555D01*
X363848Y401638D01*
X360879Y400408D01*
X357666Y400408D01*
X354697Y401638D01*
X352425Y403910D01*
X351196Y406878D01*
X351196Y410092D01*
X352425Y413060D01*
X354697Y415332D01*
X355496Y415663D01*
X357666Y416562D01*
X360879Y416562D01*
X363848Y415332D01*
X364765Y414415D01*
X364786Y414398D01*
X364803Y414377D01*
X364941Y414270D01*
X365077Y414160D01*
X365100Y414147D01*
X365121Y414131D01*
X365278Y414053D01*
X365432Y413971D01*
X365458Y413963D01*
X365482Y413951D01*
X365651Y413906D01*
X365818Y413856D01*
X365845Y413854D01*
X365871Y413847D01*
X366201Y413820D01*
X410139Y413820D01*
X412099Y413008D01*
X418892Y406215D01*
X418917Y406195D01*
X418937Y406171D01*
X419072Y406067D01*
X419204Y405959D01*
X419232Y405945D01*
X419256Y405926D01*
X419551Y405774D01*
X420118Y405539D01*
X420148Y405530D01*
X420176Y405516D01*
X420341Y405472D01*
X420504Y405423D01*
X420535Y405420D01*
X420565Y405412D01*
X420896Y405385D01*
X432873Y405385D01*
X433014Y405345D01*
X433190Y405292D01*
X433208Y405290D01*
X433225Y405285D01*
X433408Y405271D01*
X433591Y405254D01*
X433608Y405255D01*
X433626Y405254D01*
X433808Y405276D01*
X433991Y405295D01*
X434008Y405301D01*
X434026Y405303D01*
X434200Y405360D01*
X434375Y405415D01*
X434391Y405424D01*
X434408Y405429D01*
X434568Y405520D01*
X434729Y405608D01*
X434742Y405620D01*
X434758Y405629D01*
X434896Y405749D01*
X435037Y405867D01*
X435048Y405881D01*
X435061Y405893D01*
X435173Y406039D01*
X435288Y406182D01*
X435296Y406198D01*
X435307Y406212D01*
X435458Y406508D01*
X436180Y408250D01*
X437887Y409957D01*
X439286Y410537D01*
X439314Y410551D01*
X439343Y410561D01*
X439491Y410646D01*
X439641Y410727D01*
X439665Y410747D01*
X439692Y410762D01*
X439945Y410977D01*
X445446Y416478D01*
X445511Y416557D01*
X445583Y416630D01*
X445638Y416713D01*
X445701Y416790D01*
X445726Y416836D01*
X445814Y416938D01*
X445858Y417001D01*
X445909Y417058D01*
X445973Y417165D01*
X446045Y417268D01*
X446076Y417338D01*
X446115Y417404D01*
X446156Y417522D01*
X446207Y417637D01*
X446223Y417711D01*
X446248Y417783D01*
X446274Y417945D01*
X446292Y418030D01*
X446293Y418066D01*
X446300Y418111D01*
X446365Y418976D01*
X446363Y419052D01*
X446371Y419128D01*
X446359Y419253D01*
X446355Y419378D01*
X446339Y419453D01*
X446331Y419529D01*
X446294Y419649D01*
X446270Y419757D01*
X446466Y420616D01*
X446474Y420683D01*
X446511Y420917D01*
X446578Y421802D01*
X446611Y421842D01*
X446670Y421953D01*
X446736Y422059D01*
X446764Y422130D01*
X446799Y422198D01*
X446849Y422353D01*
X446880Y422435D01*
X446886Y422470D01*
X446900Y422514D01*
X447093Y423359D01*
X447102Y423435D01*
X447121Y423509D01*
X447128Y423634D01*
X447143Y423758D01*
X447138Y423835D01*
X447141Y423911D01*
X447123Y424035D01*
X447115Y424146D01*
X447437Y424967D01*
X447455Y425031D01*
X447527Y425257D01*
X447724Y426122D01*
X447763Y426157D01*
X447838Y426257D01*
X447919Y426352D01*
X447957Y426419D01*
X448003Y426480D01*
X448074Y426627D01*
X448117Y426703D01*
X448128Y426737D01*
X448149Y426778D01*
X448466Y427585D01*
X448486Y427659D01*
X448516Y427729D01*
X448541Y427852D01*
X448575Y427972D01*
X448581Y428049D01*
X448596Y428124D01*
X448596Y428249D01*
X448605Y428360D01*
X449045Y429123D01*
X449073Y429184D01*
X449177Y429397D01*
X449502Y430223D01*
X449545Y430251D01*
X449634Y430340D01*
X449729Y430421D01*
X449776Y430482D01*
X449830Y430536D01*
X449923Y430670D01*
X449977Y430739D01*
X449993Y430771D01*
X450019Y430809D01*
X450453Y431559D01*
X450484Y431629D01*
X450524Y431694D01*
X450567Y431812D01*
X450619Y431926D01*
X450636Y432000D01*
X450662Y432072D01*
X450681Y432196D01*
X450706Y432305D01*
X451256Y432994D01*
X451292Y433050D01*
X451427Y433245D01*
X451871Y434013D01*
X451918Y434035D01*
X452019Y434109D01*
X452125Y434176D01*
X452181Y434228D01*
X452242Y434274D01*
X452342Y434379D01*
X452359Y434394D01*
X452370Y434407D01*
X452418Y434452D01*
X452438Y434482D01*
X452470Y434515D01*
X453010Y435193D01*
X453052Y435257D01*
X453101Y435316D01*
X453161Y435425D01*
X453229Y435531D01*
X453257Y435602D01*
X453294Y435669D01*
X453331Y435789D01*
X453372Y435893D01*
X454018Y436492D01*
X454062Y436542D01*
X454225Y436714D01*
X454778Y437408D01*
X454828Y437422D01*
X454939Y437481D01*
X455054Y437531D01*
X455117Y437574D01*
X455184Y437610D01*
X455313Y437711D01*
X455384Y437761D01*
X455409Y437787D01*
X455445Y437815D01*
X456081Y438405D01*
X456107Y438434D01*
X456133Y438456D01*
X456153Y438481D01*
X456189Y438512D01*
X456264Y438612D01*
X456347Y438706D01*
X456381Y438764D01*
X456386Y438770D01*
X456389Y438777D01*
X456432Y438833D01*
X456486Y438946D01*
X456543Y439043D01*
X457271Y439539D01*
X457322Y439582D01*
X457508Y439728D01*
X458159Y440331D01*
X458208Y440338D01*
X458328Y440379D01*
X458450Y440412D01*
X458517Y440445D01*
X458589Y440470D01*
X458724Y440547D01*
X458790Y440578D01*
X458798Y440584D01*
X458811Y440590D01*
X458838Y440611D01*
X458877Y440633D01*
X458885Y440639D01*
X458996Y440732D01*
X459113Y440818D01*
X459126Y440834D01*
X459130Y440836D01*
X459152Y440862D01*
X459194Y440897D01*
X459285Y441010D01*
X459382Y441118D01*
X459411Y441167D01*
X459446Y441211D01*
X459513Y441340D01*
X459587Y441465D01*
X459605Y441518D01*
X459631Y441569D01*
X459671Y441708D01*
X459719Y441845D01*
X459727Y441901D01*
X459742Y441956D01*
X459754Y442100D01*
X459774Y442244D01*
X459770Y442300D01*
X459775Y442357D01*
X459758Y442501D01*
X459749Y442646D01*
X459734Y442700D01*
X459727Y442757D01*
X459682Y442895D01*
X459645Y443035D01*
X459617Y443093D01*
X459602Y443139D01*
X459561Y443212D01*
X459503Y443335D01*
X441761Y474065D01*
X442389Y474361D01*
X442411Y474378D01*
X442438Y474388D01*
X442490Y474437D01*
X442548Y474480D01*
X442562Y474505D01*
X442583Y474525D01*
X442612Y474590D01*
X442648Y474652D01*
X442651Y474681D01*
X442663Y474707D01*
X442664Y474779D01*
X442673Y474849D01*
X442665Y474877D01*
X442666Y474906D01*
X442630Y475000D01*
X442619Y475041D01*
X442612Y475049D01*
X442608Y475062D01*
X433108Y491562D01*
X433056Y491620D01*
X433010Y491683D01*
X432991Y491694D01*
X432976Y491711D01*
X432906Y491744D01*
X432839Y491784D01*
X432815Y491788D01*
X432797Y491797D01*
X432752Y491799D01*
X432675Y491812D01*
X413675Y491812D01*
X413647Y491806D01*
X413619Y491809D01*
X413551Y491786D01*
X413480Y491772D01*
X413457Y491756D01*
X413430Y491747D01*
X413375Y491700D01*
X413316Y491660D01*
X413301Y491636D01*
X413280Y491617D01*
X413248Y491553D01*
X413209Y491492D01*
X413204Y491464D01*
X413192Y491439D01*
X413183Y491337D01*
X413176Y491296D01*
X413178Y491286D01*
X413177Y491273D01*
X413234Y490558D01*
X377698Y490558D01*
X377555Y490544D01*
X377410Y490537D01*
X377354Y490524D01*
X377297Y490518D01*
X377160Y490476D01*
X377019Y490441D01*
X376967Y490417D01*
X376912Y490400D01*
X376785Y490331D01*
X376655Y490270D01*
X376609Y490235D01*
X376558Y490208D01*
X376447Y490116D01*
X376332Y490030D01*
X376293Y489987D01*
X376249Y489950D01*
X376159Y489838D01*
X376062Y489731D01*
X376033Y489681D01*
X375997Y489636D01*
X375930Y489509D01*
X375857Y489385D01*
X375838Y489330D01*
X375811Y489279D01*
X375771Y489141D01*
X375724Y489005D01*
X375713Y488940D01*
X375700Y488892D01*
X375693Y488809D01*
X375672Y488677D01*
X375671Y488660D01*
X375673Y488584D01*
X375665Y488508D01*
X375667Y488492D01*
X375667Y488491D01*
X375668Y488482D01*
X375678Y488383D01*
X375681Y488257D01*
X375698Y488183D01*
X375705Y488108D01*
X375742Y487988D01*
X375767Y487880D01*
X375571Y487020D01*
X375567Y486988D01*
X375560Y486964D01*
X375555Y486910D01*
X375525Y486720D01*
X375459Y485835D01*
X375426Y485795D01*
X375367Y485684D01*
X375301Y485578D01*
X375273Y485507D01*
X375238Y485439D01*
X375188Y485284D01*
X375157Y485202D01*
X375151Y485166D01*
X375138Y485123D01*
X374945Y484280D01*
X374936Y484204D01*
X374917Y484130D01*
X374911Y484004D01*
X374895Y483880D01*
X374900Y483804D01*
X374897Y483728D01*
X374915Y483604D01*
X374923Y483492D01*
X374601Y482672D01*
X374583Y482607D01*
X374512Y482382D01*
X374315Y481517D01*
X374276Y481482D01*
X374201Y481381D01*
X374119Y481286D01*
X374082Y481220D01*
X374036Y481158D01*
X373965Y481012D01*
X373922Y480936D01*
X373911Y480902D01*
X373890Y480860D01*
X373574Y480055D01*
X373554Y479982D01*
X373524Y479911D01*
X373499Y479789D01*
X373465Y479668D01*
X373459Y479591D01*
X373444Y479517D01*
X373444Y479391D01*
X373436Y479280D01*
X372995Y478517D01*
X372968Y478456D01*
X372863Y478243D01*
X372539Y477417D01*
X372496Y477389D01*
X372407Y477300D01*
X372312Y477218D01*
X372265Y477158D01*
X372211Y477104D01*
X372118Y476970D01*
X372064Y476901D01*
X372048Y476869D01*
X372022Y476831D01*
X371590Y476082D01*
X371558Y476013D01*
X371518Y475947D01*
X371475Y475830D01*
X371424Y475716D01*
X371407Y475641D01*
X371380Y475569D01*
X371362Y475445D01*
X371337Y475337D01*
X370787Y474648D01*
X370751Y474591D01*
X370616Y474397D01*
X370173Y473628D01*
X370125Y473606D01*
X370024Y473532D01*
X369918Y473465D01*
X369863Y473413D01*
X369801Y473367D01*
X369689Y473248D01*
X369626Y473189D01*
X369605Y473159D01*
X369574Y473126D01*
X369035Y472450D01*
X368993Y472386D01*
X368944Y472327D01*
X368884Y472217D01*
X368816Y472112D01*
X368788Y472041D01*
X368751Y471973D01*
X368714Y471854D01*
X368673Y471750D01*
X368028Y471151D01*
X367983Y471100D01*
X367821Y470928D01*
X367268Y470234D01*
X367218Y470220D01*
X367107Y470161D01*
X366992Y470111D01*
X366929Y470067D01*
X366862Y470032D01*
X366733Y469931D01*
X366662Y469881D01*
X366637Y469855D01*
X366601Y469827D01*
X365967Y469239D01*
X365916Y469181D01*
X365859Y469131D01*
X365783Y469031D01*
X365700Y468937D01*
X365662Y468871D01*
X365616Y468810D01*
X365561Y468697D01*
X365505Y468600D01*
X364777Y468104D01*
X364726Y468061D01*
X364540Y467915D01*
X363889Y467311D01*
X363838Y467304D01*
X363720Y467263D01*
X363598Y467230D01*
X363530Y467197D01*
X363458Y467171D01*
X363316Y467091D01*
X363237Y467052D01*
X363209Y467030D01*
X363169Y467007D01*
X362455Y466520D01*
X362396Y466471D01*
X362332Y466430D01*
X362242Y466342D01*
X362146Y466262D01*
X362098Y466202D01*
X362044Y466149D01*
X361973Y466045D01*
X361903Y465958D01*
X361110Y465576D01*
X361053Y465541D01*
X360847Y465424D01*
X360113Y464924D01*
X360061Y464925D01*
X359938Y464902D01*
X359813Y464888D01*
X359741Y464864D01*
X359665Y464850D01*
X359513Y464792D01*
X359430Y464765D01*
X359399Y464748D01*
X359356Y464731D01*
X358577Y464356D01*
X358511Y464316D01*
X358442Y464285D01*
X358340Y464212D01*
X358233Y464146D01*
X358177Y464094D01*
X358115Y464050D01*
X358030Y463958D01*
X357948Y463882D01*
X357173Y463643D01*
X357073Y463601D01*
X356970Y463569D01*
X356888Y463523D01*
X356802Y463487D01*
X356713Y463426D01*
X356618Y463374D01*
X356546Y463313D01*
X356469Y463261D01*
X356393Y463183D01*
X356311Y463113D01*
X356253Y463040D01*
X356187Y462973D01*
X356128Y462882D01*
X356061Y462797D01*
X356019Y462714D01*
X355968Y462636D01*
X355928Y462535D01*
X355879Y462438D01*
X355854Y462348D01*
X355819Y462261D01*
X355800Y462155D01*
X355771Y462050D01*
X355764Y461957D01*
X355747Y461865D01*
X355749Y461757D01*
X355741Y461649D01*
X355753Y461556D01*
X355755Y461463D01*
X355778Y461357D01*
X355792Y461249D01*
X355822Y461161D01*
X355842Y461070D01*
X355886Y460970D01*
X355920Y460868D01*
X355967Y460787D01*
X356004Y460701D01*
X356067Y460613D01*
X356121Y460519D01*
X356193Y460434D01*
X356237Y460372D01*
X356281Y460330D01*
X356336Y460266D01*
X357501Y459101D01*
X357521Y459084D01*
X357539Y459064D01*
X357677Y458957D01*
X357812Y458846D01*
X357836Y458834D01*
X357857Y458817D01*
X358013Y458740D01*
X358168Y458657D01*
X358193Y458650D01*
X358217Y458638D01*
X358386Y458592D01*
X358554Y458543D01*
X358580Y458540D01*
X358606Y458533D01*
X358937Y458506D01*
X359982Y458506D01*
X362213Y457582D01*
X363920Y455875D01*
X364844Y453645D01*
X364844Y451230D01*
X363920Y449000D01*
X362213Y447293D01*
X359982Y446369D01*
X357568Y446369D01*
X355337Y447293D01*
X353630Y449000D01*
X352706Y451230D01*
X352706Y452276D01*
X352704Y452302D01*
X352706Y452329D01*
X352684Y452503D01*
X352666Y452676D01*
X352659Y452702D01*
X352655Y452728D01*
X352600Y452894D01*
X352548Y453061D01*
X352535Y453085D01*
X352527Y453110D01*
X352440Y453262D01*
X352356Y453415D01*
X352339Y453436D01*
X352326Y453459D01*
X352111Y453712D01*
X344817Y461006D01*
X344796Y461023D01*
X344779Y461044D01*
X344641Y461151D01*
X344505Y461261D01*
X344482Y461274D01*
X344461Y461290D01*
X344304Y461368D01*
X344150Y461450D01*
X344124Y461458D01*
X344100Y461470D01*
X343931Y461515D01*
X343764Y461565D01*
X343737Y461567D01*
X343711Y461574D01*
X343381Y461601D01*
X342809Y461601D01*
X342766Y461631D01*
X342651Y461682D01*
X342541Y461740D01*
X342467Y461762D01*
X342397Y461793D01*
X342238Y461830D01*
X342155Y461855D01*
X342119Y461858D01*
X342074Y461869D01*
X341219Y461998D01*
X341143Y462001D01*
X341067Y462015D01*
X340942Y462011D01*
X340817Y462018D01*
X340742Y462007D01*
X340665Y462005D01*
X340543Y461977D01*
X340433Y461960D01*
X339590Y462220D01*
X339524Y462234D01*
X339294Y462288D01*
X338417Y462420D01*
X338379Y462456D01*
X338273Y462523D01*
X338173Y462597D01*
X338103Y462630D01*
X338039Y462670D01*
X337887Y462731D01*
X337808Y462768D01*
X337773Y462777D01*
X337731Y462794D01*
X336904Y463049D01*
X336829Y463064D01*
X336757Y463088D01*
X336633Y463104D01*
X336510Y463129D01*
X336433Y463129D01*
X336357Y463138D01*
X336232Y463129D01*
X336121Y463129D01*
X335327Y463511D01*
X335264Y463535D01*
X335044Y463622D01*
X334196Y463884D01*
X334164Y463925D01*
X334069Y464007D01*
X333981Y464096D01*
X333917Y464138D01*
X333859Y464188D01*
X333719Y464271D01*
X333646Y464319D01*
X333613Y464333D01*
X333573Y464356D01*
X332794Y464731D01*
X332723Y464757D01*
X332654Y464792D01*
X332534Y464826D01*
X332416Y464869D01*
X332340Y464881D01*
X332267Y464901D01*
X332142Y464911D01*
X332031Y464928D01*
X331303Y465424D01*
X331244Y465456D01*
X331040Y465576D01*
X330241Y465961D01*
X330216Y466006D01*
X330134Y466101D01*
X330060Y466202D01*
X330003Y466254D01*
X329953Y466312D01*
X329826Y466414D01*
X329762Y466473D01*
X329731Y466492D01*
X329695Y466520D01*
X328981Y467007D01*
X328914Y467044D01*
X328852Y467089D01*
X328737Y467140D01*
X328627Y467200D01*
X328554Y467223D01*
X328485Y467254D01*
X328362Y467282D01*
X328256Y467315D01*
X327610Y467915D01*
X327557Y467955D01*
X327373Y468104D01*
X326639Y468604D01*
X326621Y468653D01*
X326554Y468759D01*
X326496Y468870D01*
X326448Y468929D01*
X326407Y468994D01*
X326297Y469114D01*
X326242Y469182D01*
X326214Y469205D01*
X326183Y469239D01*
X325549Y469827D01*
X325488Y469873D01*
X325434Y469926D01*
X325328Y469994D01*
X325228Y470070D01*
X325160Y470103D01*
X325095Y470145D01*
X324979Y470191D01*
X324878Y470239D01*
X324329Y470928D01*
X324282Y470976D01*
X324122Y471151D01*
X323472Y471754D01*
X323461Y471805D01*
X323411Y471920D01*
X323370Y472038D01*
X323331Y472104D01*
X323300Y472174D01*
X323209Y472310D01*
X323165Y472385D01*
X323141Y472412D01*
X323115Y472450D01*
X322576Y473126D01*
X322523Y473181D01*
X322477Y473242D01*
X322383Y473324D01*
X322295Y473414D01*
X322232Y473457D01*
X322175Y473508D01*
X322066Y473571D01*
X321974Y473634D01*
X321534Y474397D01*
X321494Y474451D01*
X321363Y474648D01*
X320809Y475341D01*
X320806Y475394D01*
X320774Y475515D01*
X320751Y475638D01*
X320722Y475709D01*
X320702Y475783D01*
X320633Y475930D01*
X320600Y476011D01*
X320580Y476041D01*
X320560Y476082D01*
X320128Y476831D01*
X320084Y476893D01*
X320047Y476961D01*
X319966Y477057D01*
X319893Y477158D01*
X319837Y477210D01*
X319788Y477269D01*
X319690Y477347D01*
X319609Y477423D01*
X319287Y478243D01*
X319256Y478303D01*
X319155Y478517D01*
X318711Y479285D01*
X318716Y479337D01*
X318702Y479462D01*
X318697Y479587D01*
X318680Y479662D01*
X318671Y479738D01*
X318624Y479894D01*
X318604Y479979D01*
X318589Y480011D01*
X318576Y480055D01*
X318260Y480860D01*
X318225Y480928D01*
X318199Y481000D01*
X318133Y481107D01*
X318076Y481219D01*
X318029Y481279D01*
X317989Y481344D01*
X317904Y481436D01*
X317834Y481523D01*
X317638Y482382D01*
X317617Y482446D01*
X317549Y482672D01*
X317224Y483498D01*
X317237Y483549D01*
X317241Y483674D01*
X317256Y483798D01*
X317249Y483875D01*
X317252Y483951D01*
X317229Y484113D01*
X317221Y484200D01*
X317211Y484234D01*
X317205Y484280D01*
X317012Y485123D01*
X316988Y485195D01*
X316973Y485270D01*
X316924Y485385D01*
X316884Y485504D01*
X316846Y485571D01*
X316817Y485641D01*
X316746Y485745D01*
X316690Y485841D01*
X316625Y486720D01*
X316613Y486786D01*
X316579Y487020D01*
X316382Y487885D01*
X316401Y487932D01*
X316425Y488056D01*
X316458Y488178D01*
X316462Y488253D01*
X316477Y488328D01*
X316478Y488492D01*
X316480Y488518D01*
X316483Y488562D01*
X316483Y488566D01*
X316484Y488580D01*
X316479Y488615D01*
X316479Y488660D01*
X316478Y488677D01*
X316453Y488819D01*
X316436Y488962D01*
X316418Y489017D01*
X316408Y489074D01*
X316356Y489208D01*
X316311Y489345D01*
X316283Y489395D01*
X316262Y489449D01*
X316184Y489570D01*
X316114Y489695D01*
X316076Y489739D01*
X316045Y489787D01*
X315945Y489891D01*
X315850Y490000D01*
X315805Y490035D01*
X315765Y490077D01*
X315646Y490159D01*
X315532Y490247D01*
X315481Y490272D01*
X315433Y490305D01*
X315301Y490362D01*
X315172Y490426D01*
X315116Y490441D01*
X315063Y490464D01*
X314922Y490493D01*
X314783Y490531D01*
X314717Y490536D01*
X314669Y490546D01*
X314586Y490547D01*
X314452Y490558D01*
X278916Y490558D01*
X278973Y491273D01*
X278969Y491301D01*
X278974Y491329D01*
X278957Y491399D01*
X278949Y491470D01*
X278935Y491495D01*
X278928Y491522D01*
X278885Y491580D01*
X278850Y491643D01*
X278827Y491660D01*
X278810Y491683D01*
X278748Y491719D01*
X278691Y491763D01*
X278663Y491770D01*
X278639Y491784D01*
X278539Y491801D01*
X278498Y491811D01*
X278488Y491810D01*
X278475Y491812D01*
X259475Y491812D01*
X259399Y491796D01*
X259321Y491788D01*
X259302Y491777D01*
X259280Y491772D01*
X259216Y491728D01*
X259148Y491690D01*
X259132Y491671D01*
X259116Y491660D01*
X259092Y491622D01*
X259042Y491562D01*
X249542Y475062D01*
X249533Y475034D01*
X249517Y475011D01*
X249502Y474941D01*
X249479Y474873D01*
X249482Y474845D01*
X249476Y474816D01*
X249490Y474746D01*
X249495Y474675D01*
X249508Y474649D01*
X249514Y474621D01*
X249554Y474562D01*
X249587Y474498D01*
X249609Y474480D01*
X249625Y474456D01*
X249708Y474399D01*
X249740Y474372D01*
X249751Y474369D01*
X249762Y474361D01*
X250389Y474065D01*
X232647Y443335D01*
X232588Y443202D01*
X232521Y443074D01*
X232505Y443019D01*
X232481Y442968D01*
X232449Y442826D01*
X232409Y442687D01*
X232404Y442631D01*
X232391Y442575D01*
X232387Y442430D01*
X232375Y442286D01*
X232382Y442230D01*
X232380Y442173D01*
X232405Y442030D01*
X232422Y441886D01*
X232439Y441832D01*
X232449Y441776D01*
X232501Y441641D01*
X232546Y441503D01*
X232574Y441453D01*
X232594Y441401D01*
X232672Y441279D01*
X232744Y441152D01*
X232781Y441109D01*
X232811Y441061D01*
X232912Y440957D01*
X233006Y440847D01*
X233053Y440809D01*
X233073Y440788D01*
X233078Y440785D01*
X233091Y440771D01*
X233159Y440724D01*
X233265Y440639D01*
X233273Y440633D01*
X233339Y440597D01*
X233400Y440554D01*
X233415Y440547D01*
X233422Y440542D01*
X233498Y440509D01*
X233515Y440502D01*
X233627Y440441D01*
X233698Y440419D01*
X233767Y440388D01*
X233891Y440360D01*
X233995Y440327D01*
X234642Y439728D01*
X234695Y439687D01*
X234879Y439539D01*
X235613Y439039D01*
X235631Y438990D01*
X235698Y438884D01*
X235756Y438773D01*
X235799Y438721D01*
X235804Y438711D01*
X235812Y438702D01*
X235845Y438649D01*
X235955Y438529D01*
X236010Y438461D01*
X236038Y438438D01*
X236066Y438408D01*
X236068Y438406D01*
X236069Y438405D01*
X236705Y437815D01*
X236766Y437769D01*
X236821Y437716D01*
X236926Y437648D01*
X237026Y437572D01*
X237095Y437539D01*
X237159Y437497D01*
X237275Y437451D01*
X237376Y437403D01*
X237925Y436714D01*
X237972Y436666D01*
X238132Y436492D01*
X238783Y435888D01*
X238794Y435837D01*
X238844Y435722D01*
X238885Y435604D01*
X238924Y435538D01*
X238955Y435468D01*
X239046Y435333D01*
X239090Y435258D01*
X239114Y435231D01*
X239140Y435193D01*
X239680Y434515D01*
X239734Y434460D01*
X239780Y434399D01*
X239838Y434348D01*
X239842Y434344D01*
X239852Y434336D01*
X239874Y434316D01*
X239961Y434227D01*
X240024Y434184D01*
X240082Y434133D01*
X240191Y434070D01*
X240282Y434007D01*
X240723Y433245D01*
X240763Y433190D01*
X240894Y432994D01*
X241448Y432300D01*
X241451Y432248D01*
X241483Y432127D01*
X241507Y432004D01*
X241535Y431933D01*
X241555Y431859D01*
X241625Y431711D01*
X241658Y431631D01*
X241677Y431601D01*
X241697Y431559D01*
X242131Y430809D01*
X242175Y430746D01*
X242212Y430679D01*
X242293Y430583D01*
X242366Y430482D01*
X242422Y430430D01*
X242471Y430371D01*
X242569Y430293D01*
X242650Y430217D01*
X242973Y429397D01*
X243003Y429337D01*
X243105Y429123D01*
X243548Y428355D01*
X243544Y428303D01*
X243558Y428178D01*
X243562Y428053D01*
X243580Y427979D01*
X243589Y427903D01*
X243636Y427747D01*
X243656Y427662D01*
X243671Y427629D01*
X243684Y427585D01*
X244001Y426778D01*
X244036Y426710D01*
X244063Y426638D01*
X244128Y426531D01*
X244185Y426420D01*
X244233Y426360D01*
X244273Y426295D01*
X244358Y426203D01*
X244427Y426116D01*
X244623Y425257D01*
X244645Y425193D01*
X244713Y424967D01*
X245037Y424141D01*
X245025Y424090D01*
X245020Y423965D01*
X245006Y423840D01*
X245013Y423764D01*
X245010Y423687D01*
X245033Y423526D01*
X245041Y423439D01*
X245051Y423405D01*
X245057Y423359D01*
X245201Y422730D01*
X245261Y422551D01*
X245318Y422373D01*
X245325Y422361D01*
X245329Y422349D01*
X245423Y422185D01*
X245515Y422021D01*
X245523Y422011D01*
X245530Y422000D01*
X245654Y421858D01*
X245777Y421716D01*
X245787Y421707D01*
X245796Y421697D01*
X245945Y421584D01*
X246094Y421467D01*
X246105Y421461D01*
X246116Y421453D01*
X246286Y421371D01*
X246453Y421287D01*
X246466Y421283D01*
X246478Y421277D01*
X246660Y421230D01*
X246842Y421180D01*
X246855Y421179D01*
X246868Y421176D01*
X247055Y421166D01*
X247243Y421153D01*
X247257Y421154D01*
X247270Y421154D01*
X247455Y421180D01*
X247642Y421205D01*
X247656Y421209D01*
X247668Y421211D01*
X247729Y421233D01*
X247958Y421306D01*
X249618Y421994D01*
X252032Y421994D01*
X254263Y421070D01*
X255970Y419363D01*
X256894Y417132D01*
X256894Y414718D01*
X255970Y412487D01*
X254263Y410780D01*
X252032Y409856D01*
X249618Y409856D01*
X247877Y410577D01*
X247850Y410585D01*
X247825Y410598D01*
X247658Y410644D01*
X247492Y410694D01*
X247464Y410696D01*
X247436Y410704D01*
X247264Y410715D01*
X247091Y410732D01*
X247063Y410729D01*
X247035Y410731D01*
X246863Y410708D01*
X246691Y410690D01*
X246664Y410682D01*
X246635Y410678D01*
X246471Y410622D01*
X246306Y410570D01*
X246282Y410557D01*
X246255Y410548D01*
X246105Y410460D01*
X245953Y410377D01*
X245931Y410359D01*
X245907Y410344D01*
X245777Y410229D01*
X245645Y410118D01*
X245627Y410096D01*
X245606Y410077D01*
X245502Y409939D01*
X245394Y409803D01*
X245381Y409778D01*
X245364Y409755D01*
X245289Y409599D01*
X245210Y409445D01*
X245202Y409418D01*
X245190Y409392D01*
X245148Y409224D01*
X245100Y409058D01*
X245098Y409029D01*
X245091Y409002D01*
X245083Y408828D01*
X245069Y408656D01*
X245073Y408628D01*
X245071Y408600D01*
X245074Y408583D01*
X244719Y407677D01*
X244700Y407612D01*
X244629Y407387D01*
X244432Y406522D01*
X244393Y406486D01*
X244319Y406386D01*
X244237Y406291D01*
X244200Y406224D01*
X244154Y406163D01*
X244082Y406016D01*
X244039Y405940D01*
X244028Y405906D01*
X244008Y405865D01*
X243692Y405058D01*
X243671Y404984D01*
X243641Y404913D01*
X243616Y404790D01*
X243582Y404670D01*
X243577Y404594D01*
X243562Y404519D01*
X243561Y404393D01*
X243553Y404282D01*
X243113Y403519D01*
X243085Y403458D01*
X242981Y403246D01*
X242657Y402419D01*
X242614Y402391D01*
X242525Y402302D01*
X242430Y402220D01*
X242383Y402160D01*
X242329Y402106D01*
X242236Y401972D01*
X242182Y401903D01*
X242166Y401871D01*
X242140Y401833D01*
X241707Y401082D01*
X241675Y401013D01*
X241635Y400947D01*
X241593Y400829D01*
X241541Y400715D01*
X241524Y400641D01*
X241498Y400569D01*
X241479Y400445D01*
X241454Y400336D01*
X240905Y399647D01*
X240869Y399591D01*
X240734Y399396D01*
X240291Y398628D01*
X240243Y398606D01*
X240142Y398531D01*
X240036Y398465D01*
X239981Y398412D01*
X239919Y398367D01*
X239807Y398248D01*
X239744Y398188D01*
X239723Y398158D01*
X239692Y398125D01*
X239152Y397447D01*
X239110Y397383D01*
X239061Y397324D01*
X239001Y397214D01*
X238933Y397109D01*
X238905Y397038D01*
X238869Y396970D01*
X238832Y396851D01*
X238791Y396747D01*
X238145Y396147D01*
X238100Y396097D01*
X237939Y395925D01*
X237386Y395231D01*
X237336Y395216D01*
X237225Y395158D01*
X237110Y395108D01*
X237047Y395064D01*
X236979Y395028D01*
X236851Y394927D01*
X236780Y394877D01*
X236755Y394852D01*
X236719Y394823D01*
X236083Y394233D01*
X236033Y394176D01*
X235975Y394125D01*
X235900Y394025D01*
X235817Y393931D01*
X235779Y393865D01*
X235732Y393804D01*
X235678Y393691D01*
X235622Y393595D01*
X234894Y393098D01*
X234842Y393055D01*
X234657Y392909D01*
X234007Y392305D01*
X233955Y392298D01*
X233836Y392257D01*
X233716Y392224D01*
X233647Y392190D01*
X233575Y392165D01*
X233433Y392084D01*
X233355Y392046D01*
X233326Y392024D01*
X233286Y392001D01*
X232570Y391513D01*
X232511Y391463D01*
X232447Y391422D01*
X232358Y391334D01*
X232262Y391254D01*
X232214Y391194D01*
X232159Y391141D01*
X232088Y391037D01*
X232019Y390950D01*
X231225Y390568D01*
X231168Y390532D01*
X230962Y390416D01*
X230229Y389916D01*
X230177Y389916D01*
X230054Y389893D01*
X229929Y389879D01*
X229857Y389856D01*
X229781Y389842D01*
X229629Y389783D01*
X229546Y389756D01*
X229515Y389739D01*
X229472Y389722D01*
X228691Y389346D01*
X228626Y389306D01*
X228556Y389275D01*
X228454Y389201D01*
X228347Y389136D01*
X228291Y389084D01*
X228229Y389040D01*
X228144Y388948D01*
X228062Y388872D01*
X227220Y388612D01*
X227158Y388586D01*
X226937Y388501D01*
X226138Y388116D01*
X226087Y388124D01*
X225961Y388120D01*
X225836Y388124D01*
X225761Y388112D01*
X225684Y388109D01*
X225525Y388074D01*
X225439Y388060D01*
X225405Y388048D01*
X225360Y388038D01*
X224532Y387782D01*
X224461Y387752D01*
X224388Y387731D01*
X224276Y387674D01*
X224161Y387626D01*
X224098Y387583D01*
X224029Y387548D01*
X223932Y387470D01*
X223839Y387407D01*
X222968Y387275D01*
X222903Y387259D01*
X222672Y387208D01*
X221824Y386946D01*
X221775Y386962D01*
X221650Y386976D01*
X221527Y386999D01*
X221450Y386998D01*
X221374Y387007D01*
X221212Y386996D01*
X221124Y386995D01*
X221089Y386988D01*
X221043Y386984D01*
X220186Y386855D01*
X220112Y386836D01*
X220036Y386827D01*
X219918Y386787D01*
X219796Y386756D01*
X219727Y386723D01*
X219655Y386698D01*
X219546Y386636D01*
X219446Y386587D01*
X218564Y386587D01*
X218498Y386580D01*
X218262Y386564D01*
X217384Y386432D01*
X217337Y386455D01*
X217217Y386487D01*
X217098Y386529D01*
X217023Y386540D01*
X216949Y386559D01*
X216786Y386573D01*
X216700Y386585D01*
X216664Y386583D01*
X216618Y386586D01*
X215751Y386586D01*
X215675Y386579D01*
X215599Y386580D01*
X215475Y386559D01*
X215350Y386546D01*
X215277Y386524D01*
X215202Y386510D01*
X215086Y386465D01*
X214979Y386432D01*
X214107Y386563D01*
X214040Y386566D01*
X213805Y386586D01*
X212917Y386585D01*
X212875Y386615D01*
X212760Y386665D01*
X212649Y386724D01*
X212576Y386746D01*
X212506Y386776D01*
X212347Y386814D01*
X212263Y386839D01*
X212227Y386842D01*
X212183Y386852D01*
X211325Y386981D01*
X211249Y386985D01*
X211174Y386998D01*
X211048Y386995D01*
X210923Y387002D01*
X210848Y386990D01*
X210771Y386988D01*
X210649Y386960D01*
X210539Y386944D01*
X209697Y387203D01*
X209631Y387217D01*
X209401Y387271D01*
X208523Y387403D01*
X208485Y387439D01*
X208379Y387506D01*
X208279Y387580D01*
X208209Y387613D01*
X208144Y387653D01*
X207993Y387714D01*
X207914Y387751D01*
X207879Y387759D01*
X207836Y387777D01*
X207008Y388032D01*
X206933Y388047D01*
X206860Y388071D01*
X206736Y388087D01*
X206613Y388112D01*
X206537Y388112D01*
X206461Y388121D01*
X206336Y388112D01*
X206224Y388112D01*
X205430Y388494D01*
X205368Y388517D01*
X205148Y388605D01*
X204300Y388866D01*
X204267Y388908D01*
X204173Y388989D01*
X204084Y389078D01*
X204020Y389121D01*
X203962Y389171D01*
X203822Y389253D01*
X203749Y389301D01*
X203716Y389315D01*
X203675Y389339D01*
X203649Y389351D01*
X203515Y389400D01*
X203384Y389456D01*
X203326Y389469D01*
X203271Y389489D01*
X203130Y389510D01*
X202990Y389540D01*
X202931Y389540D01*
X202873Y389549D01*
X202730Y389542D01*
X202588Y389544D01*
X202529Y389532D01*
X202470Y389530D01*
X202332Y389495D01*
X202192Y389468D01*
X202137Y389446D01*
X202080Y389431D01*
X201951Y389370D01*
X201819Y389316D01*
X201770Y389283D01*
X201717Y389258D01*
X201603Y389172D01*
X201484Y389093D01*
X201442Y389051D01*
X201395Y389016D01*
X201300Y388910D01*
X201199Y388809D01*
X201160Y388753D01*
X201127Y388715D01*
X201085Y388644D01*
X201010Y388536D01*
X183267Y357803D01*
X182659Y358223D01*
X182632Y358235D01*
X182610Y358253D01*
X182541Y358274D01*
X182476Y358301D01*
X182447Y358302D01*
X182419Y358310D01*
X182348Y358302D01*
X182277Y358302D01*
X182250Y358291D01*
X182221Y358288D01*
X182159Y358253D01*
X182094Y358225D01*
X182073Y358204D01*
X182048Y358190D01*
X181985Y358113D01*
X181955Y358082D01*
X181951Y358072D01*
X181942Y358062D01*
X172442Y341562D01*
X172418Y341489D01*
X172387Y341418D01*
X172387Y341395D01*
X172379Y341373D01*
X172386Y341296D01*
X172385Y341219D01*
X172394Y341195D01*
X172395Y341175D01*
X172416Y341135D01*
X172435Y341083D01*
X172436Y341078D01*
X172438Y341076D01*
X172442Y341063D01*
X181942Y324563D01*
X181961Y324542D01*
X181974Y324515D01*
X182027Y324468D01*
X182074Y324414D01*
X182100Y324402D01*
X182122Y324382D01*
X182189Y324359D01*
X182253Y324328D01*
X182282Y324327D01*
X182309Y324318D01*
X182381Y324322D01*
X182452Y324319D01*
X182479Y324329D01*
X182508Y324331D01*
X182598Y324374D01*
X182638Y324388D01*
X182646Y324396D01*
X182659Y324402D01*
X183267Y324822D01*
X201010Y294089D01*
X201093Y293973D01*
X201170Y293853D01*
X201211Y293810D01*
X201245Y293762D01*
X201349Y293665D01*
X201448Y293562D01*
X201496Y293528D01*
X201540Y293488D01*
X201661Y293413D01*
X201778Y293332D01*
X201832Y293308D01*
X201883Y293277D01*
X202017Y293228D01*
X202147Y293171D01*
X202205Y293158D01*
X202261Y293138D01*
X202401Y293116D01*
X202541Y293086D01*
X202600Y293085D01*
X202659Y293076D01*
X202801Y293083D01*
X202943Y293081D01*
X203002Y293092D01*
X203061Y293094D01*
X203199Y293129D01*
X203339Y293155D01*
X203402Y293179D01*
X203452Y293191D01*
X203526Y293227D01*
X203649Y293274D01*
X203675Y293286D01*
X203741Y293327D01*
X203812Y293358D01*
X203913Y293431D01*
X204019Y293496D01*
X204076Y293548D01*
X204139Y293593D01*
X204223Y293684D01*
X204306Y293761D01*
X205148Y294020D01*
X205209Y294046D01*
X205430Y294131D01*
X206230Y294516D01*
X206281Y294507D01*
X206407Y294512D01*
X206532Y294507D01*
X206607Y294519D01*
X206684Y294522D01*
X206843Y294557D01*
X206929Y294571D01*
X206963Y294583D01*
X207008Y294593D01*
X207836Y294848D01*
X207907Y294878D01*
X207981Y294899D01*
X208092Y294956D01*
X208207Y295005D01*
X208271Y295048D01*
X208339Y295082D01*
X208437Y295160D01*
X208529Y295223D01*
X209401Y295354D01*
X209465Y295371D01*
X209697Y295422D01*
X210545Y295683D01*
X210594Y295667D01*
X210719Y295653D01*
X210842Y295629D01*
X210918Y295630D01*
X210994Y295621D01*
X211157Y295632D01*
X211244Y295633D01*
X211280Y295641D01*
X211325Y295644D01*
X212183Y295773D01*
X212257Y295791D01*
X212333Y295801D01*
X212452Y295841D01*
X212573Y295872D01*
X212642Y295905D01*
X212714Y295929D01*
X212823Y295992D01*
X212923Y296040D01*
X213805Y296039D01*
X213872Y296046D01*
X214107Y296062D01*
X214985Y296194D01*
X215032Y296171D01*
X215152Y296138D01*
X215271Y296097D01*
X215347Y296086D01*
X215420Y296066D01*
X215583Y296053D01*
X215669Y296040D01*
X215705Y296043D01*
X215751Y296039D01*
X216618Y296039D01*
X216694Y296046D01*
X216771Y296044D01*
X216894Y296066D01*
X217019Y296078D01*
X217092Y296101D01*
X217167Y296114D01*
X217284Y296160D01*
X217390Y296192D01*
X218262Y296061D01*
X218329Y296057D01*
X218564Y296038D01*
X219452Y296038D01*
X219495Y296008D01*
X219609Y295957D01*
X219720Y295899D01*
X219793Y295877D01*
X219863Y295846D01*
X220022Y295809D01*
X220106Y295784D01*
X220142Y295781D01*
X220186Y295770D01*
X221043Y295641D01*
X221120Y295637D01*
X221195Y295623D01*
X221321Y295626D01*
X221446Y295620D01*
X221521Y295631D01*
X221598Y295633D01*
X221720Y295661D01*
X221830Y295677D01*
X222672Y295417D01*
X222738Y295404D01*
X222968Y295350D01*
X223845Y295217D01*
X223883Y295181D01*
X223989Y295115D01*
X224090Y295040D01*
X224159Y295007D01*
X224224Y294967D01*
X224375Y294906D01*
X224454Y294869D01*
X224489Y294860D01*
X224532Y294843D01*
X225360Y294587D01*
X225435Y294572D01*
X225508Y294548D01*
X225632Y294532D01*
X225755Y294507D01*
X225831Y294507D01*
X225907Y294498D01*
X226032Y294507D01*
X226144Y294507D01*
X226937Y294124D01*
X227001Y294101D01*
X227220Y294013D01*
X228068Y293751D01*
X228100Y293710D01*
X228195Y293628D01*
X228283Y293539D01*
X228347Y293497D01*
X228405Y293447D01*
X228545Y293364D01*
X228618Y293316D01*
X228651Y293302D01*
X228691Y293279D01*
X229472Y292903D01*
X229543Y292876D01*
X229612Y292841D01*
X229732Y292807D01*
X229850Y292765D01*
X229926Y292753D01*
X229999Y292732D01*
X230124Y292723D01*
X230234Y292706D01*
X230962Y292209D01*
X231022Y292177D01*
X231225Y292057D01*
X232602Y291394D01*
X232660Y291373D01*
X232715Y291344D01*
X232849Y291304D01*
X232980Y291256D01*
X233041Y291247D01*
X233100Y291229D01*
X233240Y291216D01*
X233378Y291195D01*
X233440Y291198D01*
X233501Y291193D01*
X233640Y291208D01*
X233780Y291214D01*
X233840Y291229D01*
X233902Y291236D01*
X234035Y291278D01*
X234171Y291312D01*
X234227Y291339D01*
X234286Y291358D01*
X234408Y291425D01*
X234534Y291485D01*
X234584Y291522D01*
X234638Y291552D01*
X234745Y291643D01*
X234856Y291727D01*
X234898Y291773D01*
X234945Y291813D01*
X235032Y291923D01*
X235125Y292027D01*
X235156Y292080D01*
X235194Y292129D01*
X235258Y292253D01*
X235329Y292374D01*
X235349Y292433D01*
X235377Y292488D01*
X235414Y292623D01*
X235460Y292755D01*
X235468Y292816D01*
X235485Y292876D01*
X235495Y293015D01*
X235514Y293154D01*
X235510Y293215D01*
X235514Y293277D01*
X235497Y293416D01*
X235488Y293555D01*
X235472Y293615D01*
X235464Y293677D01*
X235419Y293809D01*
X235383Y293944D01*
X235355Y294000D01*
X235336Y294058D01*
X235266Y294179D01*
X235203Y294305D01*
X235165Y294354D01*
X235135Y294407D01*
X235008Y294557D01*
X234956Y294623D01*
X234939Y294638D01*
X234920Y294660D01*
X232980Y296600D01*
X232056Y298830D01*
X232056Y301245D01*
X232980Y303475D01*
X234687Y305182D01*
X236918Y306106D01*
X239332Y306106D01*
X241563Y305182D01*
X243270Y303475D01*
X243849Y302076D01*
X243864Y302049D01*
X243874Y302019D01*
X243959Y301872D01*
X244039Y301722D01*
X244059Y301698D01*
X244075Y301670D01*
X244289Y301417D01*
X252205Y293502D01*
X252229Y293482D01*
X252250Y293459D01*
X252385Y293355D01*
X252516Y293247D01*
X252544Y293232D01*
X252569Y293213D01*
X252864Y293062D01*
X254263Y292482D01*
X255970Y290775D01*
X256894Y288545D01*
X256894Y286130D01*
X256164Y284368D01*
X256160Y284355D01*
X256154Y284344D01*
X256102Y284164D01*
X256047Y283983D01*
X256046Y283970D01*
X256042Y283957D01*
X256027Y283769D01*
X256009Y283582D01*
X256011Y283569D01*
X256010Y283555D01*
X256031Y283369D01*
X256051Y283182D01*
X256055Y283169D01*
X256056Y283156D01*
X256115Y282976D01*
X256171Y282797D01*
X256177Y282786D01*
X256181Y282773D01*
X256274Y282609D01*
X256364Y282444D01*
X256373Y282434D01*
X256379Y282422D01*
X256502Y282280D01*
X256623Y282136D01*
X256634Y282128D01*
X256642Y282117D01*
X256790Y282003D01*
X256938Y281885D01*
X256950Y281879D01*
X256960Y281871D01*
X257129Y281787D01*
X257296Y281701D01*
X257309Y281697D01*
X257321Y281691D01*
X257504Y281642D01*
X257683Y281591D01*
X257697Y281590D01*
X257710Y281587D01*
X258040Y281560D01*
X284286Y281560D01*
X284313Y281562D01*
X284340Y281560D01*
X284514Y281582D01*
X284687Y281600D01*
X284713Y281607D01*
X284739Y281611D01*
X284905Y281667D01*
X285072Y281718D01*
X285095Y281730D01*
X285121Y281739D01*
X285272Y281826D01*
X285426Y281910D01*
X285446Y281927D01*
X285470Y281940D01*
X285723Y282155D01*
X287523Y283955D01*
X287543Y283979D01*
X287566Y284000D01*
X287670Y284135D01*
X287778Y284266D01*
X287793Y284294D01*
X287812Y284319D01*
X287963Y284614D01*
X288543Y286013D01*
X290250Y287720D01*
X292480Y288644D01*
X294895Y288644D01*
X297125Y287720D01*
X298832Y286013D01*
X299756Y283782D01*
X299756Y281368D01*
X298832Y279137D01*
X297125Y277430D01*
X296622Y277222D01*
X295726Y276851D01*
X295699Y276836D01*
X295669Y276826D01*
X295522Y276741D01*
X295372Y276661D01*
X295347Y276641D01*
X295320Y276625D01*
X295067Y276411D01*
X292146Y273489D01*
X290359Y271702D01*
X288399Y270890D01*
X247831Y270890D01*
X247738Y270881D01*
X247644Y270882D01*
X247538Y270861D01*
X247430Y270850D01*
X247341Y270823D01*
X247249Y270805D01*
X247149Y270764D01*
X247045Y270732D01*
X246963Y270688D01*
X246876Y270652D01*
X246786Y270592D01*
X246691Y270540D01*
X246619Y270481D01*
X246542Y270429D01*
X246465Y270352D01*
X246382Y270283D01*
X246323Y270210D01*
X246257Y270144D01*
X246197Y270053D01*
X246130Y269969D01*
X246086Y269886D01*
X246035Y269808D01*
X245994Y269708D01*
X245944Y269612D01*
X245918Y269522D01*
X245883Y269435D01*
X245863Y269329D01*
X245833Y269225D01*
X245825Y269131D01*
X245808Y269040D01*
X245807Y268906D01*
X245800Y268823D01*
X245806Y268774D01*
X245805Y268708D01*
X245851Y268092D01*
X245864Y268017D01*
X245868Y267940D01*
X245899Y267819D01*
X245921Y267696D01*
X245949Y267624D01*
X245967Y267550D01*
X246021Y267437D01*
X246062Y267333D01*
X245996Y266455D01*
X245998Y266387D01*
X245996Y266151D01*
X246062Y265266D01*
X246035Y265221D01*
X245994Y265103D01*
X245943Y264988D01*
X245927Y264914D01*
X245902Y264842D01*
X245876Y264680D01*
X245858Y264595D01*
X245857Y264559D01*
X245850Y264514D01*
X245785Y263649D01*
X245787Y263573D01*
X245779Y263497D01*
X245791Y263372D01*
X245795Y263247D01*
X245811Y263172D01*
X245819Y263096D01*
X245856Y262976D01*
X245880Y262868D01*
X245684Y262009D01*
X245676Y261942D01*
X245639Y261708D01*
X245572Y260823D01*
X245539Y260783D01*
X245480Y260673D01*
X245414Y260567D01*
X245386Y260495D01*
X245350Y260427D01*
X245301Y260272D01*
X245270Y260190D01*
X245264Y260155D01*
X245250Y260111D01*
X245057Y259266D01*
X245048Y259190D01*
X245029Y259116D01*
X245022Y258991D01*
X245007Y258867D01*
X245012Y258790D01*
X245009Y258714D01*
X245027Y258590D01*
X245035Y258479D01*
X244713Y257658D01*
X244695Y257594D01*
X244623Y257368D01*
X244426Y256503D01*
X244387Y256468D01*
X244312Y256368D01*
X244231Y256273D01*
X244193Y256206D01*
X244147Y256145D01*
X244076Y255998D01*
X244033Y255922D01*
X244022Y255888D01*
X244001Y255847D01*
X243684Y255040D01*
X243664Y254966D01*
X243634Y254896D01*
X243609Y254773D01*
X243575Y254653D01*
X243569Y254576D01*
X243554Y254501D01*
X243554Y254376D01*
X243545Y254265D01*
X243105Y253502D01*
X243077Y253441D01*
X242973Y253228D01*
X242648Y252402D01*
X242605Y252374D01*
X242516Y252285D01*
X242421Y252204D01*
X242374Y252143D01*
X242320Y252089D01*
X242227Y251955D01*
X242173Y251886D01*
X242157Y251854D01*
X242131Y251816D01*
X241697Y251066D01*
X241666Y250996D01*
X241626Y250931D01*
X241583Y250813D01*
X241531Y250699D01*
X241514Y250625D01*
X241488Y250553D01*
X241469Y250429D01*
X241444Y250320D01*
X240894Y249631D01*
X240858Y249575D01*
X240723Y249380D01*
X240279Y248612D01*
X240232Y248590D01*
X240131Y248516D01*
X240025Y248449D01*
X239969Y248397D01*
X239908Y248351D01*
X239796Y248233D01*
X239732Y248173D01*
X239712Y248143D01*
X239680Y248110D01*
X239140Y247432D01*
X239098Y247368D01*
X239049Y247309D01*
X238989Y247200D01*
X238921Y247094D01*
X238893Y247023D01*
X238856Y246956D01*
X238819Y246836D01*
X238778Y246732D01*
X238132Y246133D01*
X238088Y246083D01*
X237925Y245911D01*
X237372Y245217D01*
X237322Y245203D01*
X237211Y245144D01*
X237096Y245094D01*
X237033Y245051D01*
X236966Y245015D01*
X236837Y244914D01*
X236766Y244864D01*
X236741Y244838D01*
X236705Y244810D01*
X236069Y244220D01*
X236018Y244163D01*
X235961Y244112D01*
X235886Y244013D01*
X235802Y243919D01*
X235764Y243852D01*
X235718Y243792D01*
X235663Y243679D01*
X235607Y243582D01*
X234879Y243086D01*
X234828Y243043D01*
X234642Y242897D01*
X233991Y242293D01*
X233937Y242286D01*
X233820Y242245D01*
X233700Y242213D01*
X233630Y242179D01*
X233557Y242153D01*
X233425Y242078D01*
X233360Y242047D01*
X233353Y242042D01*
X233339Y242035D01*
X233310Y242012D01*
X233268Y241989D01*
X233260Y241983D01*
X233151Y241892D01*
X233037Y241807D01*
X233024Y241792D01*
X233020Y241789D01*
X232997Y241762D01*
X232952Y241724D01*
X232863Y241613D01*
X232768Y241507D01*
X232738Y241456D01*
X232701Y241409D01*
X232636Y241283D01*
X232563Y241160D01*
X232544Y241104D01*
X232517Y241051D01*
X232478Y240914D01*
X232431Y240780D01*
X232423Y240721D01*
X232407Y240664D01*
X232396Y240522D01*
X232376Y240381D01*
X232380Y240322D01*
X232376Y240263D01*
X232393Y240121D01*
X232401Y239979D01*
X232417Y239922D01*
X232424Y239863D01*
X232469Y239728D01*
X232505Y239590D01*
X232534Y239529D01*
X232550Y239481D01*
X232591Y239409D01*
X232647Y239290D01*
X250389Y208560D01*
X249762Y208264D01*
X249739Y208247D01*
X249712Y208237D01*
X249660Y208188D01*
X249602Y208145D01*
X249588Y208120D01*
X249567Y208100D01*
X249538Y208035D01*
X249502Y207973D01*
X249499Y207945D01*
X249487Y207918D01*
X249486Y207846D01*
X249477Y207776D01*
X249485Y207748D01*
X249485Y207719D01*
X249520Y207625D01*
X249531Y207584D01*
X249538Y207576D01*
X249542Y207563D01*
X259042Y191063D01*
X259094Y191005D01*
X259140Y190942D01*
X259159Y190931D01*
X259174Y190914D01*
X259244Y190881D01*
X259311Y190841D01*
X259336Y190837D01*
X259353Y190828D01*
X259398Y190826D01*
X259475Y190813D01*
X278475Y190813D01*
X278503Y190819D01*
G37*
%LPC*%
G36*
X285335Y225196D02*
X285335Y225196D01*
X283996Y226535D01*
X283996Y229609D01*
X283994Y229627D01*
X283995Y229645D01*
X283974Y229827D01*
X283956Y230010D01*
X283951Y230027D01*
X283949Y230044D01*
X283892Y230219D01*
X283838Y230395D01*
X283829Y230410D01*
X283824Y230427D01*
X283733Y230587D01*
X283646Y230749D01*
X283635Y230762D01*
X283626Y230778D01*
X283506Y230917D01*
X283388Y231058D01*
X283374Y231069D01*
X283363Y231083D01*
X283218Y231195D01*
X283074Y231310D01*
X283059Y231318D01*
X283045Y231329D01*
X282880Y231411D01*
X282717Y231496D01*
X282700Y231501D01*
X282684Y231509D01*
X282506Y231556D01*
X282330Y231607D01*
X282312Y231609D01*
X282295Y231613D01*
X281965Y231640D01*
X272171Y231640D01*
X272144Y231638D01*
X272117Y231640D01*
X271944Y231618D01*
X271770Y231600D01*
X271744Y231592D01*
X271718Y231589D01*
X271552Y231534D01*
X271385Y231482D01*
X271361Y231469D01*
X271336Y231461D01*
X271184Y231374D01*
X271031Y231290D01*
X271010Y231273D01*
X270987Y231260D01*
X270734Y231045D01*
X270377Y230688D01*
X260483Y230688D01*
X259143Y232028D01*
X259143Y241922D01*
X260260Y243039D01*
X260271Y243052D01*
X260285Y243064D01*
X260399Y243208D01*
X260515Y243350D01*
X260523Y243366D01*
X260534Y243380D01*
X260618Y243544D01*
X260703Y243706D01*
X260709Y243723D01*
X260717Y243739D01*
X260766Y243916D01*
X260818Y244092D01*
X260820Y244110D01*
X260825Y244127D01*
X260838Y244310D01*
X260855Y244493D01*
X260853Y244511D01*
X260854Y244528D01*
X260831Y244710D01*
X260811Y244893D01*
X260806Y244910D01*
X260804Y244928D01*
X260745Y245101D01*
X260690Y245277D01*
X260681Y245293D01*
X260675Y245309D01*
X260584Y245468D01*
X260495Y245629D01*
X260483Y245643D01*
X260474Y245658D01*
X260260Y245911D01*
X259143Y247028D01*
X259143Y256922D01*
X260483Y258262D01*
X264768Y258262D01*
X264794Y258264D01*
X264821Y258262D01*
X264995Y258284D01*
X265168Y258302D01*
X265194Y258309D01*
X265220Y258313D01*
X265386Y258368D01*
X265553Y258420D01*
X265577Y258433D01*
X265602Y258441D01*
X265754Y258528D01*
X265907Y258612D01*
X265928Y258629D01*
X265951Y258642D01*
X266204Y258857D01*
X266596Y259249D01*
X266615Y259256D01*
X266615Y259257D01*
X268183Y259906D01*
X274295Y259906D01*
X274321Y259909D01*
X274348Y259907D01*
X274522Y259929D01*
X274696Y259946D01*
X274721Y259954D01*
X274748Y259957D01*
X274913Y260013D01*
X275080Y260064D01*
X275104Y260077D01*
X275129Y260086D01*
X275281Y260173D01*
X275434Y260256D01*
X275455Y260273D01*
X275478Y260286D01*
X275731Y260501D01*
X275962Y260732D01*
X278193Y261656D01*
X280607Y261656D01*
X282838Y260732D01*
X284292Y259278D01*
X284303Y259269D01*
X284311Y259259D01*
X284458Y259142D01*
X284604Y259023D01*
X284616Y259016D01*
X284626Y259008D01*
X284794Y258922D01*
X284959Y258834D01*
X284972Y258830D01*
X284984Y258824D01*
X285165Y258773D01*
X285345Y258719D01*
X285359Y258718D01*
X285372Y258714D01*
X285557Y258700D01*
X285746Y258683D01*
X285760Y258684D01*
X285773Y258683D01*
X285957Y258706D01*
X286147Y258726D01*
X286159Y258730D01*
X286173Y258732D01*
X286350Y258791D01*
X286530Y258848D01*
X286542Y258854D01*
X286555Y258858D01*
X286719Y258952D01*
X286883Y259043D01*
X286893Y259051D01*
X286905Y259058D01*
X287047Y259182D01*
X287190Y259303D01*
X287198Y259314D01*
X287208Y259322D01*
X287323Y259472D01*
X287439Y259619D01*
X287445Y259631D01*
X287454Y259642D01*
X287605Y259937D01*
X288543Y262200D01*
X290250Y263907D01*
X292480Y264831D01*
X294895Y264831D01*
X297125Y263907D01*
X298832Y262200D01*
X299756Y259970D01*
X299756Y257555D01*
X299598Y257174D01*
X299592Y257152D01*
X299582Y257132D01*
X299534Y256960D01*
X299482Y256789D01*
X299480Y256766D01*
X299474Y256745D01*
X299461Y256566D01*
X299444Y256388D01*
X299446Y256365D01*
X299444Y256343D01*
X299467Y256166D01*
X299485Y255987D01*
X299492Y255966D01*
X299495Y255944D01*
X299552Y255774D01*
X299569Y255718D01*
X299569Y243535D01*
X298453Y242419D01*
X298441Y242405D01*
X298428Y242393D01*
X298314Y242249D01*
X298198Y242107D01*
X298189Y242092D01*
X298178Y242078D01*
X298095Y241913D01*
X298009Y241752D01*
X298004Y241735D01*
X297996Y241719D01*
X297946Y241541D01*
X297894Y241366D01*
X297893Y241348D01*
X297888Y241331D01*
X297874Y241148D01*
X297858Y240965D01*
X297860Y240947D01*
X297858Y240929D01*
X297881Y240747D01*
X297901Y240564D01*
X297907Y240547D01*
X297909Y240530D01*
X297967Y240356D01*
X298023Y240181D01*
X298031Y240165D01*
X298037Y240148D01*
X298129Y239989D01*
X298218Y239828D01*
X298229Y239815D01*
X298238Y239799D01*
X298453Y239546D01*
X299569Y238430D01*
X299569Y226535D01*
X298230Y225196D01*
X285335Y225196D01*
G37*
%LPD*%
G36*
X478016Y388880D02*
X478016Y388880D01*
X478059Y388879D01*
X482052Y389479D01*
X482082Y389490D01*
X482125Y389496D01*
X485984Y390685D01*
X486012Y390700D01*
X486053Y390712D01*
X489691Y392463D01*
X489713Y392479D01*
X489739Y392489D01*
X489792Y392539D01*
X489850Y392583D01*
X489863Y392606D01*
X489883Y392625D01*
X489913Y392692D01*
X489949Y392755D01*
X489952Y392782D01*
X489963Y392807D01*
X489964Y392880D01*
X489973Y392953D01*
X489965Y392979D01*
X489965Y393006D01*
X489929Y393105D01*
X489917Y393144D01*
X489911Y393151D01*
X489907Y393162D01*
X462907Y439962D01*
X462889Y439982D01*
X462878Y440007D01*
X462824Y440056D01*
X462776Y440111D01*
X462751Y440123D01*
X462731Y440141D01*
X462662Y440165D01*
X462596Y440197D01*
X462569Y440198D01*
X462544Y440207D01*
X462471Y440202D01*
X462398Y440206D01*
X462372Y440196D01*
X462345Y440195D01*
X462249Y440151D01*
X462211Y440136D01*
X462204Y440130D01*
X462194Y440125D01*
X458857Y437852D01*
X458835Y437829D01*
X458799Y437805D01*
X455838Y435060D01*
X455819Y435034D01*
X455787Y435005D01*
X453269Y431849D01*
X453254Y431821D01*
X453227Y431788D01*
X451207Y428291D01*
X451197Y428261D01*
X451174Y428224D01*
X449698Y424466D01*
X449693Y424435D01*
X449676Y424395D01*
X448776Y420459D01*
X448776Y420427D01*
X448765Y420385D01*
X448462Y416359D01*
X448465Y416335D01*
X448462Y416315D01*
X448464Y416306D01*
X448462Y416284D01*
X448763Y412258D01*
X448771Y412227D01*
X448774Y412184D01*
X449671Y408247D01*
X449684Y408218D01*
X449693Y408176D01*
X451167Y404417D01*
X451184Y404390D01*
X451199Y404349D01*
X453217Y400852D01*
X453238Y400828D01*
X453259Y400790D01*
X455775Y397633D01*
X455800Y397612D01*
X455826Y397578D01*
X458785Y394831D01*
X458812Y394814D01*
X458843Y394784D01*
X462179Y392509D01*
X462208Y392496D01*
X462243Y392471D01*
X465881Y390718D01*
X465911Y390711D01*
X465950Y390691D01*
X469808Y389500D01*
X469840Y389497D01*
X469881Y389483D01*
X473873Y388880D01*
X473905Y388882D01*
X473947Y388874D01*
X477985Y388873D01*
X478016Y388880D01*
G37*
G36*
X218203Y388874D02*
X218203Y388874D01*
X218234Y388881D01*
X218277Y388880D01*
X222269Y389483D01*
X222299Y389494D01*
X222342Y389500D01*
X226200Y390691D01*
X226228Y390706D01*
X226270Y390718D01*
X229907Y392471D01*
X229932Y392491D01*
X229971Y392509D01*
X233307Y394784D01*
X233329Y394807D01*
X233365Y394831D01*
X236324Y397578D01*
X236343Y397604D01*
X236375Y397633D01*
X238891Y400790D01*
X238906Y400819D01*
X238933Y400852D01*
X240951Y404349D01*
X240961Y404380D01*
X240983Y404417D01*
X242457Y408176D01*
X242463Y408207D01*
X242479Y408247D01*
X243376Y412184D01*
X243377Y412216D01*
X243387Y412258D01*
X243688Y416284D01*
X243684Y416316D01*
X243685Y416332D01*
X243688Y416348D01*
X243687Y416352D01*
X243688Y416359D01*
X243385Y420385D01*
X243376Y420416D01*
X243374Y420459D01*
X242474Y424395D01*
X242461Y424424D01*
X242452Y424466D01*
X240976Y428224D01*
X240958Y428251D01*
X240943Y428291D01*
X238923Y431788D01*
X238902Y431811D01*
X238881Y431849D01*
X236363Y435005D01*
X236338Y435026D01*
X236312Y435060D01*
X233351Y437805D01*
X233324Y437822D01*
X233293Y437852D01*
X229956Y440125D01*
X229931Y440136D01*
X229910Y440153D01*
X229840Y440174D01*
X229773Y440202D01*
X229745Y440202D01*
X229719Y440210D01*
X229647Y440202D01*
X229574Y440201D01*
X229549Y440191D01*
X229522Y440188D01*
X229458Y440152D01*
X229391Y440123D01*
X229372Y440104D01*
X229349Y440090D01*
X229282Y440009D01*
X229253Y439980D01*
X229250Y439971D01*
X229243Y439962D01*
X202243Y393162D01*
X202234Y393136D01*
X202218Y393114D01*
X202203Y393043D01*
X202179Y392973D01*
X202182Y392946D01*
X202176Y392920D01*
X202189Y392848D01*
X202195Y392775D01*
X202208Y392751D01*
X202213Y392724D01*
X202253Y392664D01*
X202287Y392599D01*
X202308Y392581D01*
X202323Y392559D01*
X202409Y392498D01*
X202440Y392472D01*
X202449Y392469D01*
X202459Y392463D01*
X206097Y390712D01*
X206128Y390704D01*
X206166Y390685D01*
X210025Y389496D01*
X210057Y389493D01*
X210098Y389479D01*
X214091Y388879D01*
X214122Y388880D01*
X214165Y388873D01*
X218203Y388874D01*
G37*
G36*
X462503Y242423D02*
X462503Y242423D01*
X462576Y242424D01*
X462601Y242434D01*
X462628Y242437D01*
X462692Y242473D01*
X462759Y242502D01*
X462778Y242521D01*
X462801Y242535D01*
X462869Y242616D01*
X462897Y242645D01*
X462900Y242654D01*
X462907Y242663D01*
X489907Y289463D01*
X489916Y289489D01*
X489932Y289511D01*
X489947Y289582D01*
X489971Y289652D01*
X489968Y289679D01*
X489974Y289705D01*
X489961Y289777D01*
X489955Y289850D01*
X489942Y289874D01*
X489937Y289901D01*
X489897Y289962D01*
X489863Y290026D01*
X489842Y290044D01*
X489827Y290066D01*
X489741Y290127D01*
X489710Y290153D01*
X489701Y290156D01*
X489691Y290162D01*
X486053Y291913D01*
X486022Y291921D01*
X485984Y291940D01*
X482125Y293129D01*
X482093Y293132D01*
X482052Y293146D01*
X478059Y293746D01*
X478028Y293745D01*
X477985Y293752D01*
X473947Y293751D01*
X473916Y293744D01*
X473873Y293745D01*
X469881Y293142D01*
X469851Y293131D01*
X469808Y293125D01*
X465950Y291934D01*
X465922Y291919D01*
X465881Y291907D01*
X462243Y290154D01*
X462218Y290134D01*
X462179Y290116D01*
X458843Y287841D01*
X458821Y287818D01*
X458785Y287794D01*
X455826Y285047D01*
X455807Y285021D01*
X455775Y284992D01*
X453259Y281835D01*
X453244Y281806D01*
X453217Y281773D01*
X451199Y278276D01*
X451189Y278245D01*
X451167Y278208D01*
X449693Y274449D01*
X449687Y274418D01*
X449671Y274378D01*
X448774Y270441D01*
X448773Y270409D01*
X448763Y270367D01*
X448462Y266341D01*
X448466Y266309D01*
X448462Y266266D01*
X448765Y262240D01*
X448774Y262209D01*
X448776Y262166D01*
X449676Y258230D01*
X449689Y258201D01*
X449698Y258159D01*
X451174Y254401D01*
X451192Y254374D01*
X451207Y254334D01*
X453227Y250838D01*
X453248Y250814D01*
X453269Y250776D01*
X455787Y247620D01*
X455812Y247600D01*
X455838Y247565D01*
X458799Y244820D01*
X458826Y244803D01*
X458857Y244773D01*
X462194Y242500D01*
X462219Y242489D01*
X462240Y242472D01*
X462310Y242451D01*
X462377Y242423D01*
X462405Y242423D01*
X462431Y242415D01*
X462503Y242423D01*
G37*
G36*
X229679Y242423D02*
X229679Y242423D01*
X229752Y242419D01*
X229778Y242429D01*
X229805Y242430D01*
X229901Y242474D01*
X229939Y242489D01*
X229946Y242495D01*
X229956Y242500D01*
X233293Y244773D01*
X233315Y244796D01*
X233351Y244820D01*
X236312Y247565D01*
X236331Y247591D01*
X236363Y247620D01*
X238881Y250776D01*
X238896Y250804D01*
X238923Y250838D01*
X240943Y254334D01*
X240953Y254364D01*
X240976Y254401D01*
X242452Y258159D01*
X242457Y258190D01*
X242474Y258230D01*
X243374Y262166D01*
X243374Y262198D01*
X243385Y262240D01*
X243688Y266266D01*
X243684Y266298D01*
X243688Y266341D01*
X243387Y270367D01*
X243379Y270398D01*
X243376Y270441D01*
X242479Y274378D01*
X242466Y274407D01*
X242457Y274449D01*
X240983Y278208D01*
X240966Y278235D01*
X240951Y278276D01*
X238933Y281773D01*
X238912Y281797D01*
X238891Y281835D01*
X236375Y284992D01*
X236350Y285013D01*
X236324Y285047D01*
X233365Y287794D01*
X233338Y287811D01*
X233307Y287841D01*
X229971Y290116D01*
X229942Y290129D01*
X229907Y290154D01*
X226270Y291907D01*
X226239Y291914D01*
X226200Y291934D01*
X222342Y293125D01*
X222310Y293128D01*
X222269Y293142D01*
X218277Y293745D01*
X218245Y293743D01*
X218203Y293751D01*
X214165Y293752D01*
X214134Y293746D01*
X214091Y293746D01*
X210098Y293146D01*
X210068Y293135D01*
X210025Y293129D01*
X206166Y291940D01*
X206138Y291925D01*
X206097Y291913D01*
X202459Y290162D01*
X202437Y290146D01*
X202411Y290136D01*
X202358Y290086D01*
X202300Y290042D01*
X202287Y290019D01*
X202267Y290000D01*
X202237Y289933D01*
X202201Y289870D01*
X202198Y289843D01*
X202187Y289818D01*
X202186Y289745D01*
X202177Y289672D01*
X202185Y289646D01*
X202185Y289619D01*
X202221Y289520D01*
X202233Y289481D01*
X202239Y289474D01*
X202243Y289463D01*
X229243Y242663D01*
X229261Y242643D01*
X229272Y242618D01*
X229326Y242569D01*
X229374Y242514D01*
X229399Y242502D01*
X229419Y242484D01*
X229488Y242460D01*
X229554Y242428D01*
X229581Y242427D01*
X229606Y242418D01*
X229679Y242423D01*
G37*
G36*
X348124Y463895D02*
X348124Y463895D01*
X348167Y463894D01*
X352157Y464496D01*
X352187Y464507D01*
X352230Y464512D01*
X356086Y465702D01*
X356114Y465717D01*
X356156Y465729D01*
X359792Y467480D01*
X359817Y467499D01*
X359856Y467517D01*
X363190Y469791D01*
X363213Y469813D01*
X363249Y469837D01*
X366207Y472582D01*
X366226Y472608D01*
X366258Y472637D01*
X368774Y475792D01*
X368788Y475820D01*
X368816Y475853D01*
X370834Y479348D01*
X370844Y479378D01*
X370866Y479415D01*
X372340Y483172D01*
X372341Y483178D01*
X372343Y483180D01*
X372347Y483206D01*
X372362Y483243D01*
X373260Y487177D01*
X373261Y487209D01*
X373271Y487251D01*
X373573Y491275D01*
X373569Y491302D01*
X373574Y491329D01*
X373557Y491400D01*
X373548Y491472D01*
X373534Y491496D01*
X373528Y491522D01*
X373485Y491581D01*
X373448Y491644D01*
X373426Y491661D01*
X373410Y491683D01*
X373347Y491720D01*
X373289Y491764D01*
X373262Y491770D01*
X373239Y491784D01*
X373135Y491802D01*
X373096Y491811D01*
X373086Y491810D01*
X373075Y491812D01*
X319075Y491812D01*
X319048Y491806D01*
X319021Y491809D01*
X318952Y491787D01*
X318880Y491772D01*
X318858Y491757D01*
X318832Y491749D01*
X318776Y491701D01*
X318716Y491660D01*
X318702Y491637D01*
X318681Y491619D01*
X318649Y491554D01*
X318609Y491492D01*
X318605Y491465D01*
X318593Y491441D01*
X318583Y491336D01*
X318576Y491296D01*
X318578Y491287D01*
X318577Y491275D01*
X318879Y487251D01*
X318887Y487220D01*
X318890Y487177D01*
X319788Y483243D01*
X319801Y483214D01*
X319810Y483172D01*
X321284Y479415D01*
X321301Y479388D01*
X321316Y479348D01*
X323334Y475853D01*
X323355Y475829D01*
X323376Y475792D01*
X325892Y472637D01*
X325917Y472616D01*
X325943Y472582D01*
X328901Y469837D01*
X328928Y469821D01*
X328960Y469791D01*
X332294Y467517D01*
X332323Y467505D01*
X332358Y467480D01*
X335994Y465729D01*
X336025Y465721D01*
X336064Y465702D01*
X339920Y464512D01*
X339951Y464509D01*
X339993Y464496D01*
X343983Y463894D01*
X344015Y463896D01*
X344057Y463889D01*
X348093Y463889D01*
X348124Y463895D01*
G37*
G36*
X373102Y190819D02*
X373102Y190819D01*
X373129Y190816D01*
X373198Y190838D01*
X373270Y190853D01*
X373292Y190868D01*
X373318Y190877D01*
X373374Y190924D01*
X373434Y190965D01*
X373448Y190988D01*
X373469Y191006D01*
X373502Y191071D01*
X373541Y191133D01*
X373545Y191160D01*
X373557Y191184D01*
X373567Y191289D01*
X373574Y191329D01*
X373572Y191338D01*
X373573Y191350D01*
X373271Y195374D01*
X373263Y195405D01*
X373260Y195448D01*
X372362Y199382D01*
X372349Y199411D01*
X372340Y199453D01*
X370866Y203210D01*
X370849Y203237D01*
X370834Y203277D01*
X368816Y206772D01*
X368795Y206796D01*
X368774Y206833D01*
X366258Y209988D01*
X366233Y210009D01*
X366207Y210043D01*
X363249Y212788D01*
X363222Y212804D01*
X363190Y212834D01*
X359856Y215108D01*
X359827Y215120D01*
X359792Y215145D01*
X356156Y216896D01*
X356125Y216904D01*
X356086Y216923D01*
X352230Y218113D01*
X352199Y218116D01*
X352157Y218129D01*
X348167Y218731D01*
X348135Y218729D01*
X348093Y218736D01*
X344057Y218736D01*
X344026Y218730D01*
X343983Y218731D01*
X339993Y218129D01*
X339963Y218118D01*
X339920Y218113D01*
X336064Y216923D01*
X336036Y216908D01*
X335994Y216896D01*
X332358Y215145D01*
X332333Y215126D01*
X332294Y215108D01*
X328960Y212834D01*
X328937Y212812D01*
X328901Y212788D01*
X325943Y210043D01*
X325925Y210017D01*
X325892Y209988D01*
X323376Y206833D01*
X323362Y206805D01*
X323334Y206772D01*
X321316Y203277D01*
X321306Y203247D01*
X321284Y203210D01*
X319810Y199453D01*
X319804Y199422D01*
X319788Y199382D01*
X318890Y195448D01*
X318889Y195416D01*
X318879Y195374D01*
X318577Y191350D01*
X318581Y191323D01*
X318576Y191296D01*
X318593Y191225D01*
X318602Y191153D01*
X318616Y191129D01*
X318622Y191103D01*
X318665Y191044D01*
X318702Y190981D01*
X318724Y190964D01*
X318740Y190942D01*
X318803Y190905D01*
X318861Y190861D01*
X318888Y190855D01*
X318911Y190841D01*
X319015Y190823D01*
X319054Y190814D01*
X319064Y190815D01*
X319075Y190813D01*
X373075Y190813D01*
X373102Y190819D01*
G37*
%LPC*%
G36*
X257555Y389219D02*
X257555Y389219D01*
X255325Y390143D01*
X253618Y391850D01*
X252694Y394080D01*
X252694Y396495D01*
X253618Y398725D01*
X255325Y400432D01*
X256724Y401012D01*
X256751Y401026D01*
X256781Y401036D01*
X256928Y401121D01*
X257078Y401202D01*
X257102Y401222D01*
X257130Y401237D01*
X257383Y401452D01*
X271648Y415717D01*
X271668Y415742D01*
X271691Y415762D01*
X271795Y415897D01*
X271903Y416029D01*
X271918Y416057D01*
X271937Y416081D01*
X272088Y416376D01*
X272668Y417775D01*
X274375Y419482D01*
X276605Y420406D01*
X279020Y420406D01*
X281250Y419482D01*
X282957Y417775D01*
X283881Y415545D01*
X283881Y413130D01*
X282957Y410900D01*
X281250Y409193D01*
X279851Y408613D01*
X279824Y408599D01*
X279794Y408589D01*
X279647Y408504D01*
X279497Y408423D01*
X279473Y408403D01*
X279445Y408388D01*
X279192Y408173D01*
X264927Y393908D01*
X264907Y393883D01*
X264884Y393863D01*
X264780Y393728D01*
X264672Y393596D01*
X264657Y393568D01*
X264638Y393544D01*
X264487Y393249D01*
X263907Y391850D01*
X262200Y390143D01*
X259970Y389219D01*
X257555Y389219D01*
G37*
%LPD*%
%LPC*%
G36*
X394080Y428906D02*
X394080Y428906D01*
X391850Y429830D01*
X390143Y431537D01*
X389219Y433768D01*
X389219Y436182D01*
X390143Y438413D01*
X391850Y440120D01*
X393249Y440699D01*
X393276Y440714D01*
X393306Y440724D01*
X393453Y440809D01*
X393603Y440889D01*
X393627Y440909D01*
X393655Y440925D01*
X393908Y441140D01*
X395906Y443138D01*
X395923Y443159D01*
X395943Y443176D01*
X396050Y443314D01*
X396161Y443449D01*
X396173Y443473D01*
X396190Y443494D01*
X396268Y443651D01*
X396350Y443805D01*
X396357Y443831D01*
X396369Y443855D01*
X396414Y444023D01*
X396464Y444191D01*
X396467Y444218D01*
X396474Y444243D01*
X396501Y444574D01*
X396501Y451900D01*
X397840Y453239D01*
X409735Y453239D01*
X411074Y451900D01*
X411074Y439005D01*
X409735Y437666D01*
X406364Y437666D01*
X406338Y437663D01*
X406311Y437665D01*
X406137Y437643D01*
X405963Y437626D01*
X405938Y437618D01*
X405911Y437615D01*
X405746Y437559D01*
X405579Y437508D01*
X405555Y437495D01*
X405530Y437486D01*
X405378Y437399D01*
X405225Y437316D01*
X405204Y437299D01*
X405181Y437286D01*
X404928Y437071D01*
X401452Y433595D01*
X401432Y433571D01*
X401409Y433550D01*
X401305Y433416D01*
X401197Y433284D01*
X401182Y433256D01*
X401163Y433231D01*
X401012Y432936D01*
X400432Y431537D01*
X398725Y429830D01*
X396495Y428906D01*
X394080Y428906D01*
G37*
%LPD*%
%LPC*%
G36*
X240917Y315531D02*
X240917Y315531D01*
X237276Y317039D01*
X234489Y319826D01*
X232981Y323467D01*
X232981Y327408D01*
X234489Y331049D01*
X237276Y333836D01*
X240917Y335344D01*
X244858Y335344D01*
X248499Y333836D01*
X251286Y331049D01*
X252794Y327408D01*
X252794Y323467D01*
X251286Y319826D01*
X248499Y317039D01*
X244858Y315531D01*
X240917Y315531D01*
G37*
%LPD*%
%LPC*%
G36*
X240917Y340931D02*
X240917Y340931D01*
X237276Y342439D01*
X234489Y345226D01*
X232981Y348867D01*
X232981Y352808D01*
X234489Y356449D01*
X237276Y359236D01*
X240917Y360744D01*
X244858Y360744D01*
X248499Y359236D01*
X251286Y356449D01*
X252794Y352808D01*
X252794Y348867D01*
X251286Y345226D01*
X248499Y342439D01*
X247975Y342222D01*
X244858Y340931D01*
X240917Y340931D01*
G37*
%LPD*%
%LPC*%
G36*
X240917Y366331D02*
X240917Y366331D01*
X237276Y367839D01*
X234489Y370626D01*
X232981Y374267D01*
X232981Y378208D01*
X234489Y381849D01*
X237276Y384636D01*
X238623Y385194D01*
X240917Y386144D01*
X244858Y386144D01*
X248499Y384636D01*
X251286Y381849D01*
X252794Y378208D01*
X252794Y374267D01*
X251286Y370626D01*
X248499Y367839D01*
X245500Y366597D01*
X244858Y366331D01*
X240917Y366331D01*
G37*
%LPD*%
%LPC*%
G36*
X357666Y364488D02*
X357666Y364488D01*
X354697Y365718D01*
X352425Y367990D01*
X351196Y370958D01*
X351196Y374172D01*
X352425Y377140D01*
X354697Y379412D01*
X357666Y380642D01*
X360879Y380642D01*
X363848Y379412D01*
X366120Y377140D01*
X367349Y374172D01*
X367349Y370958D01*
X366120Y367990D01*
X363848Y365718D01*
X361066Y364565D01*
X361065Y364565D01*
X360879Y364488D01*
X357666Y364488D01*
G37*
%LPD*%
D10*
X265430Y236975D03*
X265430Y251975D03*
D11*
X291783Y232483D03*
X291783Y249483D03*
D12*
X428308Y382588D03*
D13*
X386788Y445453D03*
X403788Y445453D03*
D14*
X428675Y484413D03*
X511275Y341313D03*
X428675Y198213D03*
X263475Y198213D03*
X180875Y341313D03*
X263475Y484413D03*
X469975Y412813D03*
X469975Y269813D03*
X346075Y198213D03*
X222175Y269813D03*
X222175Y412813D03*
X346075Y484413D03*
D11*
X314325Y223275D03*
X314325Y240275D03*
D15*
X359273Y408485D03*
D16*
X323353Y372565D03*
D15*
X359273Y372565D03*
D17*
X411813Y285488D03*
X411813Y295188D03*
X411813Y304888D03*
X411813Y314588D03*
X397813Y285488D03*
X397813Y295188D03*
X397813Y304888D03*
X397813Y314588D03*
D18*
X430435Y336075D03*
D19*
X433525Y346075D02*
X427345Y346075D01*
X427345Y356075D02*
X433525Y356075D01*
X404505Y356075D02*
X398325Y356075D01*
X398325Y346075D02*
X404505Y346075D01*
X404505Y336075D02*
X398325Y336075D01*
D20*
X415925Y346075D03*
D21*
X471488Y323825D03*
X471488Y304825D03*
D13*
X471488Y365688D03*
X471488Y348688D03*
D21*
X342900Y271488D03*
X342900Y290488D03*
X374650Y271488D03*
X374650Y290488D03*
D11*
X314325Y273613D03*
X314325Y256613D03*
D13*
X380438Y233363D03*
X397438Y233363D03*
D22*
X360388Y311150D03*
X379388Y311150D03*
D23*
X242888Y376238D03*
X242888Y350838D03*
X242888Y325438D03*
D24*
X314325Y292388D03*
X314325Y320388D03*
D25*
X279400Y255588D03*
X417513Y400050D03*
X485775Y381000D03*
X492125Y314325D03*
X449263Y233363D03*
D26*
X435321Y247305D01*
X435321Y274983D01*
D27*
X397813Y295188D02*
X397110Y294485D01*
D28*
X391647Y294485D01*
X387649Y290488D01*
X377825Y290488D01*
D27*
X374650Y290488D01*
D25*
X361950Y290513D03*
X258763Y395288D03*
D26*
X277813Y414338D01*
D25*
X277813Y414338D03*
X250825Y287338D03*
D26*
X238125Y300038D01*
D25*
X238125Y300038D03*
D26*
X379388Y292050D02*
X379388Y311150D01*
D27*
X379388Y292050D02*
X377825Y290488D01*
D26*
X342925Y290513D02*
X342900Y290488D01*
X342925Y290513D02*
X361950Y290513D01*
X374625Y290513D01*
X374650Y290488D01*
D28*
X269043Y255588D02*
X265430Y251975D01*
X269043Y255588D02*
X279400Y255588D01*
D26*
X471488Y304825D02*
X482625Y304825D01*
X492125Y314325D01*
X485775Y381000D02*
X458788Y381000D01*
X446088Y393700D02*
X438150Y393700D01*
X431800Y400050D02*
X417513Y400050D01*
X446088Y393700D02*
X458788Y381000D01*
X438150Y393700D02*
X431800Y400050D01*
X485775Y381000D02*
X485775Y379975D01*
X471488Y365688D01*
D28*
X439738Y346075D02*
X430435Y346075D01*
X439738Y346075D02*
X447675Y338138D01*
X447675Y323850D01*
X466700Y304825D01*
X471488Y304825D01*
D26*
X465163Y304825D01*
X435321Y274983D01*
X409078Y408485D02*
X359273Y408485D01*
X409078Y408485D02*
X417513Y400050D01*
D28*
X398563Y285488D02*
X384563Y271488D01*
D27*
X374650Y271488D01*
X397813Y285488D02*
X398563Y285488D01*
D26*
X374650Y271488D02*
X342900Y271488D01*
D25*
X277813Y288925D03*
D26*
X471488Y323825D02*
X471488Y348688D01*
D27*
X469975Y412813D02*
X449325Y412813D01*
D26*
X441325Y404813D01*
D25*
X441325Y404813D03*
X444500Y254000D03*
D26*
X446088Y254000D02*
X461900Y269813D01*
D27*
X446088Y254000D02*
X444500Y254000D01*
X461900Y269813D02*
X469975Y269813D01*
D25*
X346075Y225425D03*
D29*
X338138Y217488D01*
X338138Y206150D01*
X346075Y198213D01*
D25*
X250825Y415925D03*
D27*
X225288Y415925D01*
X222175Y412813D01*
D25*
X293688Y282575D03*
D26*
X287338Y276225D01*
X238125Y276225D01*
D27*
X231713Y269813D02*
X222175Y269813D01*
X231713Y269813D02*
X238125Y276225D01*
D25*
X293688Y258763D03*
D27*
X293688Y251388D01*
X291783Y249483D01*
D26*
X287290Y236975D02*
X265430Y236975D01*
X287290Y236975D02*
X291783Y232483D01*
D25*
X358775Y452438D03*
D27*
X346075Y465138D01*
X346075Y484413D01*
D26*
X403788Y445453D02*
X403788Y443475D01*
X395288Y434975D01*
D25*
X395288Y434975D03*
D30*
X430435Y336075D02*
X430435Y328448D01*
X418500Y316513D01*
D27*
X413738Y316513D01*
X411813Y314588D01*
X416391Y312298D02*
X426560Y302128D01*
X414103Y312298D02*
X411813Y314588D01*
X414103Y312298D02*
X416391Y312298D01*
X426560Y302128D02*
X426560Y273598D01*
X397438Y238125D01*
X397438Y233363D01*
D25*
X390525Y215900D03*
D27*
X390525Y215338D01*
D26*
X397438Y222250D02*
X397438Y233363D01*
X397438Y222250D02*
X390525Y215338D01*
D25*
X349250Y249238D03*
D27*
X404813Y332678D02*
X401415Y336075D01*
X404813Y332678D02*
X404813Y309563D01*
X349250Y249238D02*
X322263Y249238D01*
X397813Y304888D02*
X400103Y307178D01*
X402391Y307178D01*
X404776Y309563D02*
X404813Y309563D01*
X404776Y309563D02*
X402391Y307178D01*
X402391Y302598D02*
X400103Y302598D01*
X402391Y302598D02*
X404813Y300176D01*
X404813Y268288D01*
X385763Y249238D01*
X349250Y249238D01*
X314888Y256613D02*
X314325Y256613D01*
X314888Y256613D02*
X322263Y249238D01*
X397813Y304888D02*
X400103Y302598D01*
X411813Y295188D02*
X411813Y285488D01*
X397813Y314588D02*
X385375Y327025D01*
X363538Y327025D01*
X360388Y323875D01*
X360388Y311150D01*
D26*
X351150Y320388D02*
X314325Y320388D01*
X351150Y320388D02*
X360388Y311150D01*
D25*
X338138Y241300D03*
D27*
X337113Y240275D01*
X314325Y240275D01*
X411813Y304888D02*
X414988Y304888D01*
X420688Y299188D01*
X420688Y276619D02*
X386956Y242888D01*
X353637Y242888D01*
X352049Y241300D02*
X338138Y241300D01*
X420688Y276619D02*
X420688Y299188D01*
X353637Y242888D02*
X352049Y241300D01*
M02*
