G04 EAGLE Gerber RS-274X export*
G75*
%MOMM*%
%FSLAX34Y34*%
%LPD*%
%INBottom Copper*%
%IPPOS*%
%AMOC8*
5,1,8,0,0,1.08239X$1,22.5*%
G01*
%ADD10R,1.000000X1.100000*%
%ADD11R,1.500000X1.300000*%
%ADD12R,1.399997X0.400000*%
%ADD13P,1.649562X8X22.500000*%
%ADD14R,1.100000X1.000000*%
%ADD15R,1.300000X1.500000*%
%ADD16C,1.000000*%
%ADD17C,1.158000*%
%ADD18R,1.158000X1.158000*%
%ADD19R,0.812800X0.254000*%
%ADD20R,0.254000X0.812800*%
%ADD21R,5.384800X5.384800*%
%ADD22C,1.524000*%
%ADD23C,0.355600*%
%ADD24C,0.756400*%
%ADD25C,0.254000*%
%ADD26C,0.609600*%
%ADD27C,0.304800*%
%ADD28C,0.406400*%
%ADD29C,0.177800*%

G36*
X278503Y190819D02*
X278503Y190819D01*
X278531Y190816D01*
X278599Y190839D01*
X278670Y190853D01*
X278693Y190869D01*
X278720Y190878D01*
X278775Y190925D01*
X278834Y190965D01*
X278849Y190989D01*
X278871Y191008D01*
X278902Y191072D01*
X278941Y191133D01*
X278946Y191161D01*
X278958Y191186D01*
X278967Y191288D01*
X278974Y191329D01*
X278972Y191339D01*
X278973Y191352D01*
X278916Y192067D01*
X314452Y192067D01*
X314595Y192081D01*
X314740Y192088D01*
X314796Y192101D01*
X314853Y192107D01*
X314990Y192149D01*
X315131Y192184D01*
X315183Y192208D01*
X315238Y192225D01*
X315365Y192294D01*
X315495Y192355D01*
X315541Y192390D01*
X315592Y192417D01*
X315703Y192509D01*
X315818Y192595D01*
X315857Y192638D01*
X315901Y192675D01*
X315991Y192787D01*
X316088Y192894D01*
X316117Y192944D01*
X316153Y192989D01*
X316220Y193116D01*
X316293Y193240D01*
X316312Y193295D01*
X316339Y193346D01*
X316379Y193484D01*
X316426Y193620D01*
X316437Y193685D01*
X316450Y193733D01*
X316457Y193816D01*
X316478Y193948D01*
X316479Y193965D01*
X316477Y194041D01*
X316485Y194117D01*
X316483Y194133D01*
X316483Y194134D01*
X316482Y194143D01*
X316472Y194242D01*
X316469Y194368D01*
X316452Y194442D01*
X316445Y194517D01*
X316408Y194637D01*
X316383Y194745D01*
X316579Y195605D01*
X316588Y195671D01*
X316602Y195762D01*
X316603Y195764D01*
X316603Y195767D01*
X316625Y195905D01*
X316691Y196790D01*
X316724Y196830D01*
X316783Y196941D01*
X316849Y197047D01*
X316877Y197118D01*
X316912Y197186D01*
X316962Y197341D01*
X316993Y197423D01*
X316999Y197459D01*
X317012Y197502D01*
X317205Y198345D01*
X317214Y198421D01*
X317233Y198495D01*
X317239Y198621D01*
X317255Y198745D01*
X317250Y198821D01*
X317253Y198897D01*
X317235Y199021D01*
X317227Y199133D01*
X317549Y199953D01*
X317567Y200018D01*
X317638Y200243D01*
X317835Y201108D01*
X317874Y201143D01*
X317949Y201244D01*
X318031Y201339D01*
X318068Y201405D01*
X318114Y201467D01*
X318185Y201613D01*
X318228Y201689D01*
X318239Y201723D01*
X318260Y201765D01*
X318576Y202570D01*
X318596Y202643D01*
X318626Y202714D01*
X318651Y202836D01*
X318685Y202957D01*
X318691Y203034D01*
X318706Y203108D01*
X318706Y203234D01*
X318714Y203345D01*
X319155Y204108D01*
X319183Y204169D01*
X319287Y204382D01*
X319611Y205208D01*
X319654Y205236D01*
X319743Y205325D01*
X319838Y205407D01*
X319885Y205467D01*
X319939Y205521D01*
X320032Y205655D01*
X320086Y205724D01*
X320102Y205756D01*
X320128Y205794D01*
X320560Y206543D01*
X320592Y206612D01*
X320632Y206678D01*
X320675Y206795D01*
X320726Y206909D01*
X320743Y206984D01*
X320770Y207056D01*
X320788Y207180D01*
X320813Y207288D01*
X321363Y207977D01*
X321399Y208034D01*
X321534Y208228D01*
X321977Y208997D01*
X322025Y209019D01*
X322126Y209093D01*
X322232Y209160D01*
X322287Y209212D01*
X322349Y209258D01*
X322461Y209377D01*
X322524Y209436D01*
X322545Y209466D01*
X322576Y209499D01*
X323115Y210175D01*
X323157Y210239D01*
X323206Y210298D01*
X323266Y210408D01*
X323334Y210513D01*
X323362Y210584D01*
X323399Y210652D01*
X323436Y210771D01*
X323477Y210875D01*
X324122Y211474D01*
X324167Y211525D01*
X324329Y211697D01*
X324631Y212076D01*
X324688Y212164D01*
X324754Y212247D01*
X324797Y212333D01*
X324850Y212414D01*
X324888Y212512D01*
X324936Y212606D01*
X324962Y212699D01*
X324997Y212788D01*
X325016Y212892D01*
X325044Y212994D01*
X325051Y213090D01*
X325068Y213185D01*
X325066Y213290D01*
X325073Y213395D01*
X325061Y213491D01*
X325059Y213587D01*
X325036Y213690D01*
X325023Y213795D01*
X324992Y213886D01*
X324971Y213980D01*
X324928Y214077D01*
X324895Y214176D01*
X324847Y214260D01*
X324808Y214348D01*
X324746Y214434D01*
X324694Y214525D01*
X324619Y214614D01*
X324575Y214676D01*
X324531Y214717D01*
X324479Y214778D01*
X320012Y219245D01*
X320012Y265742D01*
X321352Y267082D01*
X372237Y267082D01*
X372255Y267084D01*
X372273Y267082D01*
X372455Y267103D01*
X372638Y267122D01*
X372655Y267127D01*
X372672Y267129D01*
X372847Y267186D01*
X373023Y267240D01*
X373038Y267248D01*
X373055Y267254D01*
X373215Y267344D01*
X373377Y267432D01*
X373390Y267443D01*
X373406Y267452D01*
X373545Y267572D01*
X373686Y267689D01*
X373697Y267703D01*
X373711Y267715D01*
X373823Y267860D01*
X373938Y268003D01*
X373946Y268019D01*
X373957Y268033D01*
X374039Y268198D01*
X374124Y268360D01*
X374129Y268377D01*
X374137Y268393D01*
X374184Y268571D01*
X374235Y268747D01*
X374237Y268765D01*
X374241Y268782D01*
X374268Y269113D01*
X374268Y314996D01*
X375608Y316336D01*
X385630Y316336D01*
X385740Y316226D01*
X385747Y316221D01*
X385752Y316214D01*
X385901Y316094D01*
X386051Y315971D01*
X386059Y315967D01*
X386066Y315961D01*
X386235Y315874D01*
X386407Y315783D01*
X386416Y315780D01*
X386423Y315776D01*
X386607Y315723D01*
X386793Y315668D01*
X386802Y315667D01*
X386810Y315664D01*
X387001Y315649D01*
X387194Y315631D01*
X387203Y315632D01*
X387212Y315632D01*
X387401Y315654D01*
X387594Y315675D01*
X387603Y315677D01*
X387611Y315678D01*
X387794Y315738D01*
X387978Y315796D01*
X387986Y315801D01*
X387994Y315803D01*
X388163Y315898D01*
X388330Y315991D01*
X388337Y315997D01*
X388345Y316001D01*
X388490Y316127D01*
X388637Y316252D01*
X388643Y316259D01*
X388650Y316264D01*
X388767Y316416D01*
X388887Y316567D01*
X388891Y316575D01*
X388896Y316582D01*
X388983Y316756D01*
X389069Y316926D01*
X389072Y316935D01*
X389076Y316943D01*
X389126Y317131D01*
X389177Y317314D01*
X389178Y317323D01*
X389180Y317332D01*
X389207Y317663D01*
X389207Y335931D01*
X389204Y335962D01*
X389206Y335993D01*
X389184Y336163D01*
X389167Y336332D01*
X389158Y336362D01*
X389154Y336393D01*
X389053Y336709D01*
X388445Y338175D01*
X388445Y339893D01*
X389103Y341480D01*
X393438Y345816D01*
X393455Y345837D01*
X393476Y345854D01*
X393583Y345992D01*
X393693Y346127D01*
X393706Y346151D01*
X393722Y346172D01*
X393800Y346329D01*
X393882Y346483D01*
X393890Y346509D01*
X393902Y346533D01*
X393947Y346702D01*
X393997Y346869D01*
X393999Y346896D01*
X394006Y346922D01*
X394033Y347252D01*
X394033Y354037D01*
X394477Y354481D01*
X394489Y354495D01*
X394502Y354507D01*
X394616Y354651D01*
X394732Y354793D01*
X394741Y354808D01*
X394752Y354822D01*
X394835Y354987D01*
X394921Y355148D01*
X394926Y355165D01*
X394934Y355181D01*
X394984Y355359D01*
X395036Y355534D01*
X395037Y355552D01*
X395042Y355569D01*
X395056Y355752D01*
X395072Y355935D01*
X395070Y355953D01*
X395072Y355971D01*
X395049Y356153D01*
X395029Y356336D01*
X395023Y356353D01*
X395021Y356370D01*
X394963Y356544D01*
X394907Y356719D01*
X394899Y356735D01*
X394893Y356752D01*
X394801Y356911D01*
X394712Y357072D01*
X394701Y357085D01*
X394692Y357101D01*
X394477Y357354D01*
X393081Y358750D01*
X393081Y366254D01*
X393078Y366280D01*
X393080Y366307D01*
X393058Y366481D01*
X393041Y366654D01*
X393033Y366680D01*
X393030Y366706D01*
X392974Y366872D01*
X392923Y367039D01*
X392910Y367063D01*
X392901Y367088D01*
X392814Y367240D01*
X392731Y367393D01*
X392714Y367414D01*
X392701Y367437D01*
X392486Y367690D01*
X383539Y376637D01*
X383539Y412741D01*
X388398Y417600D01*
X388415Y417621D01*
X388436Y417638D01*
X388543Y417776D01*
X388653Y417912D01*
X388666Y417935D01*
X388682Y417956D01*
X388760Y418113D01*
X388842Y418267D01*
X388850Y418293D01*
X388862Y418317D01*
X388907Y418486D01*
X388957Y418653D01*
X388959Y418680D01*
X388966Y418706D01*
X388993Y419036D01*
X388993Y429380D01*
X389478Y429865D01*
X389492Y429882D01*
X389509Y429896D01*
X389619Y430037D01*
X389733Y430176D01*
X389744Y430196D01*
X389758Y430214D01*
X389838Y430373D01*
X389922Y430532D01*
X389928Y430553D01*
X389938Y430573D01*
X389986Y430746D01*
X390037Y430918D01*
X390039Y430940D01*
X390045Y430962D01*
X390057Y431139D01*
X390073Y431319D01*
X390071Y431341D01*
X390072Y431363D01*
X390049Y431540D01*
X390030Y431719D01*
X390023Y431740D01*
X390020Y431762D01*
X389919Y432078D01*
X389219Y433768D01*
X389219Y436182D01*
X390143Y438413D01*
X391850Y440120D01*
X394080Y441044D01*
X396495Y441044D01*
X398725Y440120D01*
X400432Y438413D01*
X401012Y437014D01*
X401026Y436986D01*
X401036Y436957D01*
X401121Y436809D01*
X401202Y436659D01*
X401222Y436635D01*
X401237Y436608D01*
X401452Y436355D01*
X401992Y435815D01*
X401993Y435814D01*
X403779Y434028D01*
X404630Y431973D01*
X404641Y431954D01*
X404647Y431932D01*
X404736Y431776D01*
X404820Y431618D01*
X404834Y431601D01*
X404845Y431582D01*
X404962Y431446D01*
X405077Y431308D01*
X405094Y431294D01*
X405109Y431277D01*
X405250Y431167D01*
X405389Y431054D01*
X405409Y431044D01*
X405427Y431030D01*
X405587Y430950D01*
X405746Y430867D01*
X405767Y430861D01*
X405787Y430851D01*
X405961Y430804D01*
X406132Y430754D01*
X406154Y430752D01*
X406176Y430746D01*
X406507Y430719D01*
X407227Y430719D01*
X408567Y429380D01*
X408567Y414485D01*
X407950Y413869D01*
X407939Y413855D01*
X407925Y413843D01*
X407811Y413699D01*
X407695Y413557D01*
X407687Y413542D01*
X407676Y413528D01*
X407592Y413363D01*
X407507Y413202D01*
X407501Y413185D01*
X407493Y413169D01*
X407444Y412992D01*
X407392Y412816D01*
X407390Y412798D01*
X407385Y412781D01*
X407372Y412598D01*
X407355Y412415D01*
X407357Y412397D01*
X407356Y412379D01*
X407379Y412197D01*
X407399Y412014D01*
X407404Y411997D01*
X407406Y411980D01*
X407465Y411806D01*
X407520Y411631D01*
X407529Y411615D01*
X407535Y411598D01*
X407626Y411439D01*
X407715Y411278D01*
X407727Y411265D01*
X407736Y411249D01*
X407950Y410996D01*
X408567Y410380D01*
X408567Y395485D01*
X407227Y394146D01*
X404622Y394146D01*
X404604Y394144D01*
X404586Y394145D01*
X404404Y394124D01*
X404221Y394106D01*
X404204Y394101D01*
X404187Y394099D01*
X404012Y394042D01*
X403836Y393988D01*
X403821Y393979D01*
X403804Y393974D01*
X403644Y393883D01*
X403482Y393796D01*
X403469Y393785D01*
X403453Y393776D01*
X403314Y393656D01*
X403173Y393538D01*
X403162Y393524D01*
X403148Y393513D01*
X403036Y393368D01*
X402921Y393224D01*
X402913Y393209D01*
X402902Y393195D01*
X402820Y393029D01*
X402735Y392867D01*
X402730Y392850D01*
X402722Y392834D01*
X402675Y392656D01*
X402624Y392480D01*
X402622Y392462D01*
X402618Y392445D01*
X402591Y392115D01*
X402591Y392015D01*
X402593Y391998D01*
X402591Y391980D01*
X402613Y391797D01*
X402631Y391615D01*
X402636Y391598D01*
X402638Y391580D01*
X402695Y391406D01*
X402749Y391230D01*
X402757Y391214D01*
X402763Y391197D01*
X402853Y391037D01*
X402941Y390876D01*
X402952Y390862D01*
X402961Y390847D01*
X403081Y390707D01*
X403198Y390567D01*
X403212Y390555D01*
X403224Y390542D01*
X403369Y390429D01*
X403512Y390314D01*
X403528Y390306D01*
X403542Y390295D01*
X403707Y390213D01*
X403869Y390129D01*
X403886Y390124D01*
X403902Y390116D01*
X404081Y390068D01*
X404256Y390017D01*
X404274Y390016D01*
X404291Y390011D01*
X404622Y389984D01*
X406315Y389984D01*
X407654Y388645D01*
X407654Y381141D01*
X407657Y381115D01*
X407655Y381088D01*
X407677Y380914D01*
X407694Y380741D01*
X407702Y380715D01*
X407705Y380689D01*
X407761Y380523D01*
X407812Y380356D01*
X407825Y380332D01*
X407834Y380307D01*
X407921Y380155D01*
X408004Y380002D01*
X408021Y379981D01*
X408034Y379958D01*
X408249Y379705D01*
X421156Y366798D01*
X421177Y366781D01*
X421194Y366761D01*
X421332Y366654D01*
X421467Y366543D01*
X421491Y366531D01*
X421512Y366514D01*
X421669Y366436D01*
X421823Y366354D01*
X421849Y366347D01*
X421873Y366335D01*
X422042Y366289D01*
X422209Y366240D01*
X422236Y366237D01*
X422262Y366230D01*
X422592Y366203D01*
X438647Y366203D01*
X441523Y363327D01*
X441523Y338052D01*
X432022Y328550D01*
X432005Y328529D01*
X431984Y328512D01*
X431877Y328374D01*
X431767Y328238D01*
X431754Y328215D01*
X431738Y328194D01*
X431660Y328037D01*
X431578Y327883D01*
X431570Y327857D01*
X431558Y327833D01*
X431513Y327664D01*
X431463Y327497D01*
X431461Y327470D01*
X431454Y327444D01*
X431427Y327114D01*
X431427Y323253D01*
X431429Y323235D01*
X431427Y323217D01*
X431448Y323035D01*
X431467Y322852D01*
X431472Y322835D01*
X431474Y322818D01*
X431531Y322643D01*
X431585Y322467D01*
X431593Y322452D01*
X431599Y322435D01*
X431689Y322275D01*
X431777Y322113D01*
X431788Y322100D01*
X431797Y322084D01*
X431917Y321945D01*
X432034Y321804D01*
X432048Y321793D01*
X432060Y321779D01*
X432205Y321667D01*
X432348Y321552D01*
X432364Y321544D01*
X432378Y321533D01*
X432543Y321451D01*
X432705Y321366D01*
X432722Y321361D01*
X432738Y321353D01*
X432917Y321306D01*
X433092Y321255D01*
X433110Y321253D01*
X433127Y321249D01*
X433458Y321222D01*
X435390Y321222D01*
X436729Y319882D01*
X436729Y307988D01*
X435390Y306648D01*
X422495Y306648D01*
X421138Y308005D01*
X421118Y308022D01*
X421100Y308043D01*
X420962Y308150D01*
X420827Y308260D01*
X420803Y308273D01*
X420782Y308289D01*
X420625Y308367D01*
X420471Y308449D01*
X420446Y308457D01*
X420421Y308469D01*
X420252Y308514D01*
X420085Y308564D01*
X420059Y308566D01*
X420033Y308573D01*
X419702Y308600D01*
X407678Y308600D01*
X407651Y308598D01*
X407624Y308600D01*
X407450Y308578D01*
X407277Y308560D01*
X407251Y308553D01*
X407225Y308549D01*
X407059Y308494D01*
X406892Y308442D01*
X406868Y308429D01*
X406843Y308421D01*
X406691Y308334D01*
X406538Y308250D01*
X406518Y308233D01*
X406494Y308220D01*
X406241Y308005D01*
X404693Y306457D01*
X404687Y306450D01*
X404680Y306444D01*
X404560Y306295D01*
X404438Y306145D01*
X404433Y306137D01*
X404428Y306130D01*
X404339Y305959D01*
X404249Y305790D01*
X404246Y305781D01*
X404242Y305773D01*
X404189Y305588D01*
X404134Y305404D01*
X404133Y305395D01*
X404131Y305386D01*
X404115Y305195D01*
X404098Y305003D01*
X404099Y304994D01*
X404098Y304985D01*
X404120Y304796D01*
X404141Y304602D01*
X404144Y304594D01*
X404145Y304585D01*
X404204Y304403D01*
X404263Y304219D01*
X404267Y304211D01*
X404270Y304202D01*
X404365Y304034D01*
X404458Y303866D01*
X404463Y303859D01*
X404468Y303852D01*
X404594Y303706D01*
X404718Y303559D01*
X404725Y303554D01*
X404731Y303547D01*
X404882Y303429D01*
X405034Y303310D01*
X405042Y303306D01*
X405049Y303300D01*
X405221Y303215D01*
X405393Y303127D01*
X405401Y303125D01*
X405409Y303121D01*
X405596Y303071D01*
X405781Y303019D01*
X405790Y303019D01*
X405798Y303016D01*
X406129Y302989D01*
X415300Y302989D01*
X416639Y301650D01*
X416639Y295755D01*
X415300Y294416D01*
X406433Y294416D01*
X406406Y294413D01*
X406379Y294415D01*
X406205Y294393D01*
X406032Y294376D01*
X406006Y294368D01*
X405980Y294365D01*
X405814Y294309D01*
X405647Y294258D01*
X405623Y294245D01*
X405598Y294236D01*
X405446Y294149D01*
X405293Y294066D01*
X405273Y294049D01*
X405249Y294035D01*
X404996Y293821D01*
X398470Y287295D01*
X398459Y287281D01*
X398445Y287269D01*
X398331Y287125D01*
X398215Y286983D01*
X398207Y286968D01*
X398196Y286954D01*
X398112Y286789D01*
X398027Y286628D01*
X398022Y286611D01*
X398013Y286595D01*
X397964Y286418D01*
X397912Y286242D01*
X397910Y286224D01*
X397905Y286207D01*
X397892Y286024D01*
X397875Y285841D01*
X397877Y285823D01*
X397876Y285805D01*
X397899Y285624D01*
X397919Y285440D01*
X397924Y285423D01*
X397926Y285406D01*
X397985Y285232D01*
X398040Y285057D01*
X398049Y285041D01*
X398055Y285024D01*
X398147Y284864D01*
X398235Y284704D01*
X398247Y284691D01*
X398256Y284675D01*
X398470Y284422D01*
X399242Y283651D01*
X399242Y283650D01*
X403308Y279584D01*
X403329Y279567D01*
X403346Y279547D01*
X403484Y279440D01*
X403620Y279329D01*
X403644Y279317D01*
X403665Y279300D01*
X403821Y279223D01*
X403976Y279140D01*
X404001Y279133D01*
X404025Y279121D01*
X404194Y279076D01*
X404361Y279026D01*
X404388Y279023D01*
X404414Y279016D01*
X404745Y278989D01*
X415300Y278989D01*
X417012Y277277D01*
X417026Y277266D01*
X417037Y277252D01*
X417181Y277138D01*
X417323Y277022D01*
X417339Y277014D01*
X417353Y277003D01*
X417517Y276919D01*
X417679Y276833D01*
X417696Y276828D01*
X417712Y276820D01*
X417889Y276771D01*
X418065Y276719D01*
X418083Y276717D01*
X418100Y276712D01*
X418283Y276699D01*
X418466Y276682D01*
X418484Y276684D01*
X418502Y276683D01*
X418684Y276706D01*
X418866Y276726D01*
X418883Y276731D01*
X418901Y276733D01*
X419074Y276791D01*
X419250Y276847D01*
X419266Y276856D01*
X419283Y276861D01*
X419442Y276953D01*
X419602Y277042D01*
X419616Y277053D01*
X419632Y277062D01*
X419885Y277277D01*
X448286Y305678D01*
X448303Y305699D01*
X448323Y305717D01*
X448430Y305854D01*
X448541Y305990D01*
X448553Y306013D01*
X448570Y306035D01*
X448648Y306192D01*
X448730Y306346D01*
X448737Y306371D01*
X448749Y306395D01*
X448795Y306565D01*
X448844Y306731D01*
X448847Y306758D01*
X448854Y306784D01*
X448881Y307115D01*
X448881Y365668D01*
X448878Y365694D01*
X448880Y365721D01*
X448858Y365895D01*
X448841Y366068D01*
X448833Y366094D01*
X448830Y366121D01*
X448774Y366286D01*
X448723Y366453D01*
X448710Y366477D01*
X448701Y366502D01*
X448614Y366654D01*
X448531Y366807D01*
X448514Y366828D01*
X448501Y366851D01*
X448286Y367104D01*
X438996Y376394D01*
X438983Y376405D01*
X438971Y376419D01*
X438827Y376532D01*
X438685Y376649D01*
X438669Y376657D01*
X438655Y376668D01*
X438491Y376751D01*
X438329Y376837D01*
X438312Y376842D01*
X438296Y376850D01*
X438119Y376900D01*
X437943Y376952D01*
X437926Y376954D01*
X437908Y376958D01*
X437725Y376972D01*
X437542Y376988D01*
X437525Y376987D01*
X437507Y376988D01*
X437325Y376965D01*
X437142Y376945D01*
X437125Y376940D01*
X437107Y376937D01*
X436934Y376879D01*
X436758Y376824D01*
X436743Y376815D01*
X436726Y376809D01*
X436566Y376717D01*
X436406Y376629D01*
X436392Y376617D01*
X436377Y376608D01*
X436124Y376394D01*
X432411Y372681D01*
X424204Y372681D01*
X418401Y378484D01*
X418401Y386691D01*
X423394Y391684D01*
X423411Y391705D01*
X423431Y391722D01*
X423538Y391860D01*
X423649Y391996D01*
X423661Y392019D01*
X423678Y392040D01*
X423756Y392197D01*
X423838Y392351D01*
X423845Y392377D01*
X423857Y392401D01*
X423903Y392570D01*
X423952Y392737D01*
X423955Y392764D01*
X423962Y392790D01*
X423989Y393120D01*
X423989Y421550D01*
X423986Y421576D01*
X423988Y421603D01*
X423966Y421777D01*
X423949Y421950D01*
X423941Y421976D01*
X423938Y422002D01*
X423882Y422168D01*
X423831Y422335D01*
X423818Y422359D01*
X423809Y422384D01*
X423722Y422536D01*
X423639Y422689D01*
X423622Y422710D01*
X423609Y422733D01*
X423394Y422986D01*
X419956Y426424D01*
X419299Y428011D01*
X419299Y429467D01*
X419297Y429485D01*
X419298Y429503D01*
X419277Y429684D01*
X419259Y429868D01*
X419254Y429885D01*
X419252Y429902D01*
X419195Y430077D01*
X419141Y430253D01*
X419132Y430268D01*
X419127Y430285D01*
X419036Y430445D01*
X418949Y430607D01*
X418938Y430620D01*
X418929Y430636D01*
X418809Y430775D01*
X418691Y430916D01*
X418677Y430927D01*
X418666Y430941D01*
X418521Y431053D01*
X418377Y431168D01*
X418362Y431176D01*
X418348Y431187D01*
X418183Y431269D01*
X418020Y431354D01*
X418003Y431359D01*
X417987Y431367D01*
X417809Y431414D01*
X417633Y431465D01*
X417615Y431467D01*
X417598Y431471D01*
X417268Y431498D01*
X417170Y431498D01*
X415831Y432838D01*
X415831Y444732D01*
X417170Y446072D01*
X430065Y446072D01*
X431404Y444732D01*
X431404Y432838D01*
X430017Y431451D01*
X430006Y431437D01*
X429992Y431425D01*
X429878Y431281D01*
X429762Y431139D01*
X429754Y431123D01*
X429743Y431109D01*
X429659Y430945D01*
X429573Y430783D01*
X429568Y430766D01*
X429560Y430750D01*
X429511Y430573D01*
X429459Y430398D01*
X429457Y430380D01*
X429452Y430363D01*
X429439Y430180D01*
X429422Y429997D01*
X429424Y429979D01*
X429423Y429961D01*
X429446Y429779D01*
X429466Y429596D01*
X429471Y429579D01*
X429473Y429562D01*
X429532Y429388D01*
X429587Y429212D01*
X429596Y429197D01*
X429601Y429180D01*
X429693Y429020D01*
X429782Y428860D01*
X429793Y428847D01*
X429802Y428831D01*
X430017Y428578D01*
X431969Y426626D01*
X432626Y425039D01*
X432626Y409600D01*
X432627Y409591D01*
X432626Y409582D01*
X432647Y409390D01*
X432666Y409199D01*
X432669Y409191D01*
X432670Y409182D01*
X432727Y409000D01*
X432784Y408815D01*
X432789Y408807D01*
X432791Y408798D01*
X432884Y408630D01*
X432976Y408460D01*
X432982Y408454D01*
X432986Y408446D01*
X433111Y408298D01*
X433234Y408151D01*
X433241Y408146D01*
X433247Y408139D01*
X433398Y408019D01*
X433548Y407899D01*
X433555Y407895D01*
X433562Y407889D01*
X433735Y407802D01*
X433905Y407713D01*
X433913Y407711D01*
X433921Y407707D01*
X434107Y407655D01*
X434292Y407602D01*
X434301Y407601D01*
X434309Y407599D01*
X434502Y407585D01*
X434693Y407569D01*
X434702Y407570D01*
X434711Y407569D01*
X434904Y407594D01*
X435093Y407616D01*
X435101Y407619D01*
X435110Y407620D01*
X435293Y407681D01*
X435476Y407741D01*
X435484Y407745D01*
X435492Y407748D01*
X435657Y407843D01*
X435826Y407939D01*
X435833Y407945D01*
X435841Y407949D01*
X436094Y408164D01*
X437887Y409957D01*
X440118Y410881D01*
X442532Y410881D01*
X443530Y410468D01*
X443568Y410456D01*
X443603Y410439D01*
X443761Y410398D01*
X443916Y410351D01*
X443955Y410348D01*
X443993Y410338D01*
X444155Y410329D01*
X444316Y410313D01*
X444356Y410317D01*
X444395Y410315D01*
X444555Y410338D01*
X444717Y410355D01*
X444755Y410367D01*
X444794Y410372D01*
X444946Y410426D01*
X445101Y410475D01*
X445136Y410494D01*
X445173Y410507D01*
X445312Y410590D01*
X445454Y410668D01*
X445485Y410693D01*
X445518Y410714D01*
X445639Y410823D01*
X445763Y410927D01*
X445787Y410958D01*
X445816Y410984D01*
X445912Y411115D01*
X446014Y411242D01*
X446032Y411277D01*
X446055Y411309D01*
X446123Y411455D01*
X446198Y411600D01*
X446208Y411638D01*
X446225Y411674D01*
X446263Y411831D01*
X446307Y411987D01*
X446310Y412027D01*
X446320Y412065D01*
X446326Y412227D01*
X446338Y412389D01*
X446334Y412428D01*
X446335Y412467D01*
X446293Y412760D01*
X446290Y412788D01*
X446289Y412792D01*
X446288Y412796D01*
X446266Y412893D01*
X446286Y412941D01*
X446309Y413064D01*
X446342Y413185D01*
X446347Y413261D01*
X446361Y413337D01*
X446362Y413500D01*
X446368Y413587D01*
X446363Y413622D01*
X446363Y413668D01*
X446299Y414533D01*
X446286Y414608D01*
X446282Y414685D01*
X446251Y414806D01*
X446229Y414929D01*
X446202Y415001D01*
X446183Y415075D01*
X446128Y415188D01*
X446088Y415292D01*
X446154Y416170D01*
X446152Y416238D01*
X446154Y416474D01*
X446088Y417359D01*
X446115Y417404D01*
X446156Y417522D01*
X446207Y417637D01*
X446223Y417711D01*
X446248Y417783D01*
X446274Y417945D01*
X446292Y418030D01*
X446293Y418066D01*
X446300Y418111D01*
X446365Y418976D01*
X446363Y419052D01*
X446371Y419128D01*
X446359Y419253D01*
X446355Y419378D01*
X446339Y419453D01*
X446331Y419529D01*
X446294Y419649D01*
X446270Y419757D01*
X446466Y420616D01*
X446474Y420683D01*
X446511Y420917D01*
X446578Y421801D01*
X446611Y421842D01*
X446670Y421952D01*
X446736Y422058D01*
X446764Y422130D01*
X446800Y422198D01*
X446849Y422353D01*
X446880Y422435D01*
X446886Y422470D01*
X446900Y422514D01*
X447093Y423359D01*
X447102Y423435D01*
X447121Y423509D01*
X447128Y423634D01*
X447143Y423758D01*
X447138Y423835D01*
X447141Y423911D01*
X447123Y424035D01*
X447115Y424146D01*
X447437Y424967D01*
X447455Y425031D01*
X447527Y425257D01*
X447724Y426122D01*
X447763Y426157D01*
X447838Y426257D01*
X447919Y426352D01*
X447957Y426419D01*
X448003Y426480D01*
X448074Y426627D01*
X448117Y426703D01*
X448128Y426737D01*
X448149Y426778D01*
X448466Y427585D01*
X448486Y427659D01*
X448516Y427729D01*
X448541Y427852D01*
X448575Y427972D01*
X448581Y428049D01*
X448596Y428124D01*
X448596Y428249D01*
X448605Y428360D01*
X449045Y429123D01*
X449073Y429184D01*
X449177Y429397D01*
X449502Y430223D01*
X449545Y430251D01*
X449634Y430340D01*
X449729Y430421D01*
X449776Y430482D01*
X449830Y430536D01*
X449923Y430670D01*
X449977Y430739D01*
X449993Y430771D01*
X450019Y430809D01*
X450453Y431559D01*
X450484Y431629D01*
X450524Y431694D01*
X450567Y431812D01*
X450619Y431926D01*
X450636Y432000D01*
X450662Y432072D01*
X450681Y432196D01*
X450706Y432305D01*
X451256Y432994D01*
X451292Y433050D01*
X451427Y433245D01*
X451871Y434013D01*
X451918Y434035D01*
X452019Y434109D01*
X452125Y434176D01*
X452181Y434228D01*
X452242Y434274D01*
X452342Y434380D01*
X452359Y434394D01*
X452370Y434407D01*
X452418Y434452D01*
X452438Y434482D01*
X452470Y434515D01*
X453010Y435193D01*
X453052Y435257D01*
X453101Y435316D01*
X453161Y435425D01*
X453229Y435531D01*
X453257Y435602D01*
X453294Y435669D01*
X453331Y435789D01*
X453372Y435893D01*
X454018Y436492D01*
X454062Y436542D01*
X454225Y436714D01*
X454778Y437408D01*
X454828Y437422D01*
X454939Y437481D01*
X455054Y437531D01*
X455117Y437574D01*
X455184Y437610D01*
X455313Y437711D01*
X455384Y437761D01*
X455409Y437787D01*
X455445Y437815D01*
X456081Y438405D01*
X456107Y438435D01*
X456133Y438456D01*
X456154Y438481D01*
X456189Y438513D01*
X456264Y438612D01*
X456348Y438706D01*
X456381Y438764D01*
X456386Y438770D01*
X456389Y438777D01*
X456432Y438833D01*
X456487Y438946D01*
X456543Y439043D01*
X457271Y439539D01*
X457322Y439582D01*
X457508Y439728D01*
X458159Y440332D01*
X458213Y440339D01*
X458330Y440380D01*
X458450Y440412D01*
X458520Y440446D01*
X458593Y440472D01*
X458725Y440547D01*
X458790Y440578D01*
X458797Y440583D01*
X458811Y440590D01*
X458840Y440613D01*
X458882Y440636D01*
X458890Y440642D01*
X458999Y440733D01*
X459113Y440818D01*
X459126Y440833D01*
X459130Y440836D01*
X459153Y440863D01*
X459198Y440901D01*
X459287Y441012D01*
X459382Y441118D01*
X459412Y441169D01*
X459449Y441216D01*
X459514Y441342D01*
X459587Y441465D01*
X459606Y441521D01*
X459633Y441574D01*
X459672Y441711D01*
X459719Y441845D01*
X459727Y441904D01*
X459743Y441961D01*
X459754Y442103D01*
X459774Y442244D01*
X459770Y442303D01*
X459774Y442362D01*
X459757Y442504D01*
X459749Y442646D01*
X459733Y442703D01*
X459726Y442762D01*
X459681Y442897D01*
X459645Y443035D01*
X459616Y443096D01*
X459600Y443144D01*
X459559Y443216D01*
X459503Y443335D01*
X441761Y474065D01*
X442389Y474361D01*
X442411Y474378D01*
X442438Y474388D01*
X442490Y474437D01*
X442548Y474480D01*
X442562Y474505D01*
X442583Y474525D01*
X442612Y474590D01*
X442648Y474652D01*
X442651Y474681D01*
X442663Y474707D01*
X442664Y474779D01*
X442673Y474849D01*
X442665Y474877D01*
X442666Y474906D01*
X442630Y475000D01*
X442619Y475041D01*
X442612Y475049D01*
X442608Y475062D01*
X433108Y491562D01*
X433056Y491620D01*
X433010Y491683D01*
X432991Y491694D01*
X432976Y491711D01*
X432906Y491744D01*
X432839Y491784D01*
X432815Y491788D01*
X432797Y491797D01*
X432752Y491799D01*
X432675Y491812D01*
X413675Y491812D01*
X413647Y491806D01*
X413619Y491809D01*
X413551Y491786D01*
X413480Y491772D01*
X413457Y491756D01*
X413430Y491747D01*
X413375Y491700D01*
X413316Y491660D01*
X413301Y491636D01*
X413280Y491617D01*
X413248Y491553D01*
X413209Y491492D01*
X413204Y491464D01*
X413192Y491439D01*
X413183Y491337D01*
X413176Y491296D01*
X413178Y491286D01*
X413177Y491273D01*
X413234Y490558D01*
X377698Y490558D01*
X377555Y490544D01*
X377410Y490537D01*
X377354Y490524D01*
X377297Y490518D01*
X377160Y490476D01*
X377019Y490441D01*
X376967Y490417D01*
X376912Y490400D01*
X376785Y490331D01*
X376655Y490270D01*
X376609Y490235D01*
X376558Y490208D01*
X376447Y490116D01*
X376332Y490030D01*
X376293Y489987D01*
X376249Y489950D01*
X376159Y489838D01*
X376062Y489731D01*
X376033Y489681D01*
X375997Y489636D01*
X375930Y489509D01*
X375857Y489385D01*
X375838Y489330D01*
X375811Y489279D01*
X375771Y489141D01*
X375724Y489005D01*
X375713Y488940D01*
X375700Y488892D01*
X375693Y488809D01*
X375672Y488677D01*
X375671Y488660D01*
X375673Y488584D01*
X375665Y488508D01*
X375667Y488492D01*
X375667Y488491D01*
X375668Y488482D01*
X375678Y488383D01*
X375681Y488257D01*
X375698Y488183D01*
X375705Y488108D01*
X375742Y487988D01*
X375767Y487880D01*
X375571Y487020D01*
X375567Y486988D01*
X375560Y486964D01*
X375555Y486910D01*
X375525Y486720D01*
X375459Y485835D01*
X375426Y485795D01*
X375367Y485684D01*
X375301Y485578D01*
X375273Y485507D01*
X375238Y485439D01*
X375188Y485284D01*
X375157Y485202D01*
X375151Y485166D01*
X375138Y485123D01*
X374945Y484280D01*
X374936Y484204D01*
X374917Y484130D01*
X374911Y484004D01*
X374895Y483880D01*
X374900Y483804D01*
X374897Y483728D01*
X374915Y483604D01*
X374923Y483492D01*
X374601Y482672D01*
X374583Y482607D01*
X374512Y482382D01*
X374315Y481517D01*
X374276Y481482D01*
X374201Y481381D01*
X374119Y481286D01*
X374082Y481220D01*
X374036Y481158D01*
X373965Y481012D01*
X373922Y480936D01*
X373911Y480902D01*
X373890Y480860D01*
X373574Y480055D01*
X373554Y479982D01*
X373524Y479911D01*
X373499Y479789D01*
X373465Y479668D01*
X373459Y479591D01*
X373444Y479517D01*
X373444Y479391D01*
X373436Y479280D01*
X372995Y478517D01*
X372968Y478456D01*
X372863Y478243D01*
X372539Y477417D01*
X372496Y477389D01*
X372407Y477300D01*
X372312Y477218D01*
X372265Y477158D01*
X372211Y477104D01*
X372118Y476970D01*
X372064Y476901D01*
X372048Y476869D01*
X372022Y476831D01*
X371590Y476082D01*
X371558Y476013D01*
X371518Y475947D01*
X371475Y475830D01*
X371424Y475716D01*
X371407Y475641D01*
X371380Y475569D01*
X371362Y475445D01*
X371337Y475337D01*
X370787Y474648D01*
X370751Y474591D01*
X370616Y474397D01*
X370173Y473628D01*
X370125Y473606D01*
X370024Y473532D01*
X369918Y473465D01*
X369863Y473413D01*
X369801Y473367D01*
X369689Y473248D01*
X369626Y473189D01*
X369605Y473159D01*
X369574Y473126D01*
X369035Y472450D01*
X368993Y472386D01*
X368944Y472327D01*
X368884Y472217D01*
X368816Y472112D01*
X368788Y472041D01*
X368751Y471973D01*
X368714Y471854D01*
X368673Y471750D01*
X368028Y471151D01*
X367983Y471100D01*
X367821Y470928D01*
X367268Y470234D01*
X367218Y470220D01*
X367107Y470161D01*
X366992Y470111D01*
X366929Y470067D01*
X366862Y470032D01*
X366733Y469931D01*
X366662Y469881D01*
X366637Y469855D01*
X366601Y469827D01*
X365967Y469239D01*
X365916Y469181D01*
X365859Y469131D01*
X365783Y469031D01*
X365700Y468937D01*
X365662Y468871D01*
X365616Y468810D01*
X365561Y468697D01*
X365505Y468600D01*
X364777Y468104D01*
X364726Y468061D01*
X364540Y467915D01*
X363627Y467067D01*
X363590Y467026D01*
X363547Y466989D01*
X363457Y466875D01*
X363360Y466766D01*
X363332Y466717D01*
X363298Y466673D01*
X363232Y466543D01*
X363158Y466417D01*
X363141Y466364D01*
X363115Y466314D01*
X363076Y466174D01*
X363029Y466036D01*
X363022Y465980D01*
X363007Y465927D01*
X362997Y465781D01*
X362978Y465637D01*
X362982Y465581D01*
X362978Y465525D01*
X362996Y465380D01*
X363006Y465235D01*
X363021Y465181D01*
X363028Y465126D01*
X363075Y464987D01*
X363113Y464847D01*
X363139Y464797D01*
X363156Y464744D01*
X363229Y464618D01*
X363295Y464487D01*
X363330Y464443D01*
X363357Y464395D01*
X363496Y464232D01*
X363544Y464171D01*
X363558Y464159D01*
X363572Y464142D01*
X378980Y448734D01*
X378980Y339734D01*
X377734Y338487D01*
X377717Y338467D01*
X377696Y338449D01*
X377589Y338311D01*
X377479Y338176D01*
X377466Y338152D01*
X377450Y338131D01*
X377372Y337974D01*
X377290Y337820D01*
X377282Y337795D01*
X377270Y337771D01*
X377225Y337601D01*
X377175Y337434D01*
X377173Y337408D01*
X377166Y337382D01*
X377139Y337051D01*
X377139Y324808D01*
X375799Y323468D01*
X319913Y323468D01*
X319895Y323466D01*
X319877Y323468D01*
X319695Y323447D01*
X319512Y323428D01*
X319495Y323423D01*
X319478Y323421D01*
X319303Y323364D01*
X319127Y323310D01*
X319112Y323302D01*
X319095Y323296D01*
X318935Y323206D01*
X318773Y323118D01*
X318760Y323107D01*
X318744Y323098D01*
X318605Y322978D01*
X318464Y322861D01*
X318453Y322847D01*
X318439Y322835D01*
X318327Y322690D01*
X318212Y322547D01*
X318204Y322531D01*
X318193Y322517D01*
X318111Y322352D01*
X318026Y322190D01*
X318021Y322173D01*
X318013Y322157D01*
X317966Y321978D01*
X317915Y321803D01*
X317913Y321785D01*
X317909Y321768D01*
X317882Y321437D01*
X317882Y295559D01*
X316534Y294211D01*
X316522Y294197D01*
X316509Y294185D01*
X316395Y294041D01*
X316279Y293899D01*
X316270Y293884D01*
X316259Y293870D01*
X316176Y293705D01*
X316090Y293544D01*
X316085Y293527D01*
X316077Y293511D01*
X316027Y293333D01*
X315975Y293158D01*
X315974Y293140D01*
X315969Y293123D01*
X315955Y292940D01*
X315939Y292757D01*
X315941Y292739D01*
X315939Y292721D01*
X315962Y292539D01*
X315982Y292356D01*
X315988Y292339D01*
X315990Y292322D01*
X316048Y292148D01*
X316104Y291973D01*
X316112Y291957D01*
X316118Y291940D01*
X316210Y291781D01*
X316299Y291620D01*
X316310Y291607D01*
X316319Y291591D01*
X316534Y291338D01*
X317882Y289990D01*
X317882Y270552D01*
X316542Y269212D01*
X300484Y269212D01*
X300457Y269210D01*
X300430Y269212D01*
X300256Y269190D01*
X300083Y269172D01*
X300058Y269165D01*
X300031Y269161D01*
X299865Y269106D01*
X299698Y269054D01*
X299675Y269041D01*
X299649Y269033D01*
X299498Y268946D01*
X299344Y268862D01*
X299324Y268845D01*
X299300Y268832D01*
X299047Y268617D01*
X297839Y267409D01*
X297822Y267388D01*
X297802Y267371D01*
X297695Y267233D01*
X297584Y267098D01*
X297572Y267074D01*
X297555Y267053D01*
X297477Y266896D01*
X297395Y266742D01*
X297388Y266716D01*
X297376Y266692D01*
X297330Y266523D01*
X297281Y266356D01*
X297278Y266329D01*
X297271Y266304D01*
X297244Y265973D01*
X297244Y264630D01*
X297247Y264603D01*
X297245Y264576D01*
X297267Y264402D01*
X297284Y264229D01*
X297292Y264203D01*
X297295Y264177D01*
X297351Y264011D01*
X297402Y263844D01*
X297415Y263820D01*
X297424Y263795D01*
X297511Y263644D01*
X297594Y263490D01*
X297611Y263470D01*
X297624Y263446D01*
X297839Y263193D01*
X298832Y262200D01*
X299756Y259970D01*
X299756Y257555D01*
X298832Y255325D01*
X297125Y253618D01*
X294895Y252694D01*
X292480Y252694D01*
X290250Y253618D01*
X288543Y255325D01*
X287619Y257555D01*
X287619Y259970D01*
X288543Y262200D01*
X289536Y263193D01*
X289553Y263214D01*
X289573Y263231D01*
X289680Y263369D01*
X289791Y263505D01*
X289803Y263528D01*
X289820Y263550D01*
X289898Y263707D01*
X289980Y263861D01*
X289987Y263886D01*
X289999Y263910D01*
X290045Y264080D01*
X290094Y264246D01*
X290097Y264273D01*
X290104Y264299D01*
X290131Y264630D01*
X290131Y269761D01*
X292809Y272439D01*
X293439Y273069D01*
X293448Y273079D01*
X293458Y273088D01*
X293575Y273235D01*
X293694Y273381D01*
X293700Y273392D01*
X293709Y273403D01*
X293795Y273570D01*
X293883Y273736D01*
X293887Y273749D01*
X293893Y273761D01*
X293944Y273940D01*
X293998Y274122D01*
X293999Y274136D01*
X294002Y274148D01*
X294017Y274334D01*
X294034Y274523D01*
X294033Y274537D01*
X294034Y274550D01*
X294011Y274735D01*
X293991Y274923D01*
X293987Y274936D01*
X293985Y274950D01*
X293926Y275128D01*
X293869Y275307D01*
X293863Y275319D01*
X293858Y275332D01*
X293765Y275496D01*
X293674Y275660D01*
X293666Y275670D01*
X293659Y275682D01*
X293535Y275823D01*
X293414Y275967D01*
X293403Y275975D01*
X293395Y275985D01*
X293245Y276100D01*
X293098Y276216D01*
X293086Y276222D01*
X293075Y276230D01*
X292780Y276382D01*
X290250Y277430D01*
X288543Y279137D01*
X287619Y281368D01*
X287619Y283782D01*
X288543Y286013D01*
X290250Y287720D01*
X292480Y288644D01*
X293885Y288644D01*
X293911Y288646D01*
X293938Y288644D01*
X294112Y288666D01*
X294285Y288684D01*
X294311Y288691D01*
X294338Y288695D01*
X294504Y288751D01*
X294670Y288802D01*
X294694Y288814D01*
X294719Y288823D01*
X294871Y288910D01*
X295024Y288994D01*
X295045Y289011D01*
X295068Y289024D01*
X295321Y289239D01*
X296834Y290752D01*
X296840Y290759D01*
X296847Y290764D01*
X296968Y290915D01*
X297089Y291063D01*
X297093Y291071D01*
X297099Y291078D01*
X297188Y291248D01*
X297278Y291419D01*
X297280Y291428D01*
X297285Y291435D01*
X297337Y291617D01*
X297393Y291805D01*
X297394Y291814D01*
X297396Y291822D01*
X297411Y292012D01*
X297429Y292206D01*
X297428Y292215D01*
X297429Y292224D01*
X297407Y292413D01*
X297386Y292606D01*
X297383Y292615D01*
X297382Y292623D01*
X297323Y292805D01*
X297264Y292990D01*
X297260Y292998D01*
X297257Y293006D01*
X297163Y293173D01*
X297069Y293342D01*
X297064Y293349D01*
X297059Y293357D01*
X296934Y293502D01*
X296809Y293649D01*
X296802Y293655D01*
X296796Y293662D01*
X296646Y293778D01*
X296493Y293899D01*
X296485Y293903D01*
X296478Y293908D01*
X296307Y293993D01*
X296134Y294081D01*
X296125Y294084D01*
X296117Y294088D01*
X295932Y294137D01*
X295746Y294189D01*
X295737Y294190D01*
X295729Y294192D01*
X295398Y294219D01*
X290045Y294219D01*
X290018Y294217D01*
X289991Y294219D01*
X289817Y294197D01*
X289644Y294179D01*
X289618Y294172D01*
X289592Y294168D01*
X289426Y294113D01*
X289259Y294061D01*
X289235Y294048D01*
X289210Y294040D01*
X289058Y293953D01*
X288905Y293869D01*
X288885Y293852D01*
X288861Y293839D01*
X288608Y293624D01*
X288410Y293426D01*
X285557Y293426D01*
X285543Y293424D01*
X285530Y293426D01*
X285343Y293404D01*
X285156Y293386D01*
X285144Y293382D01*
X285130Y293380D01*
X284951Y293323D01*
X284771Y293268D01*
X284760Y293261D01*
X284747Y293257D01*
X284582Y293165D01*
X284417Y293076D01*
X284407Y293067D01*
X284395Y293061D01*
X284252Y292938D01*
X284108Y292818D01*
X284100Y292808D01*
X284089Y292799D01*
X283973Y292651D01*
X283856Y292504D01*
X283850Y292493D01*
X283841Y292482D01*
X283757Y292314D01*
X283670Y292147D01*
X283667Y292134D01*
X283661Y292122D01*
X283611Y291940D01*
X283559Y291760D01*
X283558Y291747D01*
X283554Y291734D01*
X283541Y291546D01*
X283526Y291359D01*
X283528Y291346D01*
X283527Y291332D01*
X283551Y291146D01*
X283573Y290959D01*
X283577Y290946D01*
X283579Y290933D01*
X283680Y290617D01*
X283881Y290132D01*
X283881Y287718D01*
X282957Y285487D01*
X281163Y283693D01*
X281152Y283679D01*
X281138Y283668D01*
X281024Y283524D01*
X280908Y283382D01*
X280900Y283366D01*
X280889Y283352D01*
X280805Y283188D01*
X280720Y283026D01*
X280714Y283009D01*
X280706Y282993D01*
X280657Y282816D01*
X280605Y282640D01*
X280603Y282622D01*
X280598Y282605D01*
X280585Y282422D01*
X280568Y282239D01*
X280570Y282221D01*
X280569Y282204D01*
X280592Y282020D01*
X280612Y281839D01*
X280617Y281822D01*
X280619Y281804D01*
X280678Y281630D01*
X280733Y281455D01*
X280742Y281439D01*
X280748Y281423D01*
X280839Y281264D01*
X280928Y281103D01*
X280940Y281089D01*
X280949Y281074D01*
X281163Y280821D01*
X282987Y278997D01*
X282987Y267103D01*
X281647Y265763D01*
X268753Y265763D01*
X267413Y267103D01*
X267413Y278997D01*
X268753Y280337D01*
X268850Y280337D01*
X268868Y280339D01*
X268886Y280337D01*
X269068Y280358D01*
X269251Y280377D01*
X269268Y280382D01*
X269285Y280384D01*
X269460Y280441D01*
X269636Y280495D01*
X269651Y280503D01*
X269668Y280509D01*
X269828Y280599D01*
X269990Y280687D01*
X270003Y280698D01*
X270019Y280707D01*
X270158Y280827D01*
X270299Y280944D01*
X270310Y280958D01*
X270324Y280970D01*
X270436Y281115D01*
X270551Y281258D01*
X270559Y281274D01*
X270570Y281288D01*
X270652Y281453D01*
X270737Y281615D01*
X270742Y281632D01*
X270750Y281648D01*
X270797Y281826D01*
X270848Y282002D01*
X270850Y282020D01*
X270854Y282037D01*
X270881Y282368D01*
X270881Y287172D01*
X271589Y288881D01*
X271598Y288910D01*
X271612Y288938D01*
X271656Y289103D01*
X271706Y289266D01*
X271709Y289297D01*
X271717Y289327D01*
X271744Y289658D01*
X271744Y290132D01*
X272708Y292460D01*
X272714Y292481D01*
X272725Y292501D01*
X272773Y292674D01*
X272824Y292845D01*
X272826Y292867D01*
X272833Y292889D01*
X272846Y293069D01*
X272863Y293246D01*
X272860Y293268D01*
X272862Y293291D01*
X272839Y293468D01*
X272821Y293646D01*
X272814Y293668D01*
X272811Y293690D01*
X272755Y293859D01*
X272701Y294031D01*
X272690Y294050D01*
X272683Y294072D01*
X272594Y294227D01*
X272508Y294384D01*
X272493Y294401D01*
X272482Y294420D01*
X272268Y294673D01*
X272176Y294765D01*
X272176Y311660D01*
X273515Y312999D01*
X284364Y312999D01*
X284373Y313000D01*
X284382Y312999D01*
X284573Y313020D01*
X284764Y313039D01*
X284773Y313042D01*
X284782Y313043D01*
X284964Y313100D01*
X285149Y313157D01*
X285157Y313162D01*
X285166Y313164D01*
X285334Y313257D01*
X285503Y313349D01*
X285510Y313355D01*
X285518Y313359D01*
X285666Y313484D01*
X285813Y313607D01*
X285818Y313614D01*
X285825Y313620D01*
X285945Y313771D01*
X286065Y313921D01*
X286069Y313928D01*
X286075Y313935D01*
X286162Y314108D01*
X286250Y314278D01*
X286253Y314286D01*
X286257Y314294D01*
X286309Y314480D01*
X286362Y314665D01*
X286363Y314674D01*
X286365Y314682D01*
X286379Y314873D01*
X286395Y315066D01*
X286394Y315075D01*
X286394Y315084D01*
X286370Y315277D01*
X286348Y315466D01*
X286345Y315474D01*
X286344Y315483D01*
X286283Y315664D01*
X286223Y315849D01*
X286218Y315857D01*
X286216Y315865D01*
X286120Y316030D01*
X286025Y316199D01*
X286019Y316206D01*
X286015Y316214D01*
X285800Y316467D01*
X284212Y318054D01*
X284192Y318071D01*
X284174Y318092D01*
X284036Y318199D01*
X283901Y318309D01*
X283877Y318322D01*
X283856Y318338D01*
X283700Y318416D01*
X283545Y318498D01*
X283520Y318506D01*
X283496Y318518D01*
X283327Y318563D01*
X283159Y318613D01*
X283133Y318615D01*
X283107Y318622D01*
X282776Y318649D01*
X264242Y318649D01*
X264215Y318647D01*
X264188Y318649D01*
X264014Y318627D01*
X263841Y318609D01*
X263816Y318602D01*
X263789Y318598D01*
X263623Y318543D01*
X263456Y318491D01*
X263433Y318478D01*
X263407Y318470D01*
X263256Y318383D01*
X263102Y318299D01*
X263082Y318282D01*
X263058Y318269D01*
X262805Y318054D01*
X256058Y311307D01*
X256056Y311305D01*
X256055Y311303D01*
X256040Y311286D01*
X256021Y311269D01*
X255914Y311131D01*
X255803Y310996D01*
X255791Y310972D01*
X255774Y310951D01*
X255696Y310794D01*
X255614Y310640D01*
X255607Y310614D01*
X255595Y310590D01*
X255549Y310421D01*
X255500Y310254D01*
X255497Y310227D01*
X255490Y310202D01*
X255463Y309871D01*
X255463Y299299D01*
X241406Y285242D01*
X241340Y285161D01*
X241266Y285086D01*
X241212Y285005D01*
X241151Y284931D01*
X241102Y284838D01*
X241044Y284750D01*
X241008Y284660D01*
X240963Y284575D01*
X240933Y284474D01*
X240893Y284377D01*
X240875Y284282D01*
X240848Y284189D01*
X240838Y284084D01*
X240819Y283981D01*
X240820Y283884D01*
X240811Y283788D01*
X240823Y283683D01*
X240824Y283578D01*
X240844Y283484D01*
X240855Y283388D01*
X240887Y283287D01*
X240909Y283185D01*
X240947Y283096D01*
X240976Y283004D01*
X241027Y282912D01*
X241069Y282815D01*
X241134Y282719D01*
X241171Y282652D01*
X241209Y282607D01*
X241254Y282540D01*
X241458Y282284D01*
X241461Y282232D01*
X241494Y282111D01*
X241517Y281988D01*
X241545Y281917D01*
X241565Y281843D01*
X241635Y281695D01*
X241667Y281614D01*
X241687Y281584D01*
X241707Y281543D01*
X242140Y280792D01*
X242185Y280730D01*
X242221Y280663D01*
X242302Y280566D01*
X242375Y280465D01*
X242431Y280413D01*
X242480Y280354D01*
X242578Y280276D01*
X242659Y280200D01*
X242981Y279379D01*
X243012Y279320D01*
X243113Y279106D01*
X243556Y278337D01*
X243552Y278285D01*
X243565Y278161D01*
X243570Y278036D01*
X243588Y277961D01*
X243596Y277885D01*
X243643Y277729D01*
X243663Y277644D01*
X243678Y277611D01*
X243692Y277567D01*
X244008Y276760D01*
X244043Y276692D01*
X244069Y276620D01*
X244134Y276514D01*
X244191Y276402D01*
X244239Y276342D01*
X244279Y276277D01*
X244364Y276185D01*
X244433Y276097D01*
X244629Y275238D01*
X244651Y275174D01*
X244719Y274948D01*
X245043Y274122D01*
X245030Y274071D01*
X245025Y273946D01*
X245011Y273822D01*
X245018Y273745D01*
X245015Y273669D01*
X245038Y273507D01*
X245045Y273420D01*
X245055Y273386D01*
X245062Y273340D01*
X245254Y272495D01*
X245279Y272423D01*
X245294Y272348D01*
X245343Y272232D01*
X245382Y272114D01*
X245420Y272047D01*
X245450Y271977D01*
X245521Y271873D01*
X245576Y271776D01*
X245642Y270898D01*
X245653Y270831D01*
X245687Y270597D01*
X245884Y269732D01*
X245864Y269684D01*
X245841Y269561D01*
X245808Y269440D01*
X245803Y269364D01*
X245789Y269289D01*
X245788Y269125D01*
X245782Y269038D01*
X245787Y269003D01*
X245787Y268957D01*
X245851Y268092D01*
X245864Y268017D01*
X245868Y267940D01*
X245899Y267819D01*
X245921Y267696D01*
X245949Y267624D01*
X245967Y267550D01*
X246021Y267437D01*
X246062Y267333D01*
X245996Y266455D01*
X245998Y266387D01*
X245996Y266151D01*
X246062Y265266D01*
X246035Y265221D01*
X245994Y265103D01*
X245943Y264988D01*
X245927Y264914D01*
X245902Y264842D01*
X245876Y264680D01*
X245858Y264595D01*
X245857Y264559D01*
X245850Y264514D01*
X245785Y263649D01*
X245787Y263573D01*
X245779Y263497D01*
X245791Y263372D01*
X245795Y263247D01*
X245811Y263172D01*
X245819Y263096D01*
X245856Y262976D01*
X245880Y262868D01*
X245684Y262009D01*
X245676Y261942D01*
X245639Y261708D01*
X245572Y260823D01*
X245539Y260783D01*
X245480Y260673D01*
X245414Y260567D01*
X245386Y260495D01*
X245350Y260427D01*
X245301Y260272D01*
X245270Y260190D01*
X245264Y260155D01*
X245250Y260111D01*
X245057Y259266D01*
X245048Y259190D01*
X245029Y259116D01*
X245022Y258991D01*
X245007Y258867D01*
X245012Y258790D01*
X245009Y258714D01*
X245027Y258590D01*
X245035Y258479D01*
X244713Y257658D01*
X244695Y257594D01*
X244623Y257368D01*
X244426Y256503D01*
X244387Y256468D01*
X244312Y256368D01*
X244231Y256273D01*
X244193Y256206D01*
X244147Y256145D01*
X244076Y255998D01*
X244033Y255922D01*
X244022Y255888D01*
X244001Y255847D01*
X243684Y255040D01*
X243664Y254966D01*
X243634Y254896D01*
X243609Y254773D01*
X243575Y254653D01*
X243569Y254576D01*
X243554Y254501D01*
X243554Y254376D01*
X243545Y254265D01*
X243105Y253502D01*
X243077Y253441D01*
X242973Y253228D01*
X242648Y252402D01*
X242605Y252374D01*
X242516Y252285D01*
X242421Y252204D01*
X242374Y252143D01*
X242320Y252089D01*
X242227Y251955D01*
X242173Y251886D01*
X242157Y251854D01*
X242131Y251816D01*
X241697Y251066D01*
X241666Y250996D01*
X241626Y250931D01*
X241583Y250813D01*
X241531Y250699D01*
X241514Y250625D01*
X241488Y250553D01*
X241469Y250429D01*
X241444Y250320D01*
X240894Y249631D01*
X240858Y249575D01*
X240723Y249380D01*
X240279Y248612D01*
X240232Y248590D01*
X240131Y248516D01*
X240025Y248449D01*
X239969Y248397D01*
X239908Y248351D01*
X239796Y248233D01*
X239732Y248173D01*
X239712Y248143D01*
X239680Y248110D01*
X239140Y247432D01*
X239098Y247368D01*
X239049Y247309D01*
X238989Y247200D01*
X238921Y247094D01*
X238893Y247023D01*
X238856Y246956D01*
X238819Y246836D01*
X238778Y246732D01*
X238132Y246133D01*
X238088Y246083D01*
X237925Y245911D01*
X237372Y245217D01*
X237322Y245203D01*
X237211Y245144D01*
X237096Y245094D01*
X237034Y245051D01*
X236966Y245015D01*
X236837Y244914D01*
X236766Y244864D01*
X236741Y244838D01*
X236705Y244810D01*
X236069Y244220D01*
X236018Y244163D01*
X235961Y244113D01*
X235886Y244013D01*
X235802Y243919D01*
X235764Y243852D01*
X235718Y243792D01*
X235664Y243679D01*
X235607Y243582D01*
X234879Y243086D01*
X234828Y243043D01*
X234642Y242897D01*
X233991Y242294D01*
X233942Y242287D01*
X233822Y242246D01*
X233700Y242213D01*
X233633Y242180D01*
X233561Y242155D01*
X233426Y242078D01*
X233360Y242047D01*
X233352Y242041D01*
X233339Y242035D01*
X233312Y242014D01*
X233273Y241992D01*
X233265Y241986D01*
X233154Y241893D01*
X233037Y241807D01*
X233024Y241791D01*
X233020Y241789D01*
X232998Y241763D01*
X232956Y241728D01*
X232865Y241615D01*
X232768Y241507D01*
X232739Y241458D01*
X232704Y241414D01*
X232637Y241285D01*
X232563Y241160D01*
X232545Y241107D01*
X232519Y241056D01*
X232479Y240917D01*
X232431Y240780D01*
X232423Y240724D01*
X232408Y240669D01*
X232396Y240525D01*
X232376Y240381D01*
X232380Y240325D01*
X232375Y240268D01*
X232392Y240124D01*
X232401Y239979D01*
X232416Y239925D01*
X232423Y239868D01*
X232468Y239730D01*
X232505Y239590D01*
X232533Y239532D01*
X232548Y239486D01*
X232589Y239413D01*
X232647Y239290D01*
X250389Y208560D01*
X249762Y208264D01*
X249739Y208247D01*
X249712Y208237D01*
X249660Y208188D01*
X249602Y208145D01*
X249588Y208120D01*
X249567Y208100D01*
X249538Y208035D01*
X249502Y207973D01*
X249499Y207945D01*
X249487Y207918D01*
X249486Y207846D01*
X249477Y207776D01*
X249485Y207748D01*
X249485Y207719D01*
X249520Y207625D01*
X249531Y207584D01*
X249538Y207576D01*
X249542Y207563D01*
X259042Y191063D01*
X259094Y191005D01*
X259140Y190942D01*
X259159Y190931D01*
X259174Y190914D01*
X259244Y190881D01*
X259311Y190841D01*
X259336Y190837D01*
X259353Y190828D01*
X259398Y190826D01*
X259475Y190813D01*
X278475Y190813D01*
X278503Y190819D01*
G37*
G36*
X353008Y336172D02*
X353008Y336172D01*
X353026Y336170D01*
X353208Y336191D01*
X353391Y336210D01*
X353408Y336215D01*
X353425Y336217D01*
X353600Y336274D01*
X353776Y336328D01*
X353791Y336336D01*
X353808Y336342D01*
X353968Y336432D01*
X354130Y336520D01*
X354143Y336531D01*
X354159Y336540D01*
X354298Y336660D01*
X354439Y336777D01*
X354450Y336791D01*
X354464Y336803D01*
X354576Y336948D01*
X354691Y337091D01*
X354699Y337107D01*
X354710Y337121D01*
X354792Y337286D01*
X354877Y337448D01*
X354882Y337465D01*
X354890Y337481D01*
X354937Y337660D01*
X354988Y337835D01*
X354990Y337853D01*
X354994Y337870D01*
X355021Y338201D01*
X355021Y342781D01*
X355057Y342848D01*
X355064Y342873D01*
X355076Y342897D01*
X355122Y343067D01*
X355171Y343233D01*
X355174Y343260D01*
X355181Y343286D01*
X355208Y343617D01*
X355208Y364366D01*
X355205Y364393D01*
X355207Y364419D01*
X355185Y364593D01*
X355168Y364767D01*
X355160Y364792D01*
X355157Y364819D01*
X355101Y364985D01*
X355050Y365152D01*
X355037Y365175D01*
X355028Y365201D01*
X354942Y365351D01*
X354858Y365506D01*
X354841Y365526D01*
X354827Y365549D01*
X354613Y365802D01*
X352425Y367990D01*
X351196Y370958D01*
X351196Y374172D01*
X352425Y377140D01*
X354697Y379412D01*
X357666Y380642D01*
X360879Y380642D01*
X362253Y380073D01*
X362266Y380069D01*
X362278Y380063D01*
X362458Y380011D01*
X362639Y379956D01*
X362652Y379955D01*
X362665Y379951D01*
X362852Y379936D01*
X363039Y379918D01*
X363053Y379919D01*
X363066Y379918D01*
X363252Y379940D01*
X363440Y379960D01*
X363453Y379964D01*
X363466Y379965D01*
X363644Y380023D01*
X363824Y380079D01*
X363836Y380086D01*
X363849Y380090D01*
X364012Y380182D01*
X364177Y380273D01*
X364188Y380281D01*
X364199Y380288D01*
X364341Y380410D01*
X364486Y380532D01*
X364494Y380542D01*
X364504Y380551D01*
X364619Y380699D01*
X364737Y380847D01*
X364743Y380859D01*
X364751Y380869D01*
X364834Y381037D01*
X364920Y381205D01*
X364924Y381218D01*
X364930Y381230D01*
X364979Y381412D01*
X365030Y381592D01*
X365031Y381605D01*
X365035Y381618D01*
X365062Y381949D01*
X365062Y439920D01*
X365059Y439947D01*
X365061Y439973D01*
X365039Y440147D01*
X365022Y440321D01*
X365014Y440346D01*
X365011Y440373D01*
X364955Y440539D01*
X364904Y440706D01*
X364891Y440729D01*
X364882Y440755D01*
X364795Y440906D01*
X364712Y441060D01*
X364695Y441080D01*
X364682Y441103D01*
X364467Y441356D01*
X360049Y445774D01*
X360029Y445791D01*
X360011Y445811D01*
X359873Y445918D01*
X359738Y446029D01*
X359714Y446041D01*
X359693Y446058D01*
X359536Y446136D01*
X359382Y446218D01*
X359357Y446225D01*
X359333Y446237D01*
X359163Y446283D01*
X358996Y446332D01*
X358970Y446335D01*
X358944Y446342D01*
X358613Y446369D01*
X357568Y446369D01*
X355337Y447293D01*
X353630Y449000D01*
X352706Y451230D01*
X352706Y453645D01*
X353630Y455875D01*
X355337Y457582D01*
X355369Y457595D01*
X355380Y457602D01*
X355393Y457606D01*
X355558Y457697D01*
X355723Y457785D01*
X355734Y457794D01*
X355746Y457800D01*
X355889Y457922D01*
X356034Y458042D01*
X356042Y458052D01*
X356053Y458061D01*
X356169Y458209D01*
X356288Y458354D01*
X356294Y458366D01*
X356302Y458377D01*
X356387Y458545D01*
X356475Y458711D01*
X356478Y458724D01*
X356484Y458736D01*
X356535Y458916D01*
X356588Y459097D01*
X356589Y459111D01*
X356592Y459124D01*
X356606Y459312D01*
X356622Y459498D01*
X356621Y459512D01*
X356622Y459525D01*
X356598Y459713D01*
X356577Y459899D01*
X356573Y459911D01*
X356571Y459925D01*
X356512Y460103D01*
X356454Y460282D01*
X356448Y460294D01*
X356443Y460306D01*
X356349Y460470D01*
X356258Y460633D01*
X356249Y460644D01*
X356242Y460655D01*
X356028Y460908D01*
X355138Y461797D01*
X355000Y461911D01*
X354865Y462026D01*
X354845Y462038D01*
X354827Y462052D01*
X354670Y462136D01*
X354514Y462223D01*
X354492Y462230D01*
X354471Y462241D01*
X354300Y462292D01*
X354130Y462347D01*
X354108Y462349D01*
X354085Y462356D01*
X353908Y462372D01*
X353730Y462392D01*
X353705Y462390D01*
X353684Y462392D01*
X353604Y462384D01*
X353399Y462370D01*
X352856Y462288D01*
X352790Y462271D01*
X352560Y462220D01*
X351712Y461959D01*
X351662Y461975D01*
X351537Y461989D01*
X351414Y462012D01*
X351338Y462011D01*
X351262Y462020D01*
X351099Y462009D01*
X351012Y462008D01*
X350977Y462001D01*
X350931Y461998D01*
X350076Y461869D01*
X350002Y461850D01*
X349926Y461840D01*
X349807Y461800D01*
X349686Y461770D01*
X349617Y461736D01*
X349544Y461712D01*
X349435Y461650D01*
X349335Y461601D01*
X348454Y461601D01*
X348387Y461595D01*
X348151Y461579D01*
X347274Y461446D01*
X347227Y461470D01*
X347106Y461502D01*
X346988Y461544D01*
X346912Y461554D01*
X346838Y461574D01*
X346675Y461588D01*
X346589Y461600D01*
X346553Y461598D01*
X346507Y461601D01*
X345643Y461601D01*
X345567Y461594D01*
X345490Y461596D01*
X345367Y461574D01*
X345242Y461561D01*
X345169Y461539D01*
X345094Y461526D01*
X344977Y461480D01*
X344870Y461447D01*
X343999Y461579D01*
X343932Y461582D01*
X343696Y461601D01*
X342809Y461601D01*
X342766Y461631D01*
X342651Y461681D01*
X342541Y461740D01*
X342467Y461762D01*
X342397Y461793D01*
X342238Y461830D01*
X342155Y461855D01*
X342119Y461858D01*
X342074Y461869D01*
X341219Y461998D01*
X341143Y462001D01*
X341067Y462015D01*
X340942Y462011D01*
X340817Y462018D01*
X340742Y462007D01*
X340665Y462005D01*
X340543Y461977D01*
X340433Y461960D01*
X339590Y462220D01*
X339524Y462234D01*
X339294Y462288D01*
X338417Y462420D01*
X338379Y462456D01*
X338273Y462523D01*
X338173Y462597D01*
X338103Y462630D01*
X338039Y462670D01*
X337887Y462731D01*
X337808Y462768D01*
X337773Y462777D01*
X337731Y462794D01*
X336904Y463049D01*
X336829Y463064D01*
X336757Y463088D01*
X336632Y463104D01*
X336510Y463129D01*
X336433Y463129D01*
X336357Y463138D01*
X336232Y463129D01*
X336121Y463129D01*
X335327Y463511D01*
X335264Y463535D01*
X335044Y463622D01*
X334196Y463884D01*
X334164Y463925D01*
X334070Y464007D01*
X333981Y464096D01*
X333917Y464138D01*
X333859Y464188D01*
X333719Y464271D01*
X333646Y464319D01*
X333613Y464333D01*
X333573Y464356D01*
X332794Y464731D01*
X332723Y464757D01*
X332654Y464792D01*
X332534Y464826D01*
X332416Y464869D01*
X332340Y464881D01*
X332267Y464901D01*
X332142Y464911D01*
X332032Y464928D01*
X331303Y465424D01*
X331244Y465456D01*
X331040Y465576D01*
X330241Y465961D01*
X330216Y466006D01*
X330134Y466101D01*
X330060Y466202D01*
X330003Y466254D01*
X329953Y466312D01*
X329827Y466414D01*
X329762Y466473D01*
X329731Y466491D01*
X329695Y466520D01*
X328981Y467007D01*
X328914Y467044D01*
X328852Y467089D01*
X328737Y467140D01*
X328627Y467200D01*
X328554Y467223D01*
X328485Y467254D01*
X328362Y467282D01*
X328256Y467315D01*
X327610Y467915D01*
X327556Y467955D01*
X327373Y468104D01*
X326639Y468604D01*
X326621Y468653D01*
X326554Y468759D01*
X326496Y468870D01*
X326448Y468929D01*
X326407Y468994D01*
X326297Y469114D01*
X326242Y469182D01*
X326214Y469205D01*
X326183Y469239D01*
X325549Y469827D01*
X325488Y469873D01*
X325434Y469926D01*
X325328Y469994D01*
X325228Y470070D01*
X325160Y470103D01*
X325095Y470145D01*
X324979Y470191D01*
X324878Y470239D01*
X324329Y470928D01*
X324282Y470976D01*
X324122Y471151D01*
X323472Y471754D01*
X323461Y471805D01*
X323411Y471920D01*
X323370Y472038D01*
X323331Y472104D01*
X323300Y472174D01*
X323209Y472310D01*
X323165Y472385D01*
X323141Y472412D01*
X323115Y472450D01*
X322576Y473126D01*
X322523Y473181D01*
X322477Y473242D01*
X322383Y473324D01*
X322295Y473414D01*
X322232Y473457D01*
X322175Y473508D01*
X322066Y473571D01*
X321974Y473634D01*
X321534Y474397D01*
X321494Y474452D01*
X321363Y474648D01*
X320809Y475341D01*
X320806Y475394D01*
X320774Y475515D01*
X320751Y475638D01*
X320722Y475709D01*
X320702Y475783D01*
X320632Y475930D01*
X320600Y476011D01*
X320580Y476041D01*
X320560Y476082D01*
X320128Y476831D01*
X320083Y476894D01*
X320047Y476961D01*
X319966Y477056D01*
X319893Y477158D01*
X319837Y477210D01*
X319788Y477269D01*
X319690Y477347D01*
X319609Y477423D01*
X319287Y478243D01*
X319256Y478303D01*
X319155Y478517D01*
X318711Y479285D01*
X318716Y479337D01*
X318702Y479462D01*
X318697Y479587D01*
X318680Y479662D01*
X318671Y479738D01*
X318624Y479894D01*
X318604Y479979D01*
X318589Y480011D01*
X318576Y480055D01*
X318260Y480860D01*
X318225Y480928D01*
X318199Y481000D01*
X318133Y481107D01*
X318076Y481219D01*
X318028Y481279D01*
X317989Y481344D01*
X317904Y481435D01*
X317834Y481523D01*
X317638Y482382D01*
X317617Y482446D01*
X317549Y482672D01*
X317224Y483498D01*
X317237Y483549D01*
X317241Y483674D01*
X317256Y483799D01*
X317249Y483875D01*
X317252Y483951D01*
X317229Y484113D01*
X317221Y484200D01*
X317211Y484234D01*
X317205Y484280D01*
X317012Y485123D01*
X316988Y485195D01*
X316973Y485270D01*
X316924Y485385D01*
X316884Y485504D01*
X316846Y485571D01*
X316817Y485641D01*
X316746Y485745D01*
X316690Y485841D01*
X316625Y486720D01*
X316613Y486786D01*
X316579Y487020D01*
X316382Y487885D01*
X316401Y487932D01*
X316425Y488056D01*
X316458Y488178D01*
X316462Y488253D01*
X316477Y488328D01*
X316478Y488492D01*
X316480Y488518D01*
X316483Y488562D01*
X316483Y488566D01*
X316484Y488580D01*
X316479Y488615D01*
X316479Y488660D01*
X316478Y488677D01*
X316453Y488819D01*
X316436Y488962D01*
X316418Y489017D01*
X316408Y489074D01*
X316356Y489208D01*
X316311Y489345D01*
X316283Y489395D01*
X316262Y489449D01*
X316184Y489570D01*
X316114Y489695D01*
X316076Y489739D01*
X316045Y489787D01*
X315945Y489891D01*
X315850Y490000D01*
X315805Y490035D01*
X315765Y490077D01*
X315646Y490159D01*
X315532Y490247D01*
X315481Y490272D01*
X315433Y490305D01*
X315301Y490362D01*
X315172Y490426D01*
X315116Y490441D01*
X315063Y490464D01*
X314922Y490493D01*
X314783Y490531D01*
X314717Y490536D01*
X314669Y490546D01*
X314586Y490547D01*
X314452Y490558D01*
X278916Y490558D01*
X278973Y491273D01*
X278969Y491301D01*
X278974Y491329D01*
X278957Y491399D01*
X278949Y491470D01*
X278935Y491495D01*
X278928Y491522D01*
X278885Y491580D01*
X278850Y491643D01*
X278827Y491660D01*
X278810Y491683D01*
X278748Y491719D01*
X278691Y491763D01*
X278663Y491770D01*
X278639Y491784D01*
X278539Y491801D01*
X278498Y491811D01*
X278488Y491810D01*
X278475Y491812D01*
X259475Y491812D01*
X259399Y491796D01*
X259321Y491788D01*
X259302Y491777D01*
X259280Y491772D01*
X259216Y491728D01*
X259148Y491690D01*
X259132Y491671D01*
X259116Y491660D01*
X259092Y491622D01*
X259042Y491562D01*
X249542Y475062D01*
X249533Y475034D01*
X249517Y475011D01*
X249502Y474941D01*
X249479Y474873D01*
X249482Y474845D01*
X249476Y474816D01*
X249490Y474746D01*
X249495Y474675D01*
X249508Y474649D01*
X249514Y474621D01*
X249554Y474562D01*
X249587Y474498D01*
X249609Y474480D01*
X249625Y474456D01*
X249708Y474399D01*
X249740Y474372D01*
X249751Y474369D01*
X249762Y474361D01*
X250389Y474065D01*
X232647Y443335D01*
X232589Y443205D01*
X232523Y443079D01*
X232506Y443022D01*
X232481Y442968D01*
X232450Y442829D01*
X232410Y442692D01*
X232405Y442633D01*
X232391Y442575D01*
X232387Y442433D01*
X232375Y442291D01*
X232382Y442232D01*
X232380Y442173D01*
X232405Y442033D01*
X232421Y441891D01*
X232439Y441834D01*
X232449Y441776D01*
X232500Y441644D01*
X232544Y441508D01*
X232573Y441456D01*
X232594Y441401D01*
X232671Y441281D01*
X232740Y441157D01*
X232779Y441111D01*
X232811Y441061D01*
X232910Y440959D01*
X233002Y440851D01*
X233052Y440811D01*
X233073Y440788D01*
X233078Y440785D01*
X233091Y440771D01*
X233158Y440725D01*
X233260Y440642D01*
X233268Y440636D01*
X233337Y440599D01*
X233400Y440553D01*
X233415Y440547D01*
X233422Y440542D01*
X233497Y440510D01*
X233513Y440503D01*
X233622Y440443D01*
X233696Y440420D01*
X233767Y440388D01*
X233888Y440360D01*
X233996Y440327D01*
X234642Y439728D01*
X234695Y439687D01*
X234879Y439539D01*
X235613Y439039D01*
X235631Y438990D01*
X235698Y438884D01*
X235756Y438773D01*
X235798Y438722D01*
X235804Y438711D01*
X235812Y438702D01*
X235845Y438649D01*
X235956Y438529D01*
X236010Y438461D01*
X236038Y438439D01*
X236067Y438407D01*
X236067Y438406D01*
X236068Y438406D01*
X236069Y438405D01*
X236705Y437815D01*
X236766Y437769D01*
X236821Y437715D01*
X236926Y437648D01*
X237026Y437572D01*
X237095Y437539D01*
X237159Y437497D01*
X237275Y437451D01*
X237376Y437403D01*
X237925Y436714D01*
X237973Y436666D01*
X238132Y436492D01*
X238783Y435888D01*
X238794Y435837D01*
X238844Y435722D01*
X238885Y435604D01*
X238924Y435538D01*
X238954Y435468D01*
X239046Y435333D01*
X239090Y435258D01*
X239114Y435231D01*
X239140Y435193D01*
X239680Y434515D01*
X239734Y434460D01*
X239780Y434399D01*
X239838Y434348D01*
X239842Y434344D01*
X239852Y434336D01*
X239874Y434317D01*
X239961Y434227D01*
X240025Y434184D01*
X240082Y434133D01*
X240190Y434070D01*
X240282Y434007D01*
X240723Y433245D01*
X240762Y433190D01*
X240894Y432994D01*
X241448Y432300D01*
X241451Y432248D01*
X241483Y432127D01*
X241507Y432004D01*
X241535Y431933D01*
X241555Y431859D01*
X241625Y431711D01*
X241658Y431631D01*
X241677Y431601D01*
X241697Y431559D01*
X242131Y430809D01*
X242175Y430746D01*
X242212Y430679D01*
X242293Y430583D01*
X242366Y430482D01*
X242422Y430430D01*
X242471Y430371D01*
X242569Y430293D01*
X242650Y430217D01*
X242973Y429397D01*
X243003Y429337D01*
X243105Y429123D01*
X243548Y428355D01*
X243544Y428303D01*
X243558Y428179D01*
X243562Y428053D01*
X243580Y427979D01*
X243589Y427903D01*
X243636Y427747D01*
X243656Y427662D01*
X243671Y427629D01*
X243684Y427585D01*
X244001Y426778D01*
X244036Y426710D01*
X244062Y426638D01*
X244128Y426531D01*
X244185Y426420D01*
X244233Y426360D01*
X244273Y426295D01*
X244358Y426203D01*
X244427Y426116D01*
X244623Y425257D01*
X244645Y425193D01*
X244713Y424967D01*
X245037Y424141D01*
X245025Y424090D01*
X245020Y423965D01*
X245006Y423840D01*
X245013Y423764D01*
X245010Y423687D01*
X245033Y423526D01*
X245041Y423439D01*
X245051Y423405D01*
X245057Y423359D01*
X245201Y422730D01*
X245261Y422551D01*
X245318Y422373D01*
X245325Y422361D01*
X245329Y422349D01*
X245423Y422186D01*
X245515Y422021D01*
X245523Y422011D01*
X245530Y422000D01*
X245654Y421859D01*
X245777Y421716D01*
X245787Y421707D01*
X245796Y421697D01*
X245946Y421583D01*
X246094Y421467D01*
X246105Y421461D01*
X246116Y421453D01*
X246286Y421371D01*
X246453Y421287D01*
X246466Y421283D01*
X246478Y421277D01*
X246660Y421230D01*
X246842Y421180D01*
X246855Y421179D01*
X246868Y421176D01*
X247056Y421166D01*
X247243Y421153D01*
X247256Y421154D01*
X247270Y421154D01*
X247457Y421181D01*
X247643Y421205D01*
X247656Y421209D01*
X247668Y421211D01*
X247730Y421233D01*
X247958Y421306D01*
X249618Y421994D01*
X252032Y421994D01*
X254263Y421070D01*
X255002Y420331D01*
X255023Y420314D01*
X255040Y420293D01*
X255178Y420186D01*
X255313Y420076D01*
X255337Y420063D01*
X255358Y420047D01*
X255515Y419969D01*
X255669Y419887D01*
X255695Y419879D01*
X255719Y419867D01*
X255888Y419822D01*
X256055Y419772D01*
X256082Y419770D01*
X256107Y419763D01*
X256438Y419736D01*
X263256Y419736D01*
X289283Y393708D01*
X289290Y393703D01*
X289296Y393696D01*
X289445Y393576D01*
X289595Y393453D01*
X289603Y393449D01*
X289610Y393444D01*
X289781Y393355D01*
X289950Y393265D01*
X289959Y393262D01*
X289967Y393258D01*
X290152Y393205D01*
X290336Y393150D01*
X290345Y393149D01*
X290354Y393147D01*
X290545Y393131D01*
X290737Y393114D01*
X290746Y393115D01*
X290755Y393114D01*
X290944Y393136D01*
X291138Y393157D01*
X291146Y393160D01*
X291155Y393161D01*
X291337Y393220D01*
X291521Y393278D01*
X291529Y393283D01*
X291538Y393286D01*
X291706Y393381D01*
X291874Y393473D01*
X291880Y393479D01*
X291888Y393483D01*
X292034Y393609D01*
X292181Y393734D01*
X292186Y393741D01*
X292193Y393747D01*
X292310Y393898D01*
X292430Y394050D01*
X292434Y394058D01*
X292440Y394065D01*
X292525Y394237D01*
X292613Y394409D01*
X292615Y394417D01*
X292619Y394425D01*
X292669Y394612D01*
X292721Y394797D01*
X292721Y394805D01*
X292724Y394814D01*
X292751Y395145D01*
X292751Y401172D01*
X294090Y402512D01*
X305985Y402512D01*
X307254Y401242D01*
X307275Y401225D01*
X307292Y401205D01*
X307430Y401098D01*
X307566Y400987D01*
X307589Y400975D01*
X307611Y400958D01*
X307767Y400880D01*
X307921Y400798D01*
X307947Y400791D01*
X307971Y400779D01*
X308140Y400733D01*
X308307Y400684D01*
X308334Y400681D01*
X308360Y400674D01*
X308691Y400647D01*
X318382Y400647D01*
X318400Y400649D01*
X318418Y400648D01*
X318600Y400669D01*
X318783Y400687D01*
X318800Y400692D01*
X318817Y400694D01*
X318992Y400751D01*
X319168Y400805D01*
X319183Y400814D01*
X319200Y400819D01*
X319360Y400910D01*
X319522Y400997D01*
X319535Y401008D01*
X319551Y401017D01*
X319690Y401137D01*
X319831Y401255D01*
X319842Y401269D01*
X319856Y401280D01*
X319968Y401425D01*
X320083Y401569D01*
X320091Y401584D01*
X320102Y401598D01*
X320184Y401763D01*
X320269Y401926D01*
X320274Y401943D01*
X320282Y401959D01*
X320329Y402137D01*
X320380Y402313D01*
X320382Y402331D01*
X320386Y402348D01*
X320413Y402678D01*
X320413Y402760D01*
X321753Y404099D01*
X338647Y404099D01*
X339987Y402760D01*
X339987Y387865D01*
X338647Y386526D01*
X337566Y386526D01*
X337548Y386524D01*
X337530Y386525D01*
X337348Y386504D01*
X337165Y386486D01*
X337148Y386481D01*
X337131Y386479D01*
X336956Y386422D01*
X336780Y386368D01*
X336765Y386359D01*
X336748Y386354D01*
X336588Y386263D01*
X336426Y386176D01*
X336413Y386165D01*
X336397Y386156D01*
X336258Y386036D01*
X336117Y385918D01*
X336106Y385904D01*
X336092Y385893D01*
X335980Y385748D01*
X335865Y385604D01*
X335857Y385589D01*
X335846Y385575D01*
X335763Y385409D01*
X335679Y385247D01*
X335674Y385230D01*
X335666Y385214D01*
X335619Y385036D01*
X335568Y384860D01*
X335566Y384842D01*
X335562Y384825D01*
X335535Y384495D01*
X335535Y378351D01*
X334723Y376391D01*
X332024Y373692D01*
X332007Y373671D01*
X331987Y373654D01*
X331880Y373516D01*
X331769Y373381D01*
X331757Y373357D01*
X331740Y373336D01*
X331662Y373179D01*
X331580Y373025D01*
X331573Y372999D01*
X331561Y372975D01*
X331515Y372806D01*
X331466Y372639D01*
X331463Y372612D01*
X331456Y372587D01*
X331429Y372256D01*
X331429Y365828D01*
X330090Y364488D01*
X323407Y364488D01*
X323398Y364487D01*
X323389Y364488D01*
X323196Y364467D01*
X323007Y364448D01*
X322998Y364446D01*
X322989Y364445D01*
X322804Y364386D01*
X322622Y364330D01*
X322614Y364326D01*
X322605Y364323D01*
X322436Y364230D01*
X322268Y364138D01*
X322261Y364133D01*
X322253Y364128D01*
X322106Y364004D01*
X321958Y363881D01*
X321953Y363874D01*
X321946Y363868D01*
X321826Y363716D01*
X321706Y363567D01*
X321702Y363559D01*
X321696Y363552D01*
X321609Y363379D01*
X321521Y363210D01*
X321518Y363201D01*
X321514Y363193D01*
X321462Y363007D01*
X321409Y362823D01*
X321408Y362814D01*
X321406Y362805D01*
X321392Y362612D01*
X321376Y362421D01*
X321377Y362413D01*
X321377Y362404D01*
X321401Y362211D01*
X321423Y362022D01*
X321426Y362013D01*
X321427Y362004D01*
X321489Y361821D01*
X321548Y361639D01*
X321553Y361631D01*
X321555Y361623D01*
X321651Y361456D01*
X321746Y361288D01*
X321752Y361281D01*
X321756Y361274D01*
X321971Y361021D01*
X342384Y340608D01*
X342384Y338201D01*
X342386Y338183D01*
X342384Y338165D01*
X342405Y337983D01*
X342424Y337800D01*
X342429Y337783D01*
X342431Y337766D01*
X342488Y337591D01*
X342542Y337415D01*
X342550Y337400D01*
X342556Y337383D01*
X342646Y337223D01*
X342734Y337061D01*
X342745Y337048D01*
X342754Y337032D01*
X342874Y336893D01*
X342991Y336752D01*
X343005Y336741D01*
X343017Y336727D01*
X343162Y336615D01*
X343305Y336500D01*
X343321Y336492D01*
X343335Y336481D01*
X343500Y336399D01*
X343662Y336314D01*
X343679Y336309D01*
X343695Y336301D01*
X343874Y336254D01*
X344049Y336203D01*
X344067Y336201D01*
X344084Y336197D01*
X344415Y336170D01*
X352990Y336170D01*
X353008Y336172D01*
G37*
G36*
X234460Y290274D02*
X234460Y290274D01*
X234506Y290272D01*
X234905Y290287D01*
X235091Y290312D01*
X235283Y290336D01*
X235293Y290340D01*
X235304Y290341D01*
X235482Y290403D01*
X235664Y290465D01*
X235674Y290470D01*
X235684Y290474D01*
X235847Y290570D01*
X236013Y290666D01*
X236022Y290673D01*
X236031Y290678D01*
X236075Y290718D01*
X236266Y290880D01*
X247247Y301861D01*
X247264Y301882D01*
X247284Y301899D01*
X247391Y302037D01*
X247502Y302173D01*
X247514Y302196D01*
X247531Y302217D01*
X247609Y302374D01*
X247691Y302528D01*
X247698Y302554D01*
X247710Y302578D01*
X247756Y302747D01*
X247805Y302914D01*
X247808Y302941D01*
X247815Y302967D01*
X247842Y303297D01*
X247842Y313727D01*
X247840Y313740D01*
X247842Y313753D01*
X247821Y313940D01*
X247802Y314127D01*
X247798Y314140D01*
X247796Y314153D01*
X247739Y314332D01*
X247684Y314512D01*
X247677Y314524D01*
X247673Y314537D01*
X247582Y314701D01*
X247492Y314866D01*
X247483Y314877D01*
X247477Y314888D01*
X247354Y315031D01*
X247234Y315175D01*
X247224Y315184D01*
X247215Y315194D01*
X247067Y315310D01*
X246920Y315428D01*
X246909Y315434D01*
X246898Y315442D01*
X246729Y315527D01*
X246563Y315613D01*
X246550Y315617D01*
X246538Y315623D01*
X246356Y315673D01*
X246176Y315725D01*
X246163Y315726D01*
X246150Y315729D01*
X245963Y315742D01*
X245775Y315758D01*
X245762Y315756D01*
X245748Y315757D01*
X245563Y315733D01*
X245375Y315711D01*
X245362Y315707D01*
X245349Y315705D01*
X245033Y315603D01*
X244858Y315531D01*
X240917Y315531D01*
X237276Y317039D01*
X234489Y319826D01*
X232981Y323467D01*
X232981Y327408D01*
X234489Y331049D01*
X237276Y333836D01*
X240917Y335344D01*
X244858Y335344D01*
X248499Y333836D01*
X250791Y331545D01*
X250804Y331533D01*
X250816Y331520D01*
X250960Y331406D01*
X251102Y331289D01*
X251118Y331281D01*
X251132Y331270D01*
X251296Y331187D01*
X251458Y331101D01*
X251475Y331096D01*
X251491Y331088D01*
X251668Y331038D01*
X251844Y330986D01*
X251862Y330984D01*
X251879Y330980D01*
X252062Y330966D01*
X252245Y330950D01*
X252263Y330952D01*
X252280Y330950D01*
X252462Y330973D01*
X252645Y330993D01*
X252662Y330999D01*
X252680Y331001D01*
X252853Y331059D01*
X253029Y331115D01*
X253045Y331123D01*
X253061Y331129D01*
X253221Y331221D01*
X253381Y331309D01*
X253395Y331321D01*
X253410Y331330D01*
X253663Y331545D01*
X254173Y332054D01*
X255959Y333841D01*
X257920Y334653D01*
X289098Y334653D01*
X291059Y333841D01*
X299706Y325193D01*
X300564Y323122D01*
X300566Y323109D01*
X300622Y322934D01*
X300676Y322758D01*
X300685Y322743D01*
X300690Y322726D01*
X300781Y322566D01*
X300868Y322404D01*
X300880Y322391D01*
X300888Y322375D01*
X301009Y322236D01*
X301126Y322095D01*
X301140Y322084D01*
X301151Y322070D01*
X301296Y321958D01*
X301440Y321843D01*
X301455Y321835D01*
X301470Y321824D01*
X301634Y321742D01*
X301797Y321657D01*
X301814Y321652D01*
X301830Y321644D01*
X302008Y321597D01*
X302184Y321546D01*
X302202Y321544D01*
X302219Y321540D01*
X302550Y321513D01*
X303149Y321513D01*
X303167Y321515D01*
X303185Y321513D01*
X303367Y321534D01*
X303550Y321553D01*
X303567Y321558D01*
X303584Y321560D01*
X303759Y321617D01*
X303935Y321671D01*
X303950Y321679D01*
X303967Y321685D01*
X304127Y321775D01*
X304289Y321863D01*
X304302Y321874D01*
X304318Y321883D01*
X304457Y322003D01*
X304598Y322120D01*
X304609Y322134D01*
X304623Y322146D01*
X304735Y322291D01*
X304850Y322434D01*
X304858Y322450D01*
X304869Y322464D01*
X304951Y322629D01*
X305036Y322791D01*
X305041Y322808D01*
X305049Y322824D01*
X305096Y323003D01*
X305147Y323178D01*
X305149Y323196D01*
X305153Y323213D01*
X305180Y323544D01*
X305180Y324999D01*
X305411Y325230D01*
X305428Y325250D01*
X305448Y325268D01*
X305555Y325406D01*
X305666Y325541D01*
X305678Y325565D01*
X305695Y325586D01*
X305773Y325743D01*
X305855Y325897D01*
X305862Y325922D01*
X305874Y325947D01*
X305920Y326116D01*
X305969Y326283D01*
X305972Y326309D01*
X305979Y326335D01*
X306006Y326666D01*
X306006Y326958D01*
X306003Y326985D01*
X306005Y327012D01*
X305983Y327185D01*
X305966Y327359D01*
X305958Y327385D01*
X305955Y327411D01*
X305899Y327577D01*
X305848Y327744D01*
X305835Y327767D01*
X305826Y327793D01*
X305739Y327945D01*
X305656Y328098D01*
X305639Y328118D01*
X305625Y328142D01*
X305411Y328395D01*
X305040Y328766D01*
X304228Y330726D01*
X304228Y341436D01*
X304225Y341463D01*
X304227Y341490D01*
X304205Y341664D01*
X304188Y341837D01*
X304180Y341863D01*
X304177Y341889D01*
X304121Y342055D01*
X304070Y342222D01*
X304057Y342246D01*
X304048Y342271D01*
X303961Y342422D01*
X303878Y342576D01*
X303861Y342596D01*
X303848Y342620D01*
X303633Y342873D01*
X277141Y369365D01*
X277127Y369376D01*
X277116Y369389D01*
X276971Y369504D01*
X276830Y369620D01*
X276814Y369628D01*
X276800Y369639D01*
X276635Y369723D01*
X276474Y369808D01*
X276457Y369813D01*
X276441Y369821D01*
X276264Y369871D01*
X276088Y369923D01*
X276070Y369925D01*
X276053Y369929D01*
X275870Y369943D01*
X275687Y369959D01*
X275669Y369957D01*
X275651Y369959D01*
X275470Y369936D01*
X275287Y369916D01*
X275270Y369911D01*
X275252Y369908D01*
X275079Y369850D01*
X274903Y369794D01*
X274887Y369786D01*
X274870Y369780D01*
X274711Y369688D01*
X274551Y369600D01*
X274537Y369588D01*
X274521Y369579D01*
X274268Y369364D01*
X274100Y369196D01*
X261205Y369196D01*
X259848Y370553D01*
X259828Y370570D01*
X259810Y370590D01*
X259672Y370697D01*
X259537Y370808D01*
X259513Y370820D01*
X259492Y370837D01*
X259335Y370915D01*
X259181Y370997D01*
X259156Y371004D01*
X259131Y371016D01*
X258962Y371062D01*
X258795Y371111D01*
X258769Y371114D01*
X258743Y371121D01*
X258412Y371148D01*
X252649Y371148D01*
X252623Y371145D01*
X252596Y371147D01*
X252422Y371125D01*
X252249Y371108D01*
X252223Y371100D01*
X252197Y371097D01*
X252031Y371041D01*
X251864Y370990D01*
X251840Y370977D01*
X251815Y370968D01*
X251663Y370881D01*
X251510Y370798D01*
X251489Y370781D01*
X251466Y370768D01*
X251213Y370553D01*
X248817Y368157D01*
X248800Y368136D01*
X248780Y368119D01*
X248673Y367981D01*
X248562Y367845D01*
X248550Y367822D01*
X248533Y367801D01*
X248455Y367644D01*
X248373Y367490D01*
X248366Y367464D01*
X248354Y367440D01*
X248308Y367271D01*
X248259Y367104D01*
X248256Y367077D01*
X248249Y367051D01*
X248222Y366721D01*
X248222Y360354D01*
X248225Y360328D01*
X248223Y360301D01*
X248245Y360127D01*
X248262Y359954D01*
X248270Y359928D01*
X248273Y359902D01*
X248329Y359736D01*
X248380Y359569D01*
X248393Y359545D01*
X248402Y359520D01*
X248489Y359368D01*
X248572Y359215D01*
X248589Y359194D01*
X248602Y359171D01*
X248817Y358918D01*
X251286Y356449D01*
X252794Y352808D01*
X252794Y348867D01*
X251286Y345226D01*
X248499Y342439D01*
X247975Y342222D01*
X244858Y340931D01*
X240917Y340931D01*
X237276Y342439D01*
X234489Y345226D01*
X232981Y348867D01*
X232981Y352808D01*
X234489Y356449D01*
X236958Y358918D01*
X236975Y358939D01*
X236995Y358956D01*
X237102Y359094D01*
X237213Y359230D01*
X237225Y359253D01*
X237242Y359274D01*
X237320Y359431D01*
X237402Y359585D01*
X237409Y359611D01*
X237421Y359635D01*
X237467Y359804D01*
X237516Y359971D01*
X237519Y359998D01*
X237526Y360024D01*
X237553Y360354D01*
X237553Y366721D01*
X237550Y366747D01*
X237552Y366774D01*
X237530Y366948D01*
X237513Y367121D01*
X237505Y367147D01*
X237502Y367173D01*
X237446Y367339D01*
X237395Y367506D01*
X237382Y367530D01*
X237373Y367555D01*
X237286Y367707D01*
X237203Y367860D01*
X237186Y367881D01*
X237173Y367904D01*
X236958Y368157D01*
X234489Y370626D01*
X232981Y374267D01*
X232981Y378208D01*
X234489Y381849D01*
X237276Y384636D01*
X238623Y385194D01*
X240917Y386144D01*
X244858Y386144D01*
X248499Y384636D01*
X250723Y382412D01*
X250744Y382395D01*
X250761Y382375D01*
X250899Y382268D01*
X251035Y382157D01*
X251058Y382145D01*
X251079Y382128D01*
X251236Y382050D01*
X251390Y381968D01*
X251416Y381961D01*
X251440Y381949D01*
X251609Y381903D01*
X251776Y381854D01*
X251803Y381851D01*
X251829Y381844D01*
X252159Y381817D01*
X258412Y381817D01*
X258438Y381820D01*
X258465Y381818D01*
X258639Y381840D01*
X258813Y381857D01*
X258838Y381865D01*
X258865Y381868D01*
X259030Y381924D01*
X259197Y381975D01*
X259221Y381988D01*
X259246Y381997D01*
X259398Y382084D01*
X259551Y382167D01*
X259572Y382184D01*
X259595Y382197D01*
X259848Y382412D01*
X261205Y383769D01*
X274691Y383769D01*
X274699Y383770D01*
X274708Y383769D01*
X274902Y383790D01*
X275091Y383809D01*
X275100Y383812D01*
X275109Y383813D01*
X275292Y383871D01*
X275476Y383927D01*
X275484Y383932D01*
X275493Y383934D01*
X275660Y384027D01*
X275830Y384119D01*
X275837Y384125D01*
X275845Y384129D01*
X275992Y384254D01*
X276139Y384377D01*
X276145Y384384D01*
X276152Y384390D01*
X276271Y384540D01*
X276392Y384691D01*
X276396Y384698D01*
X276401Y384705D01*
X276489Y384878D01*
X276577Y385048D01*
X276580Y385056D01*
X276584Y385064D01*
X276636Y385250D01*
X276689Y385435D01*
X276689Y385444D01*
X276692Y385452D01*
X276706Y385645D01*
X276722Y385836D01*
X276721Y385845D01*
X276721Y385854D01*
X276697Y386046D01*
X276675Y386236D01*
X276672Y386244D01*
X276671Y386253D01*
X276609Y386436D01*
X276550Y386619D01*
X276545Y386627D01*
X276543Y386635D01*
X276447Y386802D01*
X276352Y386969D01*
X276346Y386976D01*
X276342Y386984D01*
X276127Y387237D01*
X262957Y400407D01*
X262936Y400424D01*
X262919Y400444D01*
X262781Y400551D01*
X262645Y400662D01*
X262622Y400674D01*
X262601Y400691D01*
X262444Y400769D01*
X262290Y400851D01*
X262264Y400858D01*
X262240Y400870D01*
X262071Y400916D01*
X261904Y400965D01*
X261877Y400968D01*
X261851Y400975D01*
X261521Y401002D01*
X242963Y401002D01*
X242823Y400988D01*
X242682Y400982D01*
X242623Y400968D01*
X242563Y400962D01*
X242428Y400920D01*
X242291Y400887D01*
X242236Y400862D01*
X242178Y400844D01*
X242054Y400777D01*
X241926Y400717D01*
X241877Y400681D01*
X241824Y400652D01*
X241716Y400562D01*
X241602Y400478D01*
X241554Y400427D01*
X241514Y400394D01*
X241463Y400331D01*
X241375Y400236D01*
X240905Y399647D01*
X240868Y399590D01*
X240734Y399396D01*
X240291Y398628D01*
X240243Y398606D01*
X240142Y398531D01*
X240036Y398465D01*
X239981Y398412D01*
X239919Y398367D01*
X239807Y398248D01*
X239744Y398188D01*
X239723Y398158D01*
X239692Y398125D01*
X239152Y397447D01*
X239110Y397383D01*
X239061Y397324D01*
X239001Y397214D01*
X238933Y397109D01*
X238905Y397038D01*
X238869Y396970D01*
X238832Y396851D01*
X238791Y396747D01*
X238145Y396147D01*
X238100Y396097D01*
X237939Y395925D01*
X237386Y395231D01*
X237336Y395216D01*
X237225Y395158D01*
X237110Y395108D01*
X237047Y395064D01*
X236979Y395028D01*
X236851Y394927D01*
X236780Y394877D01*
X236755Y394852D01*
X236719Y394823D01*
X236083Y394233D01*
X236033Y394176D01*
X235975Y394125D01*
X235900Y394025D01*
X235817Y393931D01*
X235779Y393865D01*
X235732Y393804D01*
X235678Y393691D01*
X235622Y393595D01*
X234894Y393098D01*
X234842Y393055D01*
X234657Y392909D01*
X234007Y392305D01*
X233955Y392298D01*
X233836Y392257D01*
X233716Y392224D01*
X233647Y392190D01*
X233575Y392165D01*
X233433Y392084D01*
X233355Y392046D01*
X233326Y392024D01*
X233286Y392001D01*
X232570Y391513D01*
X232511Y391463D01*
X232447Y391422D01*
X232358Y391334D01*
X232262Y391254D01*
X232214Y391194D01*
X232159Y391141D01*
X232088Y391037D01*
X232019Y390950D01*
X231225Y390568D01*
X231168Y390532D01*
X230962Y390416D01*
X230229Y389916D01*
X230177Y389916D01*
X230054Y389893D01*
X229929Y389879D01*
X229857Y389856D01*
X229781Y389842D01*
X229629Y389783D01*
X229546Y389756D01*
X229515Y389739D01*
X229472Y389722D01*
X228691Y389346D01*
X228626Y389306D01*
X228556Y389275D01*
X228454Y389201D01*
X228347Y389136D01*
X228291Y389084D01*
X228229Y389040D01*
X228144Y388948D01*
X228062Y388872D01*
X227220Y388612D01*
X227158Y388586D01*
X226937Y388501D01*
X226138Y388116D01*
X226087Y388124D01*
X225961Y388120D01*
X225836Y388124D01*
X225761Y388112D01*
X225684Y388109D01*
X225525Y388074D01*
X225439Y388060D01*
X225405Y388048D01*
X225360Y388038D01*
X224532Y387782D01*
X224461Y387752D01*
X224388Y387731D01*
X224276Y387674D01*
X224161Y387626D01*
X224098Y387583D01*
X224029Y387548D01*
X223932Y387470D01*
X223839Y387407D01*
X222968Y387275D01*
X222903Y387259D01*
X222672Y387208D01*
X221824Y386946D01*
X221775Y386962D01*
X221650Y386976D01*
X221527Y386999D01*
X221450Y386998D01*
X221374Y387007D01*
X221212Y386996D01*
X221124Y386995D01*
X221089Y386988D01*
X221043Y386984D01*
X220186Y386855D01*
X220112Y386836D01*
X220036Y386827D01*
X219918Y386787D01*
X219796Y386756D01*
X219727Y386723D01*
X219655Y386698D01*
X219546Y386636D01*
X219446Y386587D01*
X218564Y386587D01*
X218498Y386580D01*
X218262Y386564D01*
X217384Y386432D01*
X217337Y386455D01*
X217217Y386487D01*
X217098Y386529D01*
X217023Y386540D01*
X216949Y386559D01*
X216786Y386573D01*
X216700Y386585D01*
X216664Y386583D01*
X216618Y386586D01*
X215751Y386586D01*
X215675Y386579D01*
X215599Y386580D01*
X215475Y386559D01*
X215350Y386546D01*
X215277Y386524D01*
X215202Y386510D01*
X215086Y386465D01*
X214979Y386432D01*
X214107Y386563D01*
X214040Y386566D01*
X213805Y386586D01*
X212917Y386585D01*
X212875Y386615D01*
X212760Y386665D01*
X212649Y386724D01*
X212576Y386746D01*
X212506Y386776D01*
X212347Y386814D01*
X212263Y386839D01*
X212227Y386842D01*
X212183Y386852D01*
X211325Y386981D01*
X211249Y386985D01*
X211174Y386998D01*
X211048Y386995D01*
X210923Y387002D01*
X210848Y386990D01*
X210771Y386988D01*
X210649Y386960D01*
X210539Y386944D01*
X209697Y387203D01*
X209631Y387217D01*
X209401Y387271D01*
X208523Y387403D01*
X208485Y387439D01*
X208379Y387506D01*
X208279Y387580D01*
X208209Y387613D01*
X208144Y387653D01*
X207993Y387714D01*
X207914Y387751D01*
X207879Y387759D01*
X207836Y387777D01*
X207008Y388032D01*
X206933Y388047D01*
X206860Y388071D01*
X206736Y388087D01*
X206613Y388112D01*
X206537Y388112D01*
X206461Y388121D01*
X206336Y388112D01*
X206224Y388112D01*
X205430Y388494D01*
X205367Y388517D01*
X205148Y388605D01*
X204300Y388866D01*
X204267Y388908D01*
X204173Y388989D01*
X204084Y389078D01*
X204020Y389121D01*
X203962Y389171D01*
X203822Y389253D01*
X203749Y389301D01*
X203716Y389315D01*
X203675Y389339D01*
X203649Y389351D01*
X203515Y389400D01*
X203384Y389456D01*
X203326Y389469D01*
X203271Y389489D01*
X203130Y389510D01*
X202990Y389540D01*
X202931Y389540D01*
X202873Y389549D01*
X202730Y389542D01*
X202588Y389544D01*
X202529Y389532D01*
X202470Y389530D01*
X202332Y389495D01*
X202192Y389468D01*
X202137Y389446D01*
X202080Y389431D01*
X201951Y389370D01*
X201819Y389316D01*
X201770Y389283D01*
X201717Y389258D01*
X201603Y389172D01*
X201484Y389093D01*
X201442Y389051D01*
X201395Y389016D01*
X201300Y388910D01*
X201199Y388809D01*
X201160Y388753D01*
X201127Y388715D01*
X201085Y388644D01*
X201010Y388536D01*
X183267Y357803D01*
X182659Y358223D01*
X182632Y358235D01*
X182610Y358253D01*
X182541Y358274D01*
X182476Y358301D01*
X182447Y358302D01*
X182419Y358310D01*
X182348Y358302D01*
X182277Y358302D01*
X182250Y358291D01*
X182221Y358288D01*
X182159Y358253D01*
X182094Y358225D01*
X182073Y358204D01*
X182048Y358190D01*
X181985Y358113D01*
X181955Y358082D01*
X181951Y358072D01*
X181942Y358062D01*
X172442Y341562D01*
X172418Y341489D01*
X172387Y341418D01*
X172387Y341395D01*
X172379Y341373D01*
X172386Y341296D01*
X172385Y341219D01*
X172394Y341195D01*
X172395Y341175D01*
X172416Y341135D01*
X172435Y341083D01*
X172436Y341078D01*
X172438Y341076D01*
X172442Y341063D01*
X181942Y324563D01*
X181961Y324542D01*
X181974Y324515D01*
X182027Y324468D01*
X182074Y324414D01*
X182100Y324402D01*
X182122Y324382D01*
X182189Y324359D01*
X182253Y324328D01*
X182282Y324327D01*
X182309Y324318D01*
X182381Y324322D01*
X182452Y324319D01*
X182479Y324329D01*
X182508Y324331D01*
X182598Y324374D01*
X182638Y324388D01*
X182646Y324396D01*
X182659Y324402D01*
X183267Y324822D01*
X201010Y294089D01*
X201093Y293973D01*
X201170Y293853D01*
X201211Y293810D01*
X201245Y293762D01*
X201349Y293665D01*
X201448Y293562D01*
X201496Y293528D01*
X201540Y293488D01*
X201661Y293413D01*
X201778Y293332D01*
X201832Y293308D01*
X201883Y293277D01*
X202017Y293228D01*
X202147Y293171D01*
X202205Y293158D01*
X202261Y293138D01*
X202401Y293116D01*
X202541Y293086D01*
X202600Y293085D01*
X202659Y293076D01*
X202801Y293083D01*
X202943Y293081D01*
X203002Y293092D01*
X203061Y293094D01*
X203199Y293129D01*
X203339Y293155D01*
X203402Y293179D01*
X203452Y293191D01*
X203526Y293227D01*
X203649Y293274D01*
X203675Y293286D01*
X203741Y293327D01*
X203812Y293358D01*
X203913Y293431D01*
X204019Y293496D01*
X204076Y293548D01*
X204139Y293593D01*
X204223Y293684D01*
X204306Y293761D01*
X205148Y294020D01*
X205210Y294046D01*
X205430Y294131D01*
X206230Y294516D01*
X206282Y294507D01*
X206407Y294512D01*
X206532Y294507D01*
X206607Y294519D01*
X206684Y294522D01*
X206843Y294557D01*
X206929Y294571D01*
X206963Y294583D01*
X207008Y294593D01*
X207836Y294848D01*
X207907Y294878D01*
X207981Y294899D01*
X208092Y294956D01*
X208207Y295005D01*
X208271Y295048D01*
X208339Y295082D01*
X208437Y295160D01*
X208529Y295223D01*
X209401Y295354D01*
X209465Y295371D01*
X209697Y295422D01*
X210545Y295683D01*
X210594Y295667D01*
X210719Y295653D01*
X210842Y295629D01*
X210918Y295630D01*
X210994Y295621D01*
X211157Y295632D01*
X211244Y295633D01*
X211279Y295641D01*
X211325Y295644D01*
X212183Y295773D01*
X212257Y295791D01*
X212333Y295801D01*
X212451Y295841D01*
X212573Y295872D01*
X212642Y295905D01*
X212714Y295929D01*
X212823Y295992D01*
X212923Y296040D01*
X213805Y296039D01*
X213872Y296046D01*
X214107Y296062D01*
X214985Y296194D01*
X215032Y296171D01*
X215152Y296138D01*
X215271Y296097D01*
X215347Y296086D01*
X215420Y296066D01*
X215583Y296053D01*
X215669Y296040D01*
X215705Y296043D01*
X215751Y296039D01*
X216618Y296039D01*
X216694Y296046D01*
X216771Y296044D01*
X216894Y296066D01*
X217019Y296078D01*
X217092Y296101D01*
X217167Y296114D01*
X217284Y296160D01*
X217390Y296192D01*
X218262Y296061D01*
X218329Y296057D01*
X218564Y296038D01*
X219452Y296038D01*
X219495Y296008D01*
X219609Y295957D01*
X219720Y295899D01*
X219793Y295877D01*
X219863Y295846D01*
X220022Y295809D01*
X220106Y295784D01*
X220142Y295781D01*
X220186Y295770D01*
X221043Y295641D01*
X221120Y295637D01*
X221195Y295623D01*
X221321Y295626D01*
X221446Y295620D01*
X221521Y295631D01*
X221598Y295633D01*
X221720Y295661D01*
X221830Y295677D01*
X222672Y295417D01*
X222738Y295404D01*
X222968Y295350D01*
X223845Y295217D01*
X223883Y295181D01*
X223989Y295115D01*
X224090Y295040D01*
X224159Y295007D01*
X224224Y294967D01*
X224375Y294906D01*
X224454Y294869D01*
X224489Y294860D01*
X224532Y294843D01*
X225360Y294587D01*
X225435Y294572D01*
X225508Y294548D01*
X225632Y294532D01*
X225755Y294507D01*
X225831Y294507D01*
X225907Y294498D01*
X226032Y294507D01*
X226144Y294507D01*
X226937Y294124D01*
X227001Y294101D01*
X227220Y294013D01*
X228068Y293751D01*
X228100Y293710D01*
X228195Y293628D01*
X228283Y293539D01*
X228347Y293497D01*
X228405Y293447D01*
X228545Y293364D01*
X228618Y293316D01*
X228651Y293302D01*
X228691Y293279D01*
X229472Y292903D01*
X229543Y292876D01*
X229612Y292841D01*
X229732Y292807D01*
X229850Y292765D01*
X229926Y292753D01*
X229999Y292732D01*
X230124Y292723D01*
X230234Y292706D01*
X230962Y292209D01*
X231022Y292177D01*
X231225Y292057D01*
X232024Y291672D01*
X232050Y291627D01*
X232132Y291531D01*
X232206Y291431D01*
X232262Y291379D01*
X232312Y291321D01*
X232439Y291218D01*
X232504Y291160D01*
X232534Y291141D01*
X232570Y291112D01*
X233286Y290624D01*
X233353Y290587D01*
X233415Y290543D01*
X233530Y290491D01*
X233640Y290431D01*
X233713Y290408D01*
X233782Y290377D01*
X233904Y290349D01*
X234024Y290312D01*
X234100Y290304D01*
X234175Y290287D01*
X234338Y290279D01*
X234425Y290270D01*
X234460Y290274D01*
G37*
G36*
X432751Y190829D02*
X432751Y190829D01*
X432829Y190837D01*
X432848Y190848D01*
X432870Y190853D01*
X432934Y190897D01*
X433002Y190935D01*
X433018Y190954D01*
X433034Y190965D01*
X433058Y191003D01*
X433108Y191063D01*
X442608Y207563D01*
X442617Y207591D01*
X442633Y207614D01*
X442648Y207684D01*
X442671Y207752D01*
X442668Y207781D01*
X442674Y207809D01*
X442661Y207879D01*
X442655Y207950D01*
X442642Y207976D01*
X442636Y208004D01*
X442596Y208063D01*
X442563Y208127D01*
X442541Y208145D01*
X442525Y208169D01*
X442442Y208226D01*
X442410Y208253D01*
X442399Y208256D01*
X442389Y208264D01*
X441761Y208560D01*
X459503Y239290D01*
X459562Y239423D01*
X459629Y239551D01*
X459645Y239606D01*
X459669Y239657D01*
X459701Y239799D01*
X459741Y239938D01*
X459746Y239994D01*
X459759Y240050D01*
X459763Y240195D01*
X459775Y240339D01*
X459768Y240395D01*
X459770Y240452D01*
X459745Y240595D01*
X459728Y240739D01*
X459711Y240793D01*
X459701Y240849D01*
X459649Y240984D01*
X459604Y241122D01*
X459576Y241172D01*
X459556Y241224D01*
X459478Y241346D01*
X459406Y241473D01*
X459369Y241516D01*
X459339Y241564D01*
X459238Y241668D01*
X459144Y241778D01*
X459097Y241816D01*
X459077Y241837D01*
X459072Y241840D01*
X459059Y241854D01*
X458991Y241901D01*
X458885Y241986D01*
X458877Y241992D01*
X458811Y242028D01*
X458750Y242071D01*
X458735Y242078D01*
X458728Y242083D01*
X458652Y242116D01*
X458635Y242123D01*
X458523Y242184D01*
X458452Y242206D01*
X458383Y242237D01*
X458259Y242265D01*
X458155Y242298D01*
X457508Y242897D01*
X457455Y242938D01*
X457271Y243086D01*
X456537Y243586D01*
X456519Y243635D01*
X456452Y243741D01*
X456394Y243852D01*
X456346Y243911D01*
X456305Y243976D01*
X456195Y244096D01*
X456140Y244164D01*
X456112Y244187D01*
X456081Y244220D01*
X455445Y244810D01*
X455384Y244856D01*
X455329Y244910D01*
X455224Y244977D01*
X455124Y245053D01*
X455055Y245086D01*
X454991Y245128D01*
X454875Y245174D01*
X454762Y245228D01*
X454687Y245247D01*
X454616Y245275D01*
X454606Y245277D01*
X454567Y245308D01*
X454504Y245340D01*
X454446Y245380D01*
X454325Y245431D01*
X454208Y245491D01*
X454140Y245510D01*
X454075Y245537D01*
X453947Y245563D01*
X453820Y245599D01*
X453750Y245604D01*
X453681Y245618D01*
X453550Y245619D01*
X453419Y245628D01*
X453349Y245619D01*
X453278Y245620D01*
X453150Y245594D01*
X453019Y245578D01*
X452952Y245555D01*
X452883Y245542D01*
X452762Y245491D01*
X452637Y245449D01*
X452577Y245414D01*
X452512Y245387D01*
X452402Y245314D01*
X452289Y245249D01*
X452226Y245196D01*
X452177Y245163D01*
X452124Y245109D01*
X452036Y245034D01*
X441316Y234314D01*
X379484Y234314D01*
X377160Y236638D01*
X377145Y236683D01*
X377094Y236850D01*
X377081Y236874D01*
X377073Y236899D01*
X376985Y237050D01*
X376902Y237204D01*
X376885Y237224D01*
X376872Y237248D01*
X376657Y237501D01*
X367703Y246455D01*
X366053Y248104D01*
X366046Y248110D01*
X366041Y248117D01*
X365891Y248237D01*
X365742Y248359D01*
X365734Y248364D01*
X365727Y248369D01*
X365557Y248458D01*
X365386Y248548D01*
X365377Y248551D01*
X365370Y248555D01*
X365185Y248608D01*
X365000Y248663D01*
X364991Y248664D01*
X364983Y248666D01*
X364792Y248682D01*
X364599Y248699D01*
X364590Y248698D01*
X364581Y248699D01*
X364392Y248677D01*
X364199Y248656D01*
X364190Y248653D01*
X364182Y248652D01*
X364000Y248593D01*
X363815Y248534D01*
X363807Y248530D01*
X363799Y248527D01*
X363632Y248433D01*
X363463Y248339D01*
X363456Y248334D01*
X363448Y248329D01*
X363303Y248204D01*
X363156Y248079D01*
X363150Y248072D01*
X363143Y248066D01*
X363027Y247916D01*
X362906Y247763D01*
X362902Y247755D01*
X362897Y247748D01*
X362811Y247577D01*
X362724Y247404D01*
X362721Y247396D01*
X362717Y247387D01*
X362667Y247202D01*
X362616Y247016D01*
X362615Y247007D01*
X362613Y246999D01*
X362586Y246668D01*
X362586Y237370D01*
X362588Y237343D01*
X362586Y237317D01*
X362608Y237143D01*
X362626Y236969D01*
X362633Y236944D01*
X362637Y236917D01*
X362692Y236751D01*
X362744Y236584D01*
X362757Y236561D01*
X362765Y236535D01*
X362852Y236384D01*
X362936Y236230D01*
X362953Y236210D01*
X362966Y236187D01*
X363181Y235934D01*
X378809Y220306D01*
X378829Y220289D01*
X378847Y220268D01*
X378985Y220161D01*
X379120Y220051D01*
X379144Y220038D01*
X379165Y220022D01*
X379322Y219944D01*
X379476Y219862D01*
X379501Y219854D01*
X379525Y219842D01*
X379695Y219797D01*
X379862Y219747D01*
X379888Y219745D01*
X379914Y219738D01*
X380245Y219711D01*
X384912Y219711D01*
X384938Y219713D01*
X384965Y219711D01*
X385139Y219733D01*
X385313Y219751D01*
X385338Y219758D01*
X385365Y219762D01*
X385530Y219817D01*
X385697Y219869D01*
X385721Y219882D01*
X385746Y219890D01*
X385898Y219977D01*
X386051Y220061D01*
X386072Y220078D01*
X386095Y220091D01*
X386348Y220306D01*
X387087Y221045D01*
X389318Y221969D01*
X391732Y221969D01*
X393963Y221045D01*
X395670Y219338D01*
X396594Y217107D01*
X396594Y214693D01*
X395670Y212462D01*
X393963Y210755D01*
X391732Y209831D01*
X389318Y209831D01*
X387087Y210755D01*
X386348Y211494D01*
X386327Y211511D01*
X386310Y211532D01*
X386172Y211639D01*
X386037Y211749D01*
X386013Y211762D01*
X385992Y211778D01*
X385835Y211856D01*
X385681Y211938D01*
X385655Y211946D01*
X385631Y211958D01*
X385462Y212003D01*
X385295Y212053D01*
X385268Y212055D01*
X385243Y212062D01*
X384912Y212089D01*
X376247Y212089D01*
X354964Y233372D01*
X354964Y241996D01*
X354963Y242009D01*
X354964Y242022D01*
X354943Y242209D01*
X354924Y242396D01*
X354920Y242409D01*
X354919Y242422D01*
X354861Y242602D01*
X354806Y242781D01*
X354800Y242793D01*
X354796Y242806D01*
X354704Y242970D01*
X354614Y243135D01*
X354606Y243146D01*
X354599Y243157D01*
X354477Y243300D01*
X354357Y243445D01*
X354346Y243453D01*
X354338Y243463D01*
X354189Y243579D01*
X354043Y243697D01*
X354031Y243703D01*
X354021Y243711D01*
X353851Y243796D01*
X353686Y243882D01*
X353673Y243886D01*
X353661Y243892D01*
X353478Y243942D01*
X353299Y243994D01*
X353285Y243995D01*
X353272Y243998D01*
X353084Y244011D01*
X352897Y244027D01*
X352884Y244025D01*
X352871Y244026D01*
X352683Y244001D01*
X352498Y243980D01*
X352485Y243976D01*
X352472Y243974D01*
X352156Y243872D01*
X350457Y243169D01*
X348043Y243169D01*
X347015Y243595D01*
X347002Y243599D01*
X346990Y243605D01*
X346809Y243657D01*
X346629Y243711D01*
X346616Y243712D01*
X346603Y243716D01*
X346415Y243732D01*
X346229Y243749D01*
X346215Y243748D01*
X346202Y243749D01*
X346015Y243727D01*
X345828Y243708D01*
X345815Y243704D01*
X345802Y243702D01*
X345624Y243644D01*
X345444Y243588D01*
X345432Y243581D01*
X345419Y243577D01*
X345256Y243485D01*
X345091Y243394D01*
X345080Y243386D01*
X345069Y243379D01*
X344926Y243256D01*
X344782Y243135D01*
X344774Y243125D01*
X344764Y243116D01*
X344649Y242968D01*
X344531Y242821D01*
X344525Y242809D01*
X344517Y242798D01*
X344434Y242630D01*
X344348Y242462D01*
X344344Y242450D01*
X344338Y242437D01*
X344288Y242254D01*
X344238Y242075D01*
X344237Y242062D01*
X344233Y242049D01*
X344206Y241718D01*
X344206Y240093D01*
X343282Y237862D01*
X341575Y236155D01*
X339345Y235231D01*
X336930Y235231D01*
X334936Y236057D01*
X334923Y236061D01*
X334912Y236067D01*
X334731Y236119D01*
X334551Y236174D01*
X334538Y236175D01*
X334525Y236179D01*
X334336Y236194D01*
X334150Y236212D01*
X334137Y236210D01*
X334123Y236212D01*
X333937Y236190D01*
X333750Y236170D01*
X333737Y236166D01*
X333724Y236165D01*
X333546Y236107D01*
X333365Y236050D01*
X333354Y236044D01*
X333341Y236040D01*
X333177Y235947D01*
X333012Y235857D01*
X333002Y235849D01*
X332990Y235842D01*
X332848Y235719D01*
X332704Y235598D01*
X332696Y235588D01*
X332685Y235579D01*
X332570Y235430D01*
X332453Y235283D01*
X332447Y235271D01*
X332439Y235261D01*
X332355Y235092D01*
X332269Y234925D01*
X332265Y234912D01*
X332259Y234900D01*
X332210Y234718D01*
X332159Y234538D01*
X332158Y234524D01*
X332155Y234511D01*
X332128Y234181D01*
X332128Y234131D01*
X332130Y234105D01*
X332128Y234078D01*
X332150Y233904D01*
X332168Y233731D01*
X332175Y233705D01*
X332179Y233678D01*
X332234Y233513D01*
X332286Y233346D01*
X332299Y233322D01*
X332307Y233297D01*
X332394Y233145D01*
X332478Y232992D01*
X332495Y232971D01*
X332508Y232948D01*
X332723Y232695D01*
X335841Y229577D01*
X335862Y229560D01*
X335879Y229539D01*
X336017Y229432D01*
X336152Y229322D01*
X336176Y229309D01*
X336197Y229293D01*
X336354Y229215D01*
X336508Y229133D01*
X336534Y229125D01*
X336558Y229113D01*
X336727Y229068D01*
X336894Y229018D01*
X336921Y229016D01*
X336946Y229009D01*
X337277Y228982D01*
X340208Y228982D01*
X340234Y228984D01*
X340261Y228982D01*
X340435Y229004D01*
X340609Y229022D01*
X340634Y229029D01*
X340661Y229033D01*
X340827Y229089D01*
X340993Y229140D01*
X341017Y229153D01*
X341042Y229161D01*
X341194Y229248D01*
X341347Y229332D01*
X341368Y229349D01*
X341391Y229362D01*
X341644Y229577D01*
X342637Y230570D01*
X344868Y231494D01*
X347282Y231494D01*
X349513Y230570D01*
X351220Y228863D01*
X352144Y226632D01*
X352144Y224218D01*
X351666Y223065D01*
X351648Y223005D01*
X351622Y222947D01*
X351590Y222812D01*
X351550Y222680D01*
X351544Y222617D01*
X351529Y222555D01*
X351525Y222417D01*
X351512Y222279D01*
X351518Y222216D01*
X351516Y222153D01*
X351539Y222016D01*
X351553Y221879D01*
X351572Y221818D01*
X351583Y221756D01*
X351632Y221627D01*
X351673Y221494D01*
X351703Y221439D01*
X351726Y221380D01*
X351800Y221263D01*
X351866Y221141D01*
X351907Y221093D01*
X351941Y221039D01*
X352036Y220939D01*
X352126Y220833D01*
X352175Y220793D01*
X352219Y220748D01*
X352332Y220668D01*
X352440Y220582D01*
X352497Y220553D01*
X352548Y220517D01*
X352675Y220461D01*
X352799Y220398D01*
X352859Y220381D01*
X352917Y220355D01*
X353105Y220311D01*
X353186Y220288D01*
X353210Y220286D01*
X353240Y220279D01*
X353733Y220205D01*
X353771Y220169D01*
X353877Y220102D01*
X353977Y220028D01*
X354047Y219995D01*
X354111Y219955D01*
X354263Y219894D01*
X354342Y219857D01*
X354377Y219848D01*
X354419Y219831D01*
X355246Y219576D01*
X355321Y219561D01*
X355393Y219537D01*
X355518Y219521D01*
X355640Y219496D01*
X355717Y219496D01*
X355793Y219487D01*
X355918Y219496D01*
X356029Y219496D01*
X356823Y219114D01*
X356886Y219090D01*
X357106Y219003D01*
X357954Y218741D01*
X357986Y218700D01*
X358080Y218618D01*
X358169Y218529D01*
X358233Y218487D01*
X358290Y218437D01*
X358431Y218354D01*
X358504Y218306D01*
X358537Y218292D01*
X358577Y218269D01*
X359356Y217894D01*
X359428Y217868D01*
X359496Y217833D01*
X359616Y217799D01*
X359734Y217756D01*
X359810Y217744D01*
X359883Y217724D01*
X360008Y217714D01*
X360119Y217697D01*
X360847Y217201D01*
X360906Y217169D01*
X361110Y217049D01*
X361909Y216664D01*
X361934Y216619D01*
X362016Y216524D01*
X362090Y216423D01*
X362147Y216371D01*
X362197Y216313D01*
X362323Y216211D01*
X362388Y216152D01*
X362419Y216134D01*
X362455Y216105D01*
X363169Y215618D01*
X363236Y215581D01*
X363298Y215536D01*
X363413Y215485D01*
X363523Y215425D01*
X363596Y215402D01*
X363665Y215371D01*
X363788Y215343D01*
X363894Y215310D01*
X364540Y214710D01*
X364594Y214670D01*
X364777Y214521D01*
X365511Y214021D01*
X365529Y213972D01*
X365596Y213866D01*
X365654Y213755D01*
X365702Y213696D01*
X365743Y213631D01*
X365853Y213511D01*
X365908Y213443D01*
X365936Y213420D01*
X365967Y213386D01*
X366601Y212798D01*
X366662Y212752D01*
X366716Y212699D01*
X366822Y212631D01*
X366922Y212555D01*
X366990Y212522D01*
X367055Y212480D01*
X367171Y212434D01*
X367272Y212386D01*
X367821Y211697D01*
X367868Y211649D01*
X368028Y211474D01*
X368678Y210871D01*
X368689Y210820D01*
X368739Y210705D01*
X368780Y210587D01*
X368819Y210521D01*
X368850Y210451D01*
X368940Y210315D01*
X368985Y210240D01*
X369009Y210213D01*
X369035Y210175D01*
X369574Y209499D01*
X369627Y209444D01*
X369673Y209383D01*
X369767Y209300D01*
X369855Y209211D01*
X369918Y209168D01*
X369975Y209117D01*
X370084Y209054D01*
X370176Y208991D01*
X370616Y208228D01*
X370656Y208174D01*
X370787Y207977D01*
X371341Y207284D01*
X371344Y207231D01*
X371376Y207110D01*
X371399Y206987D01*
X371428Y206916D01*
X371448Y206842D01*
X371518Y206695D01*
X371550Y206614D01*
X371570Y206584D01*
X371590Y206543D01*
X372022Y205794D01*
X372067Y205731D01*
X372103Y205664D01*
X372184Y205569D01*
X372257Y205467D01*
X372313Y205415D01*
X372362Y205356D01*
X372460Y205278D01*
X372541Y205202D01*
X372863Y204382D01*
X372894Y204322D01*
X372995Y204108D01*
X373439Y203340D01*
X373434Y203288D01*
X373448Y203163D01*
X373453Y203038D01*
X373470Y202963D01*
X373479Y202887D01*
X373526Y202731D01*
X373546Y202646D01*
X373561Y202614D01*
X373574Y202570D01*
X373890Y201765D01*
X373925Y201697D01*
X373951Y201625D01*
X374017Y201518D01*
X374074Y201406D01*
X374122Y201346D01*
X374161Y201281D01*
X374246Y201190D01*
X374316Y201102D01*
X374512Y200243D01*
X374533Y200179D01*
X374601Y199953D01*
X374926Y199127D01*
X374913Y199076D01*
X374909Y198951D01*
X374894Y198826D01*
X374901Y198750D01*
X374898Y198674D01*
X374921Y198512D01*
X374929Y198425D01*
X374939Y198391D01*
X374945Y198345D01*
X375138Y197502D01*
X375162Y197430D01*
X375177Y197355D01*
X375226Y197239D01*
X375266Y197121D01*
X375304Y197054D01*
X375333Y196984D01*
X375404Y196880D01*
X375460Y196784D01*
X375525Y195905D01*
X375537Y195839D01*
X375571Y195605D01*
X375768Y194740D01*
X375749Y194693D01*
X375725Y194569D01*
X375692Y194447D01*
X375688Y194372D01*
X375673Y194297D01*
X375672Y194133D01*
X375670Y194107D01*
X375667Y194063D01*
X375667Y194059D01*
X375666Y194045D01*
X375671Y194010D01*
X375671Y193965D01*
X375672Y193948D01*
X375697Y193806D01*
X375714Y193663D01*
X375732Y193608D01*
X375742Y193551D01*
X375794Y193417D01*
X375839Y193280D01*
X375867Y193230D01*
X375888Y193176D01*
X375966Y193055D01*
X376036Y192930D01*
X376074Y192886D01*
X376105Y192838D01*
X376206Y192734D01*
X376300Y192625D01*
X376345Y192590D01*
X376385Y192548D01*
X376504Y192466D01*
X376618Y192378D01*
X376669Y192353D01*
X376717Y192320D01*
X376849Y192263D01*
X376978Y192199D01*
X377034Y192184D01*
X377087Y192161D01*
X377228Y192132D01*
X377367Y192094D01*
X377433Y192089D01*
X377481Y192079D01*
X377564Y192078D01*
X377698Y192067D01*
X413234Y192067D01*
X413177Y191352D01*
X413181Y191324D01*
X413176Y191296D01*
X413193Y191226D01*
X413201Y191155D01*
X413216Y191130D01*
X413222Y191103D01*
X413265Y191045D01*
X413301Y190982D01*
X413323Y190965D01*
X413340Y190942D01*
X413402Y190906D01*
X413459Y190862D01*
X413487Y190855D01*
X413511Y190841D01*
X413611Y190824D01*
X413652Y190814D01*
X413662Y190815D01*
X413675Y190813D01*
X432675Y190813D01*
X432751Y190829D01*
G37*
G36*
X489420Y293083D02*
X489420Y293083D01*
X489562Y293081D01*
X489621Y293093D01*
X489680Y293095D01*
X489818Y293130D01*
X489958Y293157D01*
X490013Y293179D01*
X490070Y293194D01*
X490199Y293255D01*
X490331Y293309D01*
X490380Y293342D01*
X490433Y293367D01*
X490547Y293453D01*
X490666Y293532D01*
X490708Y293574D01*
X490755Y293609D01*
X490850Y293715D01*
X490951Y293816D01*
X490990Y293872D01*
X491023Y293910D01*
X491065Y293981D01*
X491140Y294089D01*
X508883Y324822D01*
X509491Y324402D01*
X509518Y324390D01*
X509540Y324372D01*
X509609Y324352D01*
X509674Y324324D01*
X509703Y324323D01*
X509731Y324315D01*
X509802Y324323D01*
X509873Y324323D01*
X509900Y324334D01*
X509929Y324337D01*
X509991Y324373D01*
X510056Y324400D01*
X510077Y324421D01*
X510102Y324435D01*
X510165Y324512D01*
X510195Y324543D01*
X510199Y324553D01*
X510208Y324563D01*
X519708Y341063D01*
X519718Y341095D01*
X519727Y341108D01*
X519731Y341133D01*
X519732Y341136D01*
X519763Y341207D01*
X519763Y341230D01*
X519771Y341252D01*
X519765Y341329D01*
X519766Y341406D01*
X519756Y341430D01*
X519755Y341450D01*
X519734Y341490D01*
X519708Y341562D01*
X510208Y358062D01*
X510189Y358083D01*
X510176Y358110D01*
X510123Y358157D01*
X510076Y358211D01*
X510050Y358223D01*
X510029Y358243D01*
X509961Y358266D01*
X509897Y358297D01*
X509868Y358298D01*
X509841Y358307D01*
X509769Y358303D01*
X509698Y358306D01*
X509671Y358296D01*
X509642Y358294D01*
X509552Y358251D01*
X509512Y358237D01*
X509504Y358229D01*
X509491Y358223D01*
X508883Y357803D01*
X491140Y388536D01*
X491057Y388652D01*
X490980Y388772D01*
X490939Y388815D01*
X490905Y388863D01*
X490801Y388960D01*
X490702Y389063D01*
X490654Y389097D01*
X490610Y389137D01*
X490489Y389212D01*
X490372Y389293D01*
X490318Y389317D01*
X490267Y389348D01*
X490133Y389397D01*
X490003Y389454D01*
X489945Y389467D01*
X489889Y389487D01*
X489749Y389509D01*
X489609Y389539D01*
X489550Y389540D01*
X489491Y389549D01*
X489349Y389542D01*
X489207Y389544D01*
X489148Y389533D01*
X489089Y389531D01*
X488951Y389496D01*
X488811Y389470D01*
X488748Y389446D01*
X488698Y389434D01*
X488624Y389398D01*
X488501Y389351D01*
X488475Y389339D01*
X488409Y389298D01*
X488338Y389267D01*
X488237Y389194D01*
X488131Y389129D01*
X488074Y389077D01*
X488011Y389032D01*
X487927Y388940D01*
X487844Y388864D01*
X487002Y388605D01*
X486941Y388579D01*
X486720Y388494D01*
X485920Y388109D01*
X485869Y388118D01*
X485743Y388113D01*
X485618Y388118D01*
X485543Y388106D01*
X485466Y388103D01*
X485307Y388068D01*
X485221Y388054D01*
X485187Y388042D01*
X485142Y388032D01*
X484314Y387777D01*
X484243Y387747D01*
X484169Y387726D01*
X484058Y387669D01*
X483943Y387620D01*
X483879Y387577D01*
X483811Y387543D01*
X483713Y387465D01*
X483621Y387402D01*
X482749Y387271D01*
X482685Y387254D01*
X482453Y387203D01*
X481605Y386942D01*
X481556Y386958D01*
X481431Y386972D01*
X481308Y386996D01*
X481232Y386995D01*
X481156Y387004D01*
X480993Y386993D01*
X480906Y386992D01*
X480871Y386984D01*
X480825Y386981D01*
X479967Y386852D01*
X479893Y386834D01*
X479817Y386824D01*
X479699Y386784D01*
X479577Y386753D01*
X479508Y386720D01*
X479436Y386696D01*
X479327Y386633D01*
X479227Y386585D01*
X478345Y386586D01*
X478278Y386579D01*
X478043Y386563D01*
X477165Y386431D01*
X477118Y386454D01*
X476998Y386487D01*
X476879Y386528D01*
X476803Y386539D01*
X476730Y386559D01*
X476567Y386572D01*
X476481Y386585D01*
X476445Y386582D01*
X476399Y386586D01*
X475532Y386586D01*
X475456Y386579D01*
X475379Y386581D01*
X475256Y386559D01*
X475131Y386547D01*
X475058Y386524D01*
X474983Y386511D01*
X474866Y386465D01*
X474760Y386433D01*
X473888Y386564D01*
X473821Y386568D01*
X473586Y386587D01*
X472698Y386587D01*
X472655Y386617D01*
X472541Y386668D01*
X472430Y386726D01*
X472357Y386748D01*
X472287Y386779D01*
X472128Y386816D01*
X472044Y386841D01*
X472009Y386844D01*
X471964Y386855D01*
X471195Y386971D01*
X471025Y386980D01*
X470856Y386994D01*
X470824Y386990D01*
X470793Y386992D01*
X470625Y386967D01*
X470456Y386947D01*
X470426Y386937D01*
X470395Y386932D01*
X470235Y386875D01*
X470073Y386822D01*
X470046Y386806D01*
X470016Y386796D01*
X469871Y386708D01*
X469723Y386624D01*
X469699Y386603D01*
X469672Y386587D01*
X469546Y386472D01*
X469418Y386361D01*
X469399Y386336D01*
X469375Y386314D01*
X469275Y386177D01*
X469171Y386043D01*
X469157Y386014D01*
X469138Y385989D01*
X469068Y385834D01*
X468992Y385682D01*
X468984Y385652D01*
X468970Y385623D01*
X468931Y385458D01*
X468887Y385293D01*
X468884Y385258D01*
X468878Y385231D01*
X468875Y385145D01*
X468860Y384963D01*
X468860Y299484D01*
X468497Y299120D01*
X468495Y299118D01*
X468493Y299116D01*
X468456Y299070D01*
X468426Y299034D01*
X468348Y298954D01*
X468299Y298879D01*
X468242Y298809D01*
X468190Y298710D01*
X468129Y298617D01*
X468095Y298533D01*
X468053Y298453D01*
X468021Y298346D01*
X467980Y298242D01*
X467964Y298154D01*
X467938Y298067D01*
X467928Y297956D01*
X467909Y297846D01*
X467910Y297756D01*
X467902Y297666D01*
X467914Y297555D01*
X467916Y297444D01*
X467936Y297356D01*
X467945Y297266D01*
X467979Y297159D01*
X468003Y297051D01*
X468040Y296968D01*
X468067Y296882D01*
X468121Y296784D01*
X468166Y296682D01*
X468218Y296609D01*
X468262Y296530D01*
X468334Y296445D01*
X468398Y296354D01*
X468464Y296292D01*
X468522Y296223D01*
X468610Y296154D01*
X468691Y296077D01*
X468767Y296029D01*
X468838Y295973D01*
X468938Y295923D01*
X469032Y295863D01*
X469117Y295832D01*
X469197Y295791D01*
X469305Y295761D01*
X469409Y295722D01*
X469498Y295707D01*
X469585Y295683D01*
X469696Y295675D01*
X469806Y295657D01*
X469896Y295660D01*
X469987Y295653D01*
X470097Y295667D01*
X470209Y295671D01*
X470289Y295689D01*
X470303Y295687D01*
X470375Y295663D01*
X470500Y295649D01*
X470623Y295626D01*
X470700Y295627D01*
X470776Y295618D01*
X470938Y295629D01*
X471026Y295630D01*
X471061Y295637D01*
X471107Y295641D01*
X471964Y295770D01*
X472038Y295789D01*
X472114Y295798D01*
X472232Y295838D01*
X472354Y295869D01*
X472423Y295902D01*
X472495Y295927D01*
X472604Y295989D01*
X472704Y296038D01*
X473586Y296038D01*
X473652Y296045D01*
X473888Y296061D01*
X474766Y296193D01*
X474812Y296170D01*
X474933Y296138D01*
X475052Y296096D01*
X475127Y296085D01*
X475201Y296066D01*
X475364Y296052D01*
X475450Y296040D01*
X475486Y296042D01*
X475532Y296039D01*
X476399Y296039D01*
X476475Y296046D01*
X476552Y296045D01*
X476675Y296066D01*
X476799Y296079D01*
X476873Y296101D01*
X476948Y296115D01*
X477065Y296160D01*
X477171Y296193D01*
X478043Y296062D01*
X478110Y296059D01*
X478345Y296039D01*
X479233Y296040D01*
X479275Y296010D01*
X479390Y295960D01*
X479501Y295901D01*
X479574Y295879D01*
X479644Y295849D01*
X479803Y295811D01*
X479887Y295786D01*
X479923Y295783D01*
X479967Y295773D01*
X480825Y295644D01*
X480901Y295640D01*
X480976Y295627D01*
X481102Y295630D01*
X481227Y295623D01*
X481302Y295635D01*
X481379Y295637D01*
X481501Y295665D01*
X481611Y295681D01*
X482453Y295422D01*
X482519Y295408D01*
X482749Y295354D01*
X483627Y295222D01*
X483665Y295186D01*
X483771Y295119D01*
X483871Y295045D01*
X483941Y295012D01*
X484006Y294972D01*
X484157Y294911D01*
X484236Y294874D01*
X484271Y294866D01*
X484314Y294848D01*
X485142Y294593D01*
X485217Y294578D01*
X485290Y294554D01*
X485414Y294538D01*
X485537Y294513D01*
X485613Y294513D01*
X485689Y294504D01*
X485814Y294513D01*
X485926Y294513D01*
X486720Y294131D01*
X486782Y294108D01*
X487002Y294020D01*
X487850Y293759D01*
X487883Y293717D01*
X487977Y293636D01*
X488066Y293547D01*
X488130Y293504D01*
X488188Y293454D01*
X488328Y293372D01*
X488401Y293324D01*
X488434Y293310D01*
X488475Y293286D01*
X488501Y293274D01*
X488635Y293225D01*
X488766Y293169D01*
X488824Y293156D01*
X488879Y293136D01*
X489020Y293115D01*
X489160Y293085D01*
X489219Y293085D01*
X489277Y293076D01*
X489420Y293083D01*
G37*
G36*
X478016Y388880D02*
X478016Y388880D01*
X478059Y388879D01*
X482052Y389479D01*
X482082Y389490D01*
X482125Y389496D01*
X485984Y390685D01*
X486012Y390700D01*
X486053Y390712D01*
X489691Y392463D01*
X489713Y392479D01*
X489739Y392489D01*
X489792Y392539D01*
X489850Y392583D01*
X489863Y392606D01*
X489883Y392625D01*
X489913Y392692D01*
X489949Y392755D01*
X489952Y392782D01*
X489963Y392807D01*
X489964Y392880D01*
X489973Y392953D01*
X489965Y392979D01*
X489965Y393006D01*
X489929Y393105D01*
X489917Y393144D01*
X489911Y393151D01*
X489907Y393162D01*
X462907Y439962D01*
X462889Y439982D01*
X462878Y440007D01*
X462824Y440056D01*
X462776Y440111D01*
X462751Y440123D01*
X462731Y440141D01*
X462662Y440165D01*
X462596Y440197D01*
X462569Y440198D01*
X462544Y440207D01*
X462471Y440202D01*
X462398Y440206D01*
X462372Y440196D01*
X462345Y440195D01*
X462249Y440151D01*
X462211Y440136D01*
X462204Y440130D01*
X462194Y440125D01*
X458857Y437852D01*
X458835Y437829D01*
X458799Y437805D01*
X455838Y435060D01*
X455819Y435034D01*
X455787Y435005D01*
X453269Y431849D01*
X453254Y431821D01*
X453227Y431788D01*
X451207Y428291D01*
X451197Y428261D01*
X451174Y428224D01*
X449698Y424466D01*
X449693Y424435D01*
X449676Y424395D01*
X448776Y420459D01*
X448776Y420427D01*
X448765Y420385D01*
X448462Y416359D01*
X448465Y416335D01*
X448462Y416315D01*
X448464Y416306D01*
X448462Y416284D01*
X448763Y412258D01*
X448771Y412227D01*
X448774Y412184D01*
X449671Y408247D01*
X449684Y408218D01*
X449693Y408176D01*
X451167Y404417D01*
X451184Y404390D01*
X451199Y404349D01*
X453217Y400852D01*
X453238Y400828D01*
X453259Y400790D01*
X455775Y397633D01*
X455800Y397612D01*
X455826Y397578D01*
X458785Y394831D01*
X458812Y394814D01*
X458843Y394784D01*
X462179Y392509D01*
X462208Y392496D01*
X462243Y392471D01*
X465881Y390718D01*
X465911Y390711D01*
X465950Y390691D01*
X469808Y389500D01*
X469840Y389497D01*
X469881Y389483D01*
X473873Y388880D01*
X473905Y388882D01*
X473947Y388874D01*
X477985Y388873D01*
X478016Y388880D01*
G37*
G36*
X218203Y388874D02*
X218203Y388874D01*
X218234Y388881D01*
X218277Y388880D01*
X222269Y389483D01*
X222299Y389494D01*
X222342Y389500D01*
X226200Y390691D01*
X226228Y390706D01*
X226270Y390718D01*
X229907Y392471D01*
X229932Y392491D01*
X229971Y392509D01*
X233307Y394784D01*
X233329Y394807D01*
X233365Y394831D01*
X236324Y397578D01*
X236343Y397604D01*
X236375Y397633D01*
X238891Y400790D01*
X238906Y400819D01*
X238933Y400852D01*
X240951Y404349D01*
X240961Y404380D01*
X240983Y404417D01*
X242457Y408176D01*
X242463Y408207D01*
X242479Y408247D01*
X243376Y412184D01*
X243377Y412216D01*
X243387Y412258D01*
X243688Y416284D01*
X243684Y416316D01*
X243685Y416332D01*
X243688Y416348D01*
X243687Y416352D01*
X243688Y416359D01*
X243385Y420385D01*
X243376Y420416D01*
X243374Y420459D01*
X242474Y424395D01*
X242461Y424424D01*
X242452Y424466D01*
X240976Y428224D01*
X240958Y428251D01*
X240943Y428291D01*
X238923Y431788D01*
X238902Y431811D01*
X238881Y431849D01*
X236363Y435005D01*
X236338Y435026D01*
X236312Y435060D01*
X233351Y437805D01*
X233324Y437822D01*
X233293Y437852D01*
X229956Y440125D01*
X229931Y440136D01*
X229910Y440153D01*
X229840Y440174D01*
X229773Y440202D01*
X229745Y440202D01*
X229719Y440210D01*
X229647Y440202D01*
X229574Y440201D01*
X229549Y440191D01*
X229522Y440188D01*
X229458Y440152D01*
X229391Y440123D01*
X229372Y440104D01*
X229349Y440090D01*
X229282Y440009D01*
X229253Y439980D01*
X229250Y439971D01*
X229243Y439962D01*
X202243Y393162D01*
X202234Y393136D01*
X202218Y393114D01*
X202203Y393043D01*
X202179Y392973D01*
X202182Y392946D01*
X202176Y392920D01*
X202189Y392848D01*
X202195Y392775D01*
X202208Y392751D01*
X202213Y392724D01*
X202253Y392664D01*
X202287Y392599D01*
X202308Y392581D01*
X202323Y392559D01*
X202409Y392498D01*
X202440Y392472D01*
X202449Y392469D01*
X202459Y392463D01*
X206097Y390712D01*
X206128Y390704D01*
X206166Y390685D01*
X210025Y389496D01*
X210057Y389493D01*
X210098Y389479D01*
X214091Y388879D01*
X214122Y388880D01*
X214165Y388873D01*
X218203Y388874D01*
G37*
G36*
X462503Y242423D02*
X462503Y242423D01*
X462576Y242424D01*
X462601Y242434D01*
X462628Y242437D01*
X462692Y242473D01*
X462759Y242502D01*
X462778Y242521D01*
X462801Y242535D01*
X462869Y242616D01*
X462897Y242645D01*
X462900Y242654D01*
X462907Y242663D01*
X489907Y289463D01*
X489916Y289489D01*
X489932Y289511D01*
X489947Y289582D01*
X489971Y289652D01*
X489968Y289679D01*
X489974Y289705D01*
X489961Y289777D01*
X489955Y289850D01*
X489942Y289874D01*
X489937Y289901D01*
X489897Y289962D01*
X489863Y290026D01*
X489842Y290044D01*
X489827Y290066D01*
X489741Y290127D01*
X489710Y290153D01*
X489701Y290156D01*
X489691Y290162D01*
X486053Y291913D01*
X486022Y291921D01*
X485984Y291940D01*
X482125Y293129D01*
X482093Y293132D01*
X482052Y293146D01*
X478059Y293746D01*
X478028Y293745D01*
X477985Y293752D01*
X473947Y293751D01*
X473916Y293744D01*
X473873Y293745D01*
X469881Y293142D01*
X469851Y293131D01*
X469808Y293125D01*
X465950Y291934D01*
X465922Y291919D01*
X465881Y291907D01*
X462243Y290154D01*
X462218Y290134D01*
X462179Y290116D01*
X458843Y287841D01*
X458821Y287818D01*
X458785Y287794D01*
X455826Y285047D01*
X455807Y285021D01*
X455775Y284992D01*
X453259Y281835D01*
X453244Y281806D01*
X453217Y281773D01*
X451199Y278276D01*
X451189Y278245D01*
X451167Y278208D01*
X449693Y274449D01*
X449687Y274418D01*
X449671Y274378D01*
X448774Y270441D01*
X448773Y270409D01*
X448763Y270367D01*
X448462Y266341D01*
X448466Y266309D01*
X448462Y266266D01*
X448765Y262240D01*
X448774Y262209D01*
X448776Y262166D01*
X449676Y258230D01*
X449689Y258201D01*
X449698Y258159D01*
X451174Y254401D01*
X451192Y254374D01*
X451207Y254334D01*
X453227Y250838D01*
X453248Y250814D01*
X453269Y250776D01*
X455787Y247620D01*
X455812Y247600D01*
X455838Y247565D01*
X458799Y244820D01*
X458826Y244803D01*
X458857Y244773D01*
X462194Y242500D01*
X462219Y242489D01*
X462240Y242472D01*
X462310Y242451D01*
X462377Y242423D01*
X462405Y242423D01*
X462431Y242415D01*
X462503Y242423D01*
G37*
G36*
X229679Y242423D02*
X229679Y242423D01*
X229752Y242419D01*
X229778Y242429D01*
X229805Y242430D01*
X229901Y242474D01*
X229939Y242489D01*
X229946Y242495D01*
X229956Y242500D01*
X233293Y244773D01*
X233315Y244796D01*
X233351Y244820D01*
X236312Y247565D01*
X236331Y247591D01*
X236363Y247620D01*
X238881Y250776D01*
X238896Y250804D01*
X238923Y250838D01*
X240943Y254334D01*
X240953Y254364D01*
X240976Y254401D01*
X242452Y258159D01*
X242457Y258190D01*
X242474Y258230D01*
X243374Y262166D01*
X243374Y262198D01*
X243385Y262240D01*
X243688Y266266D01*
X243684Y266298D01*
X243688Y266341D01*
X243387Y270367D01*
X243379Y270398D01*
X243376Y270441D01*
X242479Y274378D01*
X242466Y274407D01*
X242457Y274449D01*
X240983Y278208D01*
X240966Y278235D01*
X240951Y278276D01*
X238933Y281773D01*
X238912Y281797D01*
X238891Y281835D01*
X236375Y284992D01*
X236350Y285013D01*
X236324Y285047D01*
X233365Y287794D01*
X233338Y287811D01*
X233307Y287841D01*
X229971Y290116D01*
X229942Y290129D01*
X229907Y290154D01*
X226270Y291907D01*
X226239Y291914D01*
X226200Y291934D01*
X222342Y293125D01*
X222310Y293128D01*
X222269Y293142D01*
X218277Y293745D01*
X218245Y293743D01*
X218203Y293751D01*
X214165Y293752D01*
X214134Y293746D01*
X214091Y293746D01*
X210098Y293146D01*
X210068Y293135D01*
X210025Y293129D01*
X206166Y291940D01*
X206138Y291925D01*
X206097Y291913D01*
X202459Y290162D01*
X202437Y290146D01*
X202411Y290136D01*
X202358Y290086D01*
X202300Y290042D01*
X202287Y290019D01*
X202267Y290000D01*
X202237Y289933D01*
X202201Y289870D01*
X202198Y289843D01*
X202187Y289818D01*
X202186Y289745D01*
X202177Y289672D01*
X202185Y289646D01*
X202185Y289619D01*
X202221Y289520D01*
X202233Y289481D01*
X202239Y289474D01*
X202243Y289463D01*
X229243Y242663D01*
X229261Y242643D01*
X229272Y242618D01*
X229326Y242569D01*
X229374Y242514D01*
X229399Y242502D01*
X229419Y242484D01*
X229488Y242460D01*
X229554Y242428D01*
X229581Y242427D01*
X229606Y242418D01*
X229679Y242423D01*
G37*
G36*
X348124Y463895D02*
X348124Y463895D01*
X348167Y463894D01*
X352157Y464496D01*
X352187Y464507D01*
X352230Y464512D01*
X356086Y465702D01*
X356114Y465717D01*
X356156Y465729D01*
X359792Y467480D01*
X359817Y467499D01*
X359856Y467517D01*
X363190Y469791D01*
X363213Y469813D01*
X363249Y469837D01*
X366207Y472582D01*
X366226Y472608D01*
X366258Y472637D01*
X368774Y475792D01*
X368788Y475820D01*
X368816Y475853D01*
X370834Y479348D01*
X370844Y479378D01*
X370866Y479415D01*
X372340Y483172D01*
X372341Y483178D01*
X372343Y483180D01*
X372347Y483206D01*
X372362Y483243D01*
X373260Y487177D01*
X373261Y487209D01*
X373271Y487251D01*
X373573Y491275D01*
X373569Y491302D01*
X373574Y491329D01*
X373557Y491400D01*
X373548Y491472D01*
X373534Y491496D01*
X373528Y491522D01*
X373485Y491581D01*
X373448Y491644D01*
X373426Y491661D01*
X373410Y491683D01*
X373347Y491720D01*
X373289Y491764D01*
X373262Y491770D01*
X373239Y491784D01*
X373135Y491802D01*
X373096Y491811D01*
X373086Y491810D01*
X373075Y491812D01*
X319075Y491812D01*
X319048Y491806D01*
X319021Y491809D01*
X318952Y491787D01*
X318880Y491772D01*
X318858Y491757D01*
X318832Y491749D01*
X318776Y491701D01*
X318716Y491660D01*
X318702Y491637D01*
X318681Y491619D01*
X318649Y491554D01*
X318609Y491492D01*
X318605Y491465D01*
X318593Y491441D01*
X318583Y491336D01*
X318576Y491296D01*
X318578Y491287D01*
X318577Y491275D01*
X318879Y487251D01*
X318887Y487220D01*
X318890Y487177D01*
X319788Y483243D01*
X319801Y483214D01*
X319810Y483172D01*
X321284Y479415D01*
X321301Y479388D01*
X321316Y479348D01*
X323334Y475853D01*
X323355Y475829D01*
X323376Y475792D01*
X325892Y472637D01*
X325917Y472616D01*
X325943Y472582D01*
X328901Y469837D01*
X328928Y469821D01*
X328960Y469791D01*
X332294Y467517D01*
X332323Y467505D01*
X332358Y467480D01*
X335994Y465729D01*
X336025Y465721D01*
X336064Y465702D01*
X339920Y464512D01*
X339951Y464509D01*
X339993Y464496D01*
X343983Y463894D01*
X344015Y463896D01*
X344057Y463889D01*
X348093Y463889D01*
X348124Y463895D01*
G37*
G36*
X373102Y190819D02*
X373102Y190819D01*
X373129Y190816D01*
X373198Y190838D01*
X373270Y190853D01*
X373292Y190868D01*
X373318Y190877D01*
X373374Y190924D01*
X373434Y190965D01*
X373448Y190988D01*
X373469Y191006D01*
X373502Y191071D01*
X373541Y191133D01*
X373545Y191160D01*
X373557Y191184D01*
X373567Y191289D01*
X373574Y191329D01*
X373572Y191338D01*
X373573Y191350D01*
X373271Y195374D01*
X373263Y195405D01*
X373260Y195448D01*
X372362Y199382D01*
X372349Y199411D01*
X372340Y199453D01*
X370866Y203210D01*
X370849Y203237D01*
X370834Y203277D01*
X368816Y206772D01*
X368795Y206796D01*
X368774Y206833D01*
X366258Y209988D01*
X366233Y210009D01*
X366207Y210043D01*
X363249Y212788D01*
X363222Y212804D01*
X363190Y212834D01*
X359856Y215108D01*
X359827Y215120D01*
X359792Y215145D01*
X356156Y216896D01*
X356125Y216904D01*
X356086Y216923D01*
X352230Y218113D01*
X352199Y218116D01*
X352157Y218129D01*
X348167Y218731D01*
X348135Y218729D01*
X348093Y218736D01*
X344057Y218736D01*
X344026Y218730D01*
X343983Y218731D01*
X339993Y218129D01*
X339963Y218118D01*
X339920Y218113D01*
X336064Y216923D01*
X336036Y216908D01*
X335994Y216896D01*
X332358Y215145D01*
X332333Y215126D01*
X332294Y215108D01*
X328960Y212834D01*
X328937Y212812D01*
X328901Y212788D01*
X325943Y210043D01*
X325925Y210017D01*
X325892Y209988D01*
X323376Y206833D01*
X323362Y206805D01*
X323334Y206772D01*
X321316Y203277D01*
X321306Y203247D01*
X321284Y203210D01*
X319810Y199453D01*
X319804Y199422D01*
X319788Y199382D01*
X318890Y195448D01*
X318889Y195416D01*
X318879Y195374D01*
X318577Y191350D01*
X318581Y191323D01*
X318576Y191296D01*
X318593Y191225D01*
X318602Y191153D01*
X318616Y191129D01*
X318622Y191103D01*
X318665Y191044D01*
X318702Y190981D01*
X318724Y190964D01*
X318740Y190942D01*
X318803Y190905D01*
X318861Y190861D01*
X318888Y190855D01*
X318911Y190841D01*
X319015Y190823D01*
X319054Y190814D01*
X319064Y190815D01*
X319075Y190813D01*
X373075Y190813D01*
X373102Y190819D01*
G37*
D10*
X400368Y382198D03*
X400368Y365198D03*
D11*
X398780Y421933D03*
X398780Y402933D03*
D12*
X407353Y274703D03*
X407353Y286703D03*
X407353Y298702D03*
D13*
X428308Y382588D03*
D14*
X440618Y438785D03*
X423618Y438785D03*
D10*
X401320Y330590D03*
X401320Y347590D03*
D14*
X267653Y359483D03*
X267653Y376483D03*
D11*
X421640Y350495D03*
X421640Y331495D03*
D14*
X428943Y296935D03*
X428943Y313935D03*
X258200Y273050D03*
X275200Y273050D03*
D15*
X280963Y303213D03*
X261963Y303213D03*
D16*
X428675Y484413D03*
X511275Y341313D03*
X428675Y198213D03*
X263475Y198213D03*
X180875Y341313D03*
X263475Y484413D03*
X469975Y412813D03*
X469975Y269813D03*
X346075Y198213D03*
X222175Y269813D03*
X222175Y412813D03*
X346075Y484413D03*
D17*
X359273Y408485D03*
D18*
X323353Y372565D03*
D17*
X359273Y372565D03*
D11*
X330200Y395313D03*
X330200Y414313D03*
D10*
X300038Y411725D03*
X300038Y394725D03*
D19*
X380619Y322782D03*
X380619Y317781D03*
X380619Y312779D03*
X380619Y307778D03*
X380619Y302777D03*
X380619Y297776D03*
X380619Y292774D03*
X380619Y287773D03*
X380619Y282772D03*
X380619Y277771D03*
X380619Y272769D03*
X380619Y267768D03*
D20*
X373582Y260731D03*
X368581Y260731D03*
X363579Y260731D03*
X358578Y260731D03*
X353577Y260731D03*
X348576Y260731D03*
X343574Y260731D03*
X338573Y260731D03*
X333572Y260731D03*
X328571Y260731D03*
X323569Y260731D03*
X318568Y260731D03*
D19*
X311531Y267768D03*
X311531Y272769D03*
X311531Y277771D03*
X311531Y282772D03*
X311531Y287773D03*
X311531Y292774D03*
X311531Y297776D03*
X311531Y302777D03*
X311531Y307778D03*
X311531Y312779D03*
X311531Y317781D03*
X311531Y322782D03*
D20*
X318568Y329819D03*
X323569Y329819D03*
X328571Y329819D03*
X333572Y329819D03*
X338573Y329819D03*
X343574Y329819D03*
X348576Y329819D03*
X353577Y329819D03*
X358578Y329819D03*
X363579Y329819D03*
X368581Y329819D03*
X373582Y329819D03*
D21*
X346075Y295275D03*
D22*
X242888Y376238D03*
X242888Y350838D03*
X242888Y325438D03*
D23*
X407353Y286703D02*
X418710Y286703D01*
X428943Y296935D01*
D24*
X279400Y255588D03*
X417513Y400050D03*
X485775Y381000D03*
X492125Y314325D03*
X449263Y233363D03*
X361950Y290513D03*
X258763Y395288D03*
X277813Y414338D03*
X250825Y287338D03*
X238125Y300038D03*
D25*
X311531Y292774D02*
X316893Y292774D01*
X317533Y292133D01*
X319088Y293688D01*
D26*
X300038Y394725D02*
X300625Y395313D01*
X330200Y395313D01*
X330200Y379413D01*
X323353Y372565D01*
D27*
X280963Y303213D02*
X280963Y298450D01*
X277813Y288925D02*
X277788Y288900D01*
X280963Y303213D02*
X280963Y307975D01*
D25*
X281637Y297776D02*
X311531Y297776D01*
X281637Y297776D02*
X280963Y298450D01*
D24*
X277813Y288925D03*
D28*
X275200Y286313D02*
X275200Y273050D01*
X275200Y286313D02*
X277788Y288900D01*
X277813Y288925D02*
X277813Y300063D01*
X280963Y303213D01*
D25*
X395091Y282772D02*
X402875Y274988D01*
X402590Y274703D02*
X407353Y274703D01*
X402875Y274988D02*
X402590Y274703D01*
X395091Y282772D02*
X380619Y282772D01*
X395288Y260350D02*
X415925Y260350D01*
D27*
X458788Y303213D01*
X458788Y387350D01*
D24*
X441325Y404813D03*
D27*
X458788Y387350D01*
D25*
X388239Y270511D02*
X388239Y267399D01*
X395288Y260350D01*
X385981Y272769D02*
X380619Y272769D01*
X385981Y272769D02*
X388239Y270511D01*
X465050Y407887D02*
X469975Y412813D01*
X416400Y252413D02*
X389625Y252413D01*
D27*
X416400Y252413D02*
X465050Y301062D01*
X465050Y407887D01*
D25*
X380619Y267768D02*
X380619Y261418D01*
X389625Y252413D01*
D27*
X442913Y254000D02*
X444500Y254000D01*
X442913Y254000D02*
X434912Y245999D01*
X385139Y245999D01*
D24*
X444500Y254000D03*
D25*
X373582Y257556D02*
X373582Y260731D01*
X373582Y257556D02*
X385139Y245999D01*
D27*
X381063Y238125D02*
X439738Y238125D01*
X469975Y268363D01*
D25*
X469975Y269813D01*
X368581Y260731D02*
X368581Y250607D01*
X381063Y238125D01*
D24*
X346075Y225425D03*
D25*
X328571Y231817D02*
X328571Y260731D01*
X328571Y231817D02*
X334963Y225425D01*
X346075Y225425D01*
X323569Y220719D02*
X323569Y260731D01*
X323569Y220719D02*
X346075Y198213D01*
D27*
X261678Y415925D02*
X250825Y415925D01*
D24*
X250825Y415925D03*
D25*
X338573Y339030D02*
X338573Y329819D01*
D27*
X338573Y339030D02*
X261678Y415925D01*
X263940Y404813D02*
X220663Y404813D01*
D25*
X220663Y411300D01*
X222175Y412813D01*
D27*
X263940Y404813D02*
X330397Y338356D01*
D25*
X333572Y335181D02*
X333572Y329819D01*
X333572Y335181D02*
X330397Y338356D01*
X298886Y287773D02*
X293688Y282575D01*
D24*
X293688Y282575D03*
D25*
X298886Y287773D02*
X311531Y287773D01*
D27*
X251653Y300878D02*
X251653Y312291D01*
X261822Y322460D01*
X285196Y322460D02*
X304800Y302856D01*
X285196Y322460D02*
X261822Y322460D01*
D25*
X304879Y302777D02*
X311531Y302777D01*
X304879Y302777D02*
X304800Y302856D01*
D27*
X222175Y271400D02*
X222175Y269813D01*
X222175Y271400D02*
X251653Y300878D01*
D25*
X311356Y317956D02*
X311531Y317781D01*
D26*
X255101Y325438D02*
X242888Y325438D01*
X255101Y325438D02*
X258981Y329318D01*
X288037Y329318D01*
X295184Y322171D01*
D25*
X299399Y317956D01*
X311356Y317956D01*
D26*
X242888Y350838D02*
X242888Y376238D01*
X243133Y376483D01*
X267653Y376483D01*
X277568Y376483D01*
X309563Y344488D02*
X309563Y331788D01*
D25*
X309563Y324751D01*
X311531Y322782D01*
D26*
X309563Y344488D02*
X277568Y376483D01*
D24*
X293688Y258763D03*
D25*
X298169Y272769D02*
X311531Y272769D01*
X298169Y272769D02*
X293688Y268288D01*
X293688Y258763D01*
X389155Y277771D02*
X400954Y265972D01*
X413609Y265972D01*
X452438Y304800D01*
X452438Y367983D02*
X437833Y382588D01*
X428308Y382588D01*
X452438Y367983D02*
X452438Y304800D01*
X389155Y277771D02*
X380619Y277771D01*
D28*
X428308Y382588D02*
X428308Y424180D01*
X423618Y428870D01*
X423618Y438785D01*
D25*
X407353Y298702D02*
X404848Y298702D01*
X393918Y287773D01*
X380619Y287773D01*
D27*
X375170Y341313D02*
X375170Y447156D01*
X344488Y477838D01*
X344488Y482825D01*
X346075Y484413D01*
D25*
X373582Y339725D02*
X373582Y329819D01*
X373582Y339725D02*
X375170Y341313D01*
D24*
X358775Y452438D03*
D25*
X368756Y329994D02*
X368581Y329819D01*
X368756Y329994D02*
X368756Y343293D01*
D27*
X368756Y366885D01*
X368873Y367001D01*
X368873Y442340D02*
X358775Y452438D01*
X368873Y442340D02*
X368873Y367001D01*
D25*
X380619Y302777D02*
X380619Y297776D01*
X380619Y302777D02*
X380619Y307778D01*
X380794Y307953D01*
X386156Y307953D01*
D28*
X392764Y339034D02*
X401320Y347590D01*
D25*
X392764Y314561D02*
X386156Y307953D01*
X392764Y314561D02*
X392764Y339034D01*
D26*
X403126Y349396D02*
X422739Y349396D01*
X403126Y349396D02*
X401320Y347590D01*
D29*
X421640Y350495D02*
X422739Y349396D01*
D24*
X395288Y434975D03*
D26*
X399256Y431006D01*
D27*
X398780Y421933D02*
X398120Y421933D01*
X387350Y411163D02*
X387350Y378215D01*
X387350Y411163D02*
X398120Y421933D01*
X387350Y378215D02*
X400368Y365198D01*
D26*
X401320Y364245D02*
X401320Y347590D01*
D27*
X401320Y364245D02*
X400368Y365198D01*
D26*
X398780Y421933D02*
X398780Y430530D01*
X399256Y431006D01*
D25*
X353577Y260731D02*
X353752Y260556D01*
X353752Y255194D01*
X358775Y250171D02*
X358775Y244475D01*
X358775Y250171D02*
X353752Y255194D01*
D27*
X358775Y244475D02*
X358775Y234950D01*
X377825Y215900D01*
X390525Y215900D01*
D24*
X390525Y215900D03*
X349250Y249238D03*
D25*
X348576Y248564D01*
X348576Y260731D01*
D23*
X359273Y341810D02*
X359273Y372565D01*
D25*
X358578Y341116D02*
X358578Y329819D01*
X358578Y341116D02*
X359273Y341810D01*
X338573Y260731D02*
X338573Y248086D01*
X338138Y247650D01*
X338138Y241300D01*
D24*
X338138Y241300D03*
D25*
X380619Y292774D02*
X380795Y292950D01*
X386156Y292950D01*
X406965Y313760D01*
D27*
X407141Y313935D01*
D26*
X428943Y313935D01*
D27*
X421640Y321238D01*
D26*
X421640Y331495D01*
D27*
X402225Y331495D02*
X401320Y330590D01*
X402225Y331495D02*
X421640Y331495D01*
X420173Y362393D02*
X400368Y382198D01*
X437713Y339630D02*
X429578Y331495D01*
X421640Y331495D01*
X398780Y383785D02*
X398780Y402933D01*
X398780Y383785D02*
X400368Y382198D01*
X437068Y362393D02*
X437713Y361748D01*
X437713Y339630D01*
X437068Y362393D02*
X420173Y362393D01*
M02*
