G04 EAGLE Gerber RS-274X export*
G75*
%MOMM*%
%FSLAX34Y34*%
%LPD*%
%INSolderpaste Bottom*%
%IPPOS*%
%AMOC8*
5,1,8,0,0,1.08239X$1,22.5*%
G01*
%ADD10R,1.000000X1.100000*%
%ADD11R,1.500000X1.300000*%
%ADD12R,1.399997X0.400000*%
%ADD13R,1.100000X1.000000*%
%ADD14R,1.300000X1.500000*%
%ADD15R,0.812800X0.254000*%
%ADD16R,0.254000X0.812800*%

G36*
X330853Y310374D02*
X330853Y310374D01*
X330855Y310373D01*
X330898Y310393D01*
X330942Y310411D01*
X330942Y310413D01*
X330944Y310414D01*
X330977Y310499D01*
X330977Y322723D01*
X330976Y322725D01*
X330977Y322727D01*
X330957Y322770D01*
X330939Y322814D01*
X330937Y322814D01*
X330936Y322816D01*
X330851Y322849D01*
X318627Y322849D01*
X318625Y322848D01*
X318623Y322849D01*
X318580Y322829D01*
X318536Y322811D01*
X318536Y322809D01*
X318534Y322808D01*
X318501Y322723D01*
X318501Y310499D01*
X318502Y310497D01*
X318501Y310495D01*
X318521Y310452D01*
X318539Y310408D01*
X318541Y310408D01*
X318542Y310406D01*
X318627Y310373D01*
X330851Y310373D01*
X330853Y310374D01*
G37*
G36*
X359301Y310374D02*
X359301Y310374D01*
X359303Y310373D01*
X359346Y310393D01*
X359390Y310411D01*
X359390Y310413D01*
X359392Y310414D01*
X359425Y310499D01*
X359425Y322723D01*
X359424Y322725D01*
X359425Y322727D01*
X359405Y322770D01*
X359387Y322814D01*
X359385Y322814D01*
X359384Y322816D01*
X359299Y322849D01*
X347075Y322849D01*
X347073Y322848D01*
X347071Y322849D01*
X347028Y322829D01*
X346984Y322811D01*
X346984Y322809D01*
X346982Y322808D01*
X346949Y322723D01*
X346949Y310499D01*
X346950Y310497D01*
X346949Y310495D01*
X346969Y310452D01*
X346987Y310408D01*
X346989Y310408D01*
X346990Y310406D01*
X347075Y310373D01*
X359299Y310373D01*
X359301Y310374D01*
G37*
G36*
X345077Y310374D02*
X345077Y310374D01*
X345079Y310373D01*
X345122Y310393D01*
X345166Y310411D01*
X345166Y310413D01*
X345168Y310414D01*
X345201Y310499D01*
X345201Y322723D01*
X345200Y322725D01*
X345201Y322727D01*
X345181Y322770D01*
X345163Y322814D01*
X345161Y322814D01*
X345160Y322816D01*
X345075Y322849D01*
X332851Y322849D01*
X332849Y322848D01*
X332847Y322849D01*
X332804Y322829D01*
X332760Y322811D01*
X332760Y322809D01*
X332758Y322808D01*
X332725Y322723D01*
X332725Y310499D01*
X332726Y310497D01*
X332725Y310495D01*
X332745Y310452D01*
X332763Y310408D01*
X332765Y310408D01*
X332766Y310406D01*
X332851Y310373D01*
X345075Y310373D01*
X345077Y310374D01*
G37*
G36*
X373525Y310374D02*
X373525Y310374D01*
X373527Y310373D01*
X373570Y310393D01*
X373614Y310411D01*
X373614Y310413D01*
X373616Y310414D01*
X373649Y310499D01*
X373649Y322723D01*
X373648Y322725D01*
X373649Y322727D01*
X373629Y322770D01*
X373611Y322814D01*
X373609Y322814D01*
X373608Y322816D01*
X373523Y322849D01*
X361299Y322849D01*
X361297Y322848D01*
X361295Y322849D01*
X361252Y322829D01*
X361208Y322811D01*
X361208Y322809D01*
X361206Y322808D01*
X361173Y322723D01*
X361173Y310499D01*
X361174Y310497D01*
X361173Y310495D01*
X361193Y310452D01*
X361211Y310408D01*
X361213Y310408D01*
X361214Y310406D01*
X361299Y310373D01*
X373523Y310373D01*
X373525Y310374D01*
G37*
G36*
X359301Y296150D02*
X359301Y296150D01*
X359303Y296149D01*
X359346Y296169D01*
X359390Y296187D01*
X359390Y296189D01*
X359392Y296190D01*
X359425Y296275D01*
X359425Y308499D01*
X359424Y308501D01*
X359425Y308503D01*
X359405Y308546D01*
X359387Y308590D01*
X359385Y308590D01*
X359384Y308592D01*
X359299Y308625D01*
X347075Y308625D01*
X347073Y308624D01*
X347071Y308625D01*
X347028Y308605D01*
X346984Y308587D01*
X346984Y308585D01*
X346982Y308584D01*
X346949Y308499D01*
X346949Y296275D01*
X346950Y296273D01*
X346949Y296271D01*
X346969Y296228D01*
X346987Y296184D01*
X346989Y296184D01*
X346990Y296182D01*
X347075Y296149D01*
X359299Y296149D01*
X359301Y296150D01*
G37*
G36*
X330853Y296150D02*
X330853Y296150D01*
X330855Y296149D01*
X330898Y296169D01*
X330942Y296187D01*
X330942Y296189D01*
X330944Y296190D01*
X330977Y296275D01*
X330977Y308499D01*
X330976Y308501D01*
X330977Y308503D01*
X330957Y308546D01*
X330939Y308590D01*
X330937Y308590D01*
X330936Y308592D01*
X330851Y308625D01*
X318627Y308625D01*
X318625Y308624D01*
X318623Y308625D01*
X318580Y308605D01*
X318536Y308587D01*
X318536Y308585D01*
X318534Y308584D01*
X318501Y308499D01*
X318501Y296275D01*
X318502Y296273D01*
X318501Y296271D01*
X318521Y296228D01*
X318539Y296184D01*
X318541Y296184D01*
X318542Y296182D01*
X318627Y296149D01*
X330851Y296149D01*
X330853Y296150D01*
G37*
G36*
X345077Y296150D02*
X345077Y296150D01*
X345079Y296149D01*
X345122Y296169D01*
X345166Y296187D01*
X345166Y296189D01*
X345168Y296190D01*
X345201Y296275D01*
X345201Y308499D01*
X345200Y308501D01*
X345201Y308503D01*
X345181Y308546D01*
X345163Y308590D01*
X345161Y308590D01*
X345160Y308592D01*
X345075Y308625D01*
X332851Y308625D01*
X332849Y308624D01*
X332847Y308625D01*
X332804Y308605D01*
X332760Y308587D01*
X332760Y308585D01*
X332758Y308584D01*
X332725Y308499D01*
X332725Y296275D01*
X332726Y296273D01*
X332725Y296271D01*
X332745Y296228D01*
X332763Y296184D01*
X332765Y296184D01*
X332766Y296182D01*
X332851Y296149D01*
X345075Y296149D01*
X345077Y296150D01*
G37*
G36*
X373525Y296150D02*
X373525Y296150D01*
X373527Y296149D01*
X373570Y296169D01*
X373614Y296187D01*
X373614Y296189D01*
X373616Y296190D01*
X373649Y296275D01*
X373649Y308499D01*
X373648Y308501D01*
X373649Y308503D01*
X373629Y308546D01*
X373611Y308590D01*
X373609Y308590D01*
X373608Y308592D01*
X373523Y308625D01*
X361299Y308625D01*
X361297Y308624D01*
X361295Y308625D01*
X361252Y308605D01*
X361208Y308587D01*
X361208Y308585D01*
X361206Y308584D01*
X361173Y308499D01*
X361173Y296275D01*
X361174Y296273D01*
X361173Y296271D01*
X361193Y296228D01*
X361211Y296184D01*
X361213Y296184D01*
X361214Y296182D01*
X361299Y296149D01*
X373523Y296149D01*
X373525Y296150D01*
G37*
G36*
X330853Y281926D02*
X330853Y281926D01*
X330855Y281925D01*
X330898Y281945D01*
X330942Y281963D01*
X330942Y281965D01*
X330944Y281966D01*
X330977Y282051D01*
X330977Y294275D01*
X330976Y294277D01*
X330977Y294279D01*
X330957Y294322D01*
X330939Y294366D01*
X330937Y294366D01*
X330936Y294368D01*
X330851Y294401D01*
X318627Y294401D01*
X318625Y294400D01*
X318623Y294401D01*
X318580Y294381D01*
X318536Y294363D01*
X318536Y294361D01*
X318534Y294360D01*
X318501Y294275D01*
X318501Y282051D01*
X318502Y282049D01*
X318501Y282047D01*
X318521Y282004D01*
X318539Y281960D01*
X318541Y281960D01*
X318542Y281958D01*
X318627Y281925D01*
X330851Y281925D01*
X330853Y281926D01*
G37*
G36*
X359301Y281926D02*
X359301Y281926D01*
X359303Y281925D01*
X359346Y281945D01*
X359390Y281963D01*
X359390Y281965D01*
X359392Y281966D01*
X359425Y282051D01*
X359425Y294275D01*
X359424Y294277D01*
X359425Y294279D01*
X359405Y294322D01*
X359387Y294366D01*
X359385Y294366D01*
X359384Y294368D01*
X359299Y294401D01*
X347075Y294401D01*
X347073Y294400D01*
X347071Y294401D01*
X347028Y294381D01*
X346984Y294363D01*
X346984Y294361D01*
X346982Y294360D01*
X346949Y294275D01*
X346949Y282051D01*
X346950Y282049D01*
X346949Y282047D01*
X346969Y282004D01*
X346987Y281960D01*
X346989Y281960D01*
X346990Y281958D01*
X347075Y281925D01*
X359299Y281925D01*
X359301Y281926D01*
G37*
G36*
X345077Y281926D02*
X345077Y281926D01*
X345079Y281925D01*
X345122Y281945D01*
X345166Y281963D01*
X345166Y281965D01*
X345168Y281966D01*
X345201Y282051D01*
X345201Y294275D01*
X345200Y294277D01*
X345201Y294279D01*
X345181Y294322D01*
X345163Y294366D01*
X345161Y294366D01*
X345160Y294368D01*
X345075Y294401D01*
X332851Y294401D01*
X332849Y294400D01*
X332847Y294401D01*
X332804Y294381D01*
X332760Y294363D01*
X332760Y294361D01*
X332758Y294360D01*
X332725Y294275D01*
X332725Y282051D01*
X332726Y282049D01*
X332725Y282047D01*
X332745Y282004D01*
X332763Y281960D01*
X332765Y281960D01*
X332766Y281958D01*
X332851Y281925D01*
X345075Y281925D01*
X345077Y281926D01*
G37*
G36*
X373525Y281926D02*
X373525Y281926D01*
X373527Y281925D01*
X373570Y281945D01*
X373614Y281963D01*
X373614Y281965D01*
X373616Y281966D01*
X373649Y282051D01*
X373649Y294275D01*
X373648Y294277D01*
X373649Y294279D01*
X373629Y294322D01*
X373611Y294366D01*
X373609Y294366D01*
X373608Y294368D01*
X373523Y294401D01*
X361299Y294401D01*
X361297Y294400D01*
X361295Y294401D01*
X361252Y294381D01*
X361208Y294363D01*
X361208Y294361D01*
X361206Y294360D01*
X361173Y294275D01*
X361173Y282051D01*
X361174Y282049D01*
X361173Y282047D01*
X361193Y282004D01*
X361211Y281960D01*
X361213Y281960D01*
X361214Y281958D01*
X361299Y281925D01*
X373523Y281925D01*
X373525Y281926D01*
G37*
G36*
X345077Y267702D02*
X345077Y267702D01*
X345079Y267701D01*
X345122Y267721D01*
X345166Y267739D01*
X345166Y267741D01*
X345168Y267742D01*
X345201Y267827D01*
X345201Y280051D01*
X345200Y280053D01*
X345201Y280055D01*
X345181Y280098D01*
X345163Y280142D01*
X345161Y280142D01*
X345160Y280144D01*
X345075Y280177D01*
X332851Y280177D01*
X332849Y280176D01*
X332847Y280177D01*
X332804Y280157D01*
X332760Y280139D01*
X332760Y280137D01*
X332758Y280136D01*
X332725Y280051D01*
X332725Y267827D01*
X332726Y267825D01*
X332725Y267823D01*
X332745Y267780D01*
X332763Y267736D01*
X332765Y267736D01*
X332766Y267734D01*
X332851Y267701D01*
X345075Y267701D01*
X345077Y267702D01*
G37*
G36*
X359301Y267702D02*
X359301Y267702D01*
X359303Y267701D01*
X359346Y267721D01*
X359390Y267739D01*
X359390Y267741D01*
X359392Y267742D01*
X359425Y267827D01*
X359425Y280051D01*
X359424Y280053D01*
X359425Y280055D01*
X359405Y280098D01*
X359387Y280142D01*
X359385Y280142D01*
X359384Y280144D01*
X359299Y280177D01*
X347075Y280177D01*
X347073Y280176D01*
X347071Y280177D01*
X347028Y280157D01*
X346984Y280139D01*
X346984Y280137D01*
X346982Y280136D01*
X346949Y280051D01*
X346949Y267827D01*
X346950Y267825D01*
X346949Y267823D01*
X346969Y267780D01*
X346987Y267736D01*
X346989Y267736D01*
X346990Y267734D01*
X347075Y267701D01*
X359299Y267701D01*
X359301Y267702D01*
G37*
G36*
X373525Y267702D02*
X373525Y267702D01*
X373527Y267701D01*
X373570Y267721D01*
X373614Y267739D01*
X373614Y267741D01*
X373616Y267742D01*
X373649Y267827D01*
X373649Y280051D01*
X373648Y280053D01*
X373649Y280055D01*
X373629Y280098D01*
X373611Y280142D01*
X373609Y280142D01*
X373608Y280144D01*
X373523Y280177D01*
X361299Y280177D01*
X361297Y280176D01*
X361295Y280177D01*
X361252Y280157D01*
X361208Y280139D01*
X361208Y280137D01*
X361206Y280136D01*
X361173Y280051D01*
X361173Y267827D01*
X361174Y267825D01*
X361173Y267823D01*
X361193Y267780D01*
X361211Y267736D01*
X361213Y267736D01*
X361214Y267734D01*
X361299Y267701D01*
X373523Y267701D01*
X373525Y267702D01*
G37*
G36*
X330853Y267702D02*
X330853Y267702D01*
X330855Y267701D01*
X330898Y267721D01*
X330942Y267739D01*
X330942Y267741D01*
X330944Y267742D01*
X330977Y267827D01*
X330977Y280051D01*
X330976Y280053D01*
X330977Y280055D01*
X330957Y280098D01*
X330939Y280142D01*
X330937Y280142D01*
X330936Y280144D01*
X330851Y280177D01*
X318627Y280177D01*
X318625Y280176D01*
X318623Y280177D01*
X318580Y280157D01*
X318536Y280139D01*
X318536Y280137D01*
X318534Y280136D01*
X318501Y280051D01*
X318501Y267827D01*
X318502Y267825D01*
X318501Y267823D01*
X318521Y267780D01*
X318539Y267736D01*
X318541Y267736D01*
X318542Y267734D01*
X318627Y267701D01*
X330851Y267701D01*
X330853Y267702D01*
G37*
D10*
X400368Y382198D03*
X400368Y365198D03*
D11*
X398780Y421933D03*
X398780Y402933D03*
D12*
X407353Y274703D03*
X407353Y286703D03*
X407353Y298702D03*
D13*
X440618Y438785D03*
X423618Y438785D03*
D10*
X401320Y330590D03*
X401320Y347590D03*
D13*
X267653Y359483D03*
X267653Y376483D03*
D11*
X421640Y350495D03*
X421640Y331495D03*
D13*
X428943Y296935D03*
X428943Y313935D03*
X258200Y273050D03*
X275200Y273050D03*
D14*
X280963Y303213D03*
X261963Y303213D03*
D11*
X330200Y395313D03*
X330200Y414313D03*
D10*
X300038Y411725D03*
X300038Y394725D03*
D15*
X380619Y322782D03*
X380619Y317781D03*
X380619Y312779D03*
X380619Y307778D03*
X380619Y302777D03*
X380619Y297776D03*
X380619Y292774D03*
X380619Y287773D03*
X380619Y282772D03*
X380619Y277771D03*
X380619Y272769D03*
X380619Y267768D03*
D16*
X373582Y260731D03*
X368581Y260731D03*
X363579Y260731D03*
X358578Y260731D03*
X353577Y260731D03*
X348576Y260731D03*
X343574Y260731D03*
X338573Y260731D03*
X333572Y260731D03*
X328571Y260731D03*
X323569Y260731D03*
X318568Y260731D03*
D15*
X311531Y267768D03*
X311531Y272769D03*
X311531Y277771D03*
X311531Y282772D03*
X311531Y287773D03*
X311531Y292774D03*
X311531Y297776D03*
X311531Y302777D03*
X311531Y307778D03*
X311531Y312779D03*
X311531Y317781D03*
X311531Y322782D03*
D16*
X318568Y329819D03*
X323569Y329819D03*
X328571Y329819D03*
X333572Y329819D03*
X338573Y329819D03*
X343574Y329819D03*
X348576Y329819D03*
X353577Y329819D03*
X358578Y329819D03*
X363579Y329819D03*
X368581Y329819D03*
X373582Y329819D03*
M02*
