G04 EAGLE Gerber RS-274X export*
G75*
%MOMM*%
%FSLAX34Y34*%
%LPD*%
%INSolderpaste Top*%
%IPPOS*%
%AMOC8*
5,1,8,0,0,1.08239X$1,22.5*%
G01*
%ADD10R,0.800000X0.800000*%
%ADD11R,1.100000X1.000000*%
%ADD12R,1.000000X1.100000*%
%ADD13R,0.600000X0.720000*%
%ADD14R,0.892000X1.792000*%
%ADD15R,1.010000X0.392000*%
%ADD16C,0.392000*%
%ADD17R,1.295200X2.246000*%
%ADD18R,1.500000X1.300000*%
%ADD19R,1.300000X1.500000*%
%ADD20R,2.700000X1.600000*%


D10*
X265430Y236975D03*
X265430Y251975D03*
D11*
X291783Y232483D03*
X291783Y249483D03*
D12*
X386788Y445453D03*
X403788Y445453D03*
D11*
X314325Y223275D03*
X314325Y240275D03*
D13*
X411813Y285488D03*
X411813Y295188D03*
X411813Y304888D03*
X411813Y314588D03*
X397813Y285488D03*
X397813Y295188D03*
X397813Y304888D03*
X397813Y314588D03*
D14*
X415925Y346075D03*
D15*
X430435Y336075D03*
D16*
X433525Y346075D02*
X427345Y346075D01*
X427345Y356075D02*
X433525Y356075D01*
X404505Y356075D02*
X398325Y356075D01*
X398325Y346075D02*
X404505Y346075D01*
X404505Y336075D02*
X398325Y336075D01*
D17*
X415925Y346075D03*
D18*
X471488Y323825D03*
X471488Y304825D03*
D12*
X471488Y365688D03*
X471488Y348688D03*
D18*
X342900Y271488D03*
X342900Y290488D03*
X374650Y271488D03*
X374650Y290488D03*
D11*
X314325Y273613D03*
X314325Y256613D03*
D12*
X380438Y233363D03*
X397438Y233363D03*
D19*
X360388Y311150D03*
X379388Y311150D03*
D20*
X314325Y292388D03*
X314325Y320388D03*
M02*
